<svg xmlns="http://www.w3.org/2000/svg" xmlns:xlink="http://www.w3.org/1999/xlink" width="300" zoomAndPan="magnify" viewBox="0 0 224.87999 187.499995" height="250" preserveAspectRatio="xMidYMid meet" version="1.0"><defs><g/></defs><g fill="#04080b" fill-opacity="1"><g transform="translate(127.914553, 116.314819)"><g><path d="M 39.96875 -24.40625 C 42.015625 -26.453125 41 -30.015625 38.234375 -30.890625 C 38.078125 -30.890625 37.984375 -30.96875 37.828125 -30.96875 C 36.484375 -31.359375 35.234375 -30.96875 34.203125 -30.171875 C 34.203125 -30.171875 34.125 -30.171875 34.125 -30.171875 L 36.015625 -36.5625 C 36.65625 -38.546875 37.28125 -40.515625 37.984375 -42.5 C 38.46875 -44.078125 38.46875 -45.5 37.28125 -46.765625 C 36.328125 -47.703125 35.234375 -48.09375 33.890625 -48.1875 C 32.390625 -48.265625 31.28125 -47.15625 30.796875 -45.8125 C 29.625 -42.65625 28.359375 -36.65625 27.171875 -31.203125 L 26.703125 -31.203125 C 27.796875 -36.734375 29.0625 -42.65625 29.78125 -45.890625 C 29.78125 -46.125 29.46875 -46.203125 29.375 -46.046875 C 27.5625 -40.203125 26.0625 -34.359375 24.796875 -28.4375 C 23.6875 -28.125 22.59375 -27.875 21.5625 -27.5625 C 19.828125 -27.09375 18.171875 -26.53125 16.5 -25.984375 C 16.671875 -26.53125 16.828125 -27.171875 17.0625 -27.71875 C 17.609375 -29.625 18.171875 -31.59375 18.5625 -33.484375 C 19.4375 -37.359375 19.90625 -41.3125 20.0625 -45.171875 C 20.0625 -46.046875 19.59375 -46.84375 18.875 -47.234375 C 17.53125 -48.015625 15.953125 -47.625 15 -46.359375 C 14.0625 -47.15625 12.640625 -47.234375 11.765625 -46.203125 C 10.578125 -44.625 10.65625 -42.5 10.421875 -40.59375 C 9.953125 -36.8125 9.3125 -33.015625 8.375 -29.296875 C 7.890625 -27.5625 7.265625 -25.75 6.640625 -24.015625 C 5.921875 -22.28125 5.21875 -20.53125 5.84375 -18.640625 C 6.390625 -17.0625 7.578125 -16.109375 9.234375 -16.03125 C 9.234375 -16.03125 9.3125 -16.03125 9.3125 -16.03125 L 9.796875 -15.640625 C 10.34375 -15.171875 11.53125 -15.328125 12 -15.953125 C 12.484375 -16.59375 14.140625 -16.75 14.921875 -17.0625 L 17.921875 -18.015625 C 19.59375 -18.484375 21.25 -18.953125 22.984375 -19.34375 C 22.359375 -16.1875 21.796875 -12.953125 21.328125 -9.796875 C 21.015625 -7.890625 20.609375 -5.921875 20.53125 -4.03125 C 20.453125 -2.765625 20.859375 -1.265625 22.28125 -1.109375 L 22.359375 -1.109375 C 22.671875 -0.390625 23.21875 0.15625 24.09375 0.390625 C 25.515625 0.796875 27.25 0 27.5625 -1.5 C 28.4375 -5.453125 29.0625 -9.40625 29.9375 -13.34375 C 30.484375 -15.953125 31.125 -18.640625 31.75 -21.25 C 33.25 -21.484375 34.671875 -21.796875 35.859375 -22.671875 C 35.9375 -22.75 36.015625 -22.828125 36.09375 -22.984375 C 37.359375 -22.75 38.703125 -23.140625 39.65625 -24.09375 C 39.734375 -24.171875 39.8125 -24.328125 39.96875 -24.40625 Z M 39.96875 -24.40625 "/></g></g></g><g fill="#39ff14" fill-opacity="1"><g transform="translate(131.59601, 116.314819)"><g><path d="M 39.96875 -24.40625 C 42.015625 -26.453125 41 -30.015625 38.234375 -30.890625 C 38.078125 -30.890625 37.984375 -30.96875 37.828125 -30.96875 C 36.484375 -31.359375 35.234375 -30.96875 34.203125 -30.171875 C 34.203125 -30.171875 34.125 -30.171875 34.125 -30.171875 L 36.015625 -36.5625 C 36.65625 -38.546875 37.28125 -40.515625 37.984375 -42.5 C 38.46875 -44.078125 38.46875 -45.5 37.28125 -46.765625 C 36.328125 -47.703125 35.234375 -48.09375 33.890625 -48.1875 C 32.390625 -48.265625 31.28125 -47.15625 30.796875 -45.8125 C 29.625 -42.65625 28.359375 -36.65625 27.171875 -31.203125 L 26.703125 -31.203125 C 27.796875 -36.734375 29.0625 -42.65625 29.78125 -45.890625 C 29.78125 -46.125 29.46875 -46.203125 29.375 -46.046875 C 27.5625 -40.203125 26.0625 -34.359375 24.796875 -28.4375 C 23.6875 -28.125 22.59375 -27.875 21.5625 -27.5625 C 19.828125 -27.09375 18.171875 -26.53125 16.5 -25.984375 C 16.671875 -26.53125 16.828125 -27.171875 17.0625 -27.71875 C 17.609375 -29.625 18.171875 -31.59375 18.5625 -33.484375 C 19.4375 -37.359375 19.90625 -41.3125 20.0625 -45.171875 C 20.0625 -46.046875 19.59375 -46.84375 18.875 -47.234375 C 17.53125 -48.015625 15.953125 -47.625 15 -46.359375 C 14.0625 -47.15625 12.640625 -47.234375 11.765625 -46.203125 C 10.578125 -44.625 10.65625 -42.5 10.421875 -40.59375 C 9.953125 -36.8125 9.3125 -33.015625 8.375 -29.296875 C 7.890625 -27.5625 7.265625 -25.75 6.640625 -24.015625 C 5.921875 -22.28125 5.21875 -20.53125 5.84375 -18.640625 C 6.390625 -17.0625 7.578125 -16.109375 9.234375 -16.03125 C 9.234375 -16.03125 9.3125 -16.03125 9.3125 -16.03125 L 9.796875 -15.640625 C 10.34375 -15.171875 11.53125 -15.328125 12 -15.953125 C 12.484375 -16.59375 14.140625 -16.75 14.921875 -17.0625 L 17.921875 -18.015625 C 19.59375 -18.484375 21.25 -18.953125 22.984375 -19.34375 C 22.359375 -16.1875 21.796875 -12.953125 21.328125 -9.796875 C 21.015625 -7.890625 20.609375 -5.921875 20.53125 -4.03125 C 20.453125 -2.765625 20.859375 -1.265625 22.28125 -1.109375 L 22.359375 -1.109375 C 22.671875 -0.390625 23.21875 0.15625 24.09375 0.390625 C 25.515625 0.796875 27.25 0 27.5625 -1.5 C 28.4375 -5.453125 29.0625 -9.40625 29.9375 -13.34375 C 30.484375 -15.953125 31.125 -18.640625 31.75 -21.25 C 33.25 -21.484375 34.671875 -21.796875 35.859375 -22.671875 C 35.9375 -22.75 36.015625 -22.828125 36.09375 -22.984375 C 37.359375 -22.75 38.703125 -23.140625 39.65625 -24.09375 C 39.734375 -24.171875 39.8125 -24.328125 39.96875 -24.40625 Z M 39.96875 -24.40625 "/></g></g></g><g fill="#04080b" fill-opacity="1"><g transform="translate(92.993345, 116.314819)"><g><path d="M 36.8125 -16.90625 C 37.59375 -21.171875 37.828125 -25.515625 37.515625 -29.78125 C 37.046875 -35.625 35.859375 -41.9375 31.515625 -46.28125 C 29.140625 -48.65625 26.140625 -49.84375 22.90625 -50.15625 C 19.75 -50.46875 16.828125 -48.890625 14.375 -47 C 13.75 -46.4375 13.109375 -45.890625 12.5625 -45.265625 C 12.15625 -45.421875 11.6875 -45.34375 11.375 -44.859375 C 7.421875 -38.625 5.84375 -31.359375 6.078125 -24.015625 C 6.3125 -16.984375 8.375 -9.3125 13.34375 -4.109375 C 15.796875 -1.5 19.1875 0.15625 22.828125 0 C 26.9375 -0.234375 30.25 -2.765625 32.703125 -5.921875 C 34.984375 -9.078125 36.015625 -13.1875 36.8125 -16.90625 Z M 28.90625 -33.015625 C 29.375 -30.96875 29.546875 -29.375 29.703125 -27.328125 C 30.015625 -23.375 29.78125 -19.4375 28.90625 -15.5625 C 28.28125 -12.484375 27.09375 -9.234375 24.796875 -7.5 C 22.359375 -5.765625 20.140625 -6.15625 17.6875 -7.890625 L 17.453125 -8.0625 C 16.671875 -9.234375 15.875 -10.421875 15.25 -11.6875 C 16.265625 -12.484375 16.984375 -13.75 16.828125 -15.09375 C 16.34375 -18.875 16.109375 -22.59375 16.109375 -26.453125 C 16.109375 -27.328125 16.109375 -28.203125 16.1875 -29.140625 C 16.34375 -31.59375 16.984375 -34.046875 17.84375 -36.328125 C 18.796875 -38.703125 21.09375 -42.09375 24.015625 -41 C 26.21875 -40.203125 27.484375 -37.671875 28.203125 -35.546875 C 28.515625 -34.671875 28.671875 -33.890625 28.90625 -33.015625 Z M 28.90625 -33.015625 "/></g></g></g><g fill="#39ff14" fill-opacity="1"><g transform="translate(96.398602, 116.314819)"><g><path d="M 36.8125 -16.90625 C 37.59375 -21.171875 37.828125 -25.515625 37.515625 -29.78125 C 37.046875 -35.625 35.859375 -41.9375 31.515625 -46.28125 C 29.140625 -48.65625 26.140625 -49.84375 22.90625 -50.15625 C 19.75 -50.46875 16.828125 -48.890625 14.375 -47 C 13.75 -46.4375 13.109375 -45.890625 12.5625 -45.265625 C 12.15625 -45.421875 11.6875 -45.34375 11.375 -44.859375 C 7.421875 -38.625 5.84375 -31.359375 6.078125 -24.015625 C 6.3125 -16.984375 8.375 -9.3125 13.34375 -4.109375 C 15.796875 -1.5 19.1875 0.15625 22.828125 0 C 26.9375 -0.234375 30.25 -2.765625 32.703125 -5.921875 C 34.984375 -9.078125 36.015625 -13.1875 36.8125 -16.90625 Z M 28.90625 -33.015625 C 29.375 -30.96875 29.546875 -29.375 29.703125 -27.328125 C 30.015625 -23.375 29.78125 -19.4375 28.90625 -15.5625 C 28.28125 -12.484375 27.09375 -9.234375 24.796875 -7.5 C 22.359375 -5.765625 20.140625 -6.15625 17.6875 -7.890625 L 17.453125 -8.0625 C 16.671875 -9.234375 15.875 -10.421875 15.25 -11.6875 C 16.265625 -12.484375 16.984375 -13.75 16.828125 -15.09375 C 16.34375 -18.875 16.109375 -22.59375 16.109375 -26.453125 C 16.109375 -27.328125 16.109375 -28.203125 16.1875 -29.140625 C 16.34375 -31.59375 16.984375 -34.046875 17.84375 -36.328125 C 18.796875 -38.703125 21.09375 -42.09375 24.015625 -41 C 26.21875 -40.203125 27.484375 -37.671875 28.203125 -35.546875 C 28.515625 -34.671875 28.671875 -33.890625 28.90625 -33.015625 Z M 28.90625 -33.015625 "/></g></g></g><g fill="#04080b" fill-opacity="1"><g transform="translate(55.377854, 116.314819)"><g><path d="M 39.96875 -24.40625 C 42.015625 -26.453125 41 -30.015625 38.234375 -30.890625 C 38.078125 -30.890625 37.984375 -30.96875 37.828125 -30.96875 C 36.484375 -31.359375 35.234375 -30.96875 34.203125 -30.171875 C 34.203125 -30.171875 34.125 -30.171875 34.125 -30.171875 L 36.015625 -36.5625 C 36.65625 -38.546875 37.28125 -40.515625 37.984375 -42.5 C 38.46875 -44.078125 38.46875 -45.5 37.28125 -46.765625 C 36.328125 -47.703125 35.234375 -48.09375 33.890625 -48.1875 C 32.390625 -48.265625 31.28125 -47.15625 30.796875 -45.8125 C 29.625 -42.65625 28.359375 -36.65625 27.171875 -31.203125 L 26.703125 -31.203125 C 27.796875 -36.734375 29.0625 -42.65625 29.78125 -45.890625 C 29.78125 -46.125 29.46875 -46.203125 29.375 -46.046875 C 27.5625 -40.203125 26.0625 -34.359375 24.796875 -28.4375 C 23.6875 -28.125 22.59375 -27.875 21.5625 -27.5625 C 19.828125 -27.09375 18.171875 -26.53125 16.5 -25.984375 C 16.671875 -26.53125 16.828125 -27.171875 17.0625 -27.71875 C 17.609375 -29.625 18.171875 -31.59375 18.5625 -33.484375 C 19.4375 -37.359375 19.90625 -41.3125 20.0625 -45.171875 C 20.0625 -46.046875 19.59375 -46.84375 18.875 -47.234375 C 17.53125 -48.015625 15.953125 -47.625 15 -46.359375 C 14.0625 -47.15625 12.640625 -47.234375 11.765625 -46.203125 C 10.578125 -44.625 10.65625 -42.5 10.421875 -40.59375 C 9.953125 -36.8125 9.3125 -33.015625 8.375 -29.296875 C 7.890625 -27.5625 7.265625 -25.75 6.640625 -24.015625 C 5.921875 -22.28125 5.21875 -20.53125 5.84375 -18.640625 C 6.390625 -17.0625 7.578125 -16.109375 9.234375 -16.03125 C 9.234375 -16.03125 9.3125 -16.03125 9.3125 -16.03125 L 9.796875 -15.640625 C 10.34375 -15.171875 11.53125 -15.328125 12 -15.953125 C 12.484375 -16.59375 14.140625 -16.75 14.921875 -17.0625 L 17.921875 -18.015625 C 19.59375 -18.484375 21.25 -18.953125 22.984375 -19.34375 C 22.359375 -16.1875 21.796875 -12.953125 21.328125 -9.796875 C 21.015625 -7.890625 20.609375 -5.921875 20.53125 -4.03125 C 20.453125 -2.765625 20.859375 -1.265625 22.28125 -1.109375 L 22.359375 -1.109375 C 22.671875 -0.390625 23.21875 0.15625 24.09375 0.390625 C 25.515625 0.796875 27.25 0 27.5625 -1.5 C 28.4375 -5.453125 29.0625 -9.40625 29.9375 -13.34375 C 30.484375 -15.953125 31.125 -18.640625 31.75 -21.25 C 33.25 -21.484375 34.671875 -21.796875 35.859375 -22.671875 C 35.9375 -22.75 36.015625 -22.828125 36.09375 -22.984375 C 37.359375 -22.75 38.703125 -23.140625 39.65625 -24.09375 C 39.734375 -24.171875 39.8125 -24.328125 39.96875 -24.40625 Z M 39.96875 -24.40625 "/></g></g></g><g fill="#39ff14" fill-opacity="1"><g transform="translate(59.059321, 116.314819)"><g><path d="M 39.96875 -24.40625 C 42.015625 -26.453125 41 -30.015625 38.234375 -30.890625 C 38.078125 -30.890625 37.984375 -30.96875 37.828125 -30.96875 C 36.484375 -31.359375 35.234375 -30.96875 34.203125 -30.171875 C 34.203125 -30.171875 34.125 -30.171875 34.125 -30.171875 L 36.015625 -36.5625 C 36.65625 -38.546875 37.28125 -40.515625 37.984375 -42.5 C 38.46875 -44.078125 38.46875 -45.5 37.28125 -46.765625 C 36.328125 -47.703125 35.234375 -48.09375 33.890625 -48.1875 C 32.390625 -48.265625 31.28125 -47.15625 30.796875 -45.8125 C 29.625 -42.65625 28.359375 -36.65625 27.171875 -31.203125 L 26.703125 -31.203125 C 27.796875 -36.734375 29.0625 -42.65625 29.78125 -45.890625 C 29.78125 -46.125 29.46875 -46.203125 29.375 -46.046875 C 27.5625 -40.203125 26.0625 -34.359375 24.796875 -28.4375 C 23.6875 -28.125 22.59375 -27.875 21.5625 -27.5625 C 19.828125 -27.09375 18.171875 -26.53125 16.5 -25.984375 C 16.671875 -26.53125 16.828125 -27.171875 17.0625 -27.71875 C 17.609375 -29.625 18.171875 -31.59375 18.5625 -33.484375 C 19.4375 -37.359375 19.90625 -41.3125 20.0625 -45.171875 C 20.0625 -46.046875 19.59375 -46.84375 18.875 -47.234375 C 17.53125 -48.015625 15.953125 -47.625 15 -46.359375 C 14.0625 -47.15625 12.640625 -47.234375 11.765625 -46.203125 C 10.578125 -44.625 10.65625 -42.5 10.421875 -40.59375 C 9.953125 -36.8125 9.3125 -33.015625 8.375 -29.296875 C 7.890625 -27.5625 7.265625 -25.75 6.640625 -24.015625 C 5.921875 -22.28125 5.21875 -20.53125 5.84375 -18.640625 C 6.390625 -17.0625 7.578125 -16.109375 9.234375 -16.03125 C 9.234375 -16.03125 9.3125 -16.03125 9.3125 -16.03125 L 9.796875 -15.640625 C 10.34375 -15.171875 11.53125 -15.328125 12 -15.953125 C 12.484375 -16.59375 14.140625 -16.75 14.921875 -17.0625 L 17.921875 -18.015625 C 19.59375 -18.484375 21.25 -18.953125 22.984375 -19.34375 C 22.359375 -16.1875 21.796875 -12.953125 21.328125 -9.796875 C 21.015625 -7.890625 20.609375 -5.921875 20.53125 -4.03125 C 20.453125 -2.765625 20.859375 -1.265625 22.28125 -1.109375 L 22.359375 -1.109375 C 22.671875 -0.390625 23.21875 0.15625 24.09375 0.390625 C 25.515625 0.796875 27.25 0 27.5625 -1.5 C 28.4375 -5.453125 29.0625 -9.40625 29.9375 -13.34375 C 30.484375 -15.953125 31.125 -18.640625 31.75 -21.25 C 33.25 -21.484375 34.671875 -21.796875 35.859375 -22.671875 C 35.9375 -22.75 36.015625 -22.828125 36.09375 -22.984375 C 37.359375 -22.75 38.703125 -23.140625 39.65625 -24.09375 C 39.734375 -24.171875 39.8125 -24.328125 39.96875 -24.40625 Z M 39.96875 -24.40625 "/></g></g></g></svg>