<svg xmlns="http://www.w3.org/2000/svg" xmlns:xlink="http://www.w3.org/1999/xlink" width="300" zoomAndPan="magnify" viewBox="0 0 224.87999 187.499995" height="250" preserveAspectRatio="xMidYMid meet" version="1.0"><defs><g/></defs><g fill="#04080b" fill-opacity="1"><g transform="translate(14.783598, 113.736874)"><g><path d="M 29.007812 0.00390625 C 30.351562 5.820312 36.191406 6.144531 35.90625 -1.011719 C 35.664062 -5.789062 34.851562 -12.273438 34.207031 -17.003906 C 38.765625 -19.402344 38.480469 -26.558594 32.554688 -27.761719 C 32.394531 -32.527344 32.898438 -44.453125 32.753906 -43.675781 C 32.226562 -41.101562 31.839844 -38.359375 31.542969 -35.6875 C 31.464844 -35.695312 31.464844 -35.695312 31.390625 -35.78125 C 31.328125 -38.878906 31.28125 -42.128906 31.300781 -45.300781 C 31.273438 -47.835938 29.75 -49.546875 27.480469 -49.894531 C 26.953125 -51.203125 25.457031 -52.277344 24.109375 -52.308594 C 20.089844 -52.558594 18.113281 -47.808594 16.445312 -44.855469 C 13.996094 -40.140625 12.316406 -35.128906 10.789062 -30.023438 C 1.304688 -29.375 0.597656 -20.796875 5.535156 -19.121094 C 5.59375 -18.878906 5.488281 -18.570312 5.398438 -18.417969 C 6.027344 -18.367188 6.820312 -18.382812 7.535156 -18.402344 C 5.980469 -13.933594 4.816406 -9.433594 3.804688 -4.839844 C 2.175781 2.476562 11.84375 4.382812 13.0625 -2.730469 L 13.828125 -6.234375 C 13.828125 -6.234375 15.824219 -14.15625 17.164062 -17.929688 L 17.875 -17.871094 C 15.996094 -13.347656 14.894531 -8.605469 14.113281 -3.914062 C 13.957031 -2.976562 15.292969 -2.863281 15.371094 -3.808594 C 16.160156 -8.578125 17.40625 -13.152344 18.976562 -17.78125 L 25.121094 -17.355469 C 25.519531 -14.46875 27.554688 -0.667969 29.007812 0.00390625 Z M 19.582031 -28.03125 C 20.59375 -31.675781 21.796875 -34.746094 23.417969 -39.050781 C 23.90625 -35.367188 23.863281 -29.980469 24.015625 -27.984375 C 22.90625 -27.996094 20.695312 -28.101562 19.582031 -28.03125 Z M 19.582031 -28.03125 "/></g></g></g><g fill="#39ff14" fill-opacity="1"><g transform="translate(18.577954, 113.587167)"><g><path d="M 29.007812 0.00390625 C 30.351562 5.820312 36.191406 6.144531 35.90625 -1.011719 C 35.664062 -5.789062 34.851562 -12.273438 34.207031 -17.003906 C 38.765625 -19.402344 38.480469 -26.558594 32.554688 -27.761719 C 32.394531 -32.527344 32.898438 -44.453125 32.753906 -43.675781 C 32.226562 -41.101562 31.839844 -38.359375 31.542969 -35.6875 C 31.464844 -35.695312 31.464844 -35.695312 31.390625 -35.78125 C 31.328125 -38.878906 31.28125 -42.128906 31.300781 -45.300781 C 31.273438 -47.835938 29.75 -49.546875 27.480469 -49.894531 C 26.953125 -51.203125 25.457031 -52.277344 24.109375 -52.308594 C 20.089844 -52.558594 18.113281 -47.808594 16.445312 -44.855469 C 13.996094 -40.140625 12.316406 -35.128906 10.789062 -30.023438 C 1.304688 -29.375 0.597656 -20.796875 5.535156 -19.121094 C 5.59375 -18.878906 5.488281 -18.570312 5.398438 -18.417969 C 6.027344 -18.367188 6.820312 -18.382812 7.535156 -18.402344 C 5.980469 -13.933594 4.816406 -9.433594 3.804688 -4.839844 C 2.175781 2.476562 11.84375 4.382812 13.0625 -2.730469 L 13.828125 -6.234375 C 13.828125 -6.234375 15.824219 -14.15625 17.164062 -17.929688 L 17.875 -17.871094 C 15.996094 -13.347656 14.894531 -8.605469 14.113281 -3.914062 C 13.957031 -2.976562 15.292969 -2.863281 15.371094 -3.808594 C 16.160156 -8.578125 17.40625 -13.152344 18.976562 -17.78125 L 25.121094 -17.355469 C 25.519531 -14.46875 27.554688 -0.667969 29.007812 0.00390625 Z M 19.582031 -28.03125 C 20.59375 -31.675781 21.796875 -34.746094 23.417969 -39.050781 C 23.90625 -35.367188 23.863281 -29.980469 24.015625 -27.984375 C 22.90625 -27.996094 20.695312 -28.101562 19.582031 -28.03125 Z M 19.582031 -28.03125 "/></g></g></g><g fill="#04080b" fill-opacity="1"><g transform="translate(55.841737, 118.699405)"><g><path d="M 45.496094 -7.1875 C 47.234375 -11.296875 45.496094 -15.796875 43.601562 -19.511719 C 42.101562 -22.511719 40.207031 -25.277344 38.230469 -27.882812 C 37.046875 -29.464844 35.703125 -30.964844 34.359375 -32.386719 C 30.570312 -36.730469 26.460938 -40.757812 22.355469 -44.707031 C 18.640625 -48.261719 14.851562 -51.738281 9.558594 -52.132812 C 7.742188 -52.289062 4.109375 -51.660156 3.398438 -49.605469 C 3.082031 -49.605469 2.6875 -49.527344 2.289062 -49.449219 C 0.867188 -49.210938 -0.316406 -47.867188 0.15625 -46.289062 C 0.238281 -46.050781 0.394531 -45.734375 0.472656 -45.417969 C 2.289062 -36.652344 4.109375 -27.882812 5.84375 -19.035156 C 6.082031 -18.089844 6.238281 -17.21875 6.398438 -16.273438 L 6.082031 -16.507812 C 3.871094 -17.773438 0.867188 -16.984375 -0.394531 -14.769531 C -1.738281 -12.558594 -1.027344 -9.480469 1.265625 -8.214844 C 3.710938 -6.949219 6.160156 -5.84375 8.6875 -4.816406 C 9.082031 -2.921875 9.636719 -1.660156 11.375 -0.472656 C 12.164062 0.078125 13.269531 0.238281 14.296875 0.15625 C 14.851562 0.15625 15.246094 -0.078125 15.5625 -0.394531 C 15.875 -0.238281 16.273438 -0.15625 16.667969 -0.238281 C 17.296875 -0.394531 17.851562 -0.949219 18.167969 -1.660156 C 20.0625 -1.183594 22.039062 -0.789062 24.011719 -0.472656 C 28.199219 0.15625 32.308594 0.316406 36.414062 -0.632812 C 39.96875 -1.5 43.996094 -3.710938 45.496094 -7.1875 Z M 2.921875 -39.652344 C 3.949219 -36.257812 7.347656 -22.195312 8.371094 -18.484375 C 8.6875 -17.140625 9.164062 -15.796875 9.636719 -14.453125 C 9.164062 -14.691406 8.6875 -15.007812 8.214844 -15.246094 L 6.082031 -23.695312 C 4.660156 -29.148438 3.554688 -34.597656 2.210938 -40.046875 C 1.976562 -41.152344 2.84375 -39.96875 2.921875 -39.652344 Z M 36.414062 -15.5625 C 36.96875 -14.691406 37.441406 -13.664062 37.914062 -12.71875 C 38.390625 -11.769531 38.863281 -10.902344 39.019531 -9.875 C 38.152344 -9.082031 37.046875 -8.6875 35.703125 -8.371094 C 34.042969 -7.898438 32.859375 -7.898438 30.964844 -7.898438 C 28.910156 -7.976562 27.882812 -8.136719 25.828125 -8.609375 C 23.222656 -9.164062 20.695312 -9.953125 18.246094 -10.820312 C 17.851562 -13.191406 17.378906 -15.5625 16.984375 -17.929688 C 15.875 -24.488281 14.691406 -31.121094 13.347656 -37.679688 L 14.851562 -36.886719 C 18.5625 -34.753906 21.722656 -32.464844 24.722656 -29.699219 C 27.726562 -27.09375 30.410156 -24.089844 32.78125 -20.933594 C 34.042969 -19.195312 35.230469 -17.378906 36.414062 -15.5625 Z M 36.414062 -15.5625 "/></g></g></g><g fill="#39ff14" fill-opacity="1"><g transform="translate(59.799427, 118.699405)"><g><path d="M 45.496094 -7.1875 C 47.234375 -11.296875 45.496094 -15.796875 43.601562 -19.511719 C 42.101562 -22.511719 40.207031 -25.277344 38.230469 -27.882812 C 37.046875 -29.464844 35.703125 -30.964844 34.359375 -32.386719 C 30.570312 -36.730469 26.460938 -40.757812 22.355469 -44.707031 C 18.640625 -48.261719 14.851562 -51.738281 9.558594 -52.132812 C 7.742188 -52.289062 4.109375 -51.660156 3.398438 -49.605469 C 3.082031 -49.605469 2.6875 -49.527344 2.289062 -49.449219 C 0.867188 -49.210938 -0.316406 -47.867188 0.15625 -46.289062 C 0.238281 -46.050781 0.394531 -45.734375 0.472656 -45.417969 C 2.289062 -36.652344 4.109375 -27.882812 5.84375 -19.035156 C 6.082031 -18.089844 6.238281 -17.21875 6.398438 -16.273438 L 6.082031 -16.507812 C 3.871094 -17.773438 0.867188 -16.984375 -0.394531 -14.769531 C -1.738281 -12.558594 -1.027344 -9.480469 1.265625 -8.214844 C 3.710938 -6.949219 6.160156 -5.84375 8.6875 -4.816406 C 9.082031 -2.921875 9.636719 -1.660156 11.375 -0.472656 C 12.164062 0.078125 13.269531 0.238281 14.296875 0.15625 C 14.851562 0.15625 15.246094 -0.078125 15.5625 -0.394531 C 15.875 -0.238281 16.273438 -0.15625 16.667969 -0.238281 C 17.296875 -0.394531 17.851562 -0.949219 18.167969 -1.660156 C 20.0625 -1.183594 22.039062 -0.789062 24.011719 -0.472656 C 28.199219 0.15625 32.308594 0.316406 36.414062 -0.632812 C 39.96875 -1.5 43.996094 -3.710938 45.496094 -7.1875 Z M 2.921875 -39.652344 C 3.949219 -36.257812 7.347656 -22.195312 8.371094 -18.484375 C 8.6875 -17.140625 9.164062 -15.796875 9.636719 -14.453125 C 9.164062 -14.691406 8.6875 -15.007812 8.214844 -15.246094 L 6.082031 -23.695312 C 4.660156 -29.148438 3.554688 -34.597656 2.210938 -40.046875 C 1.976562 -41.152344 2.84375 -39.96875 2.921875 -39.652344 Z M 36.414062 -15.5625 C 36.96875 -14.691406 37.441406 -13.664062 37.914062 -12.71875 C 38.390625 -11.769531 38.863281 -10.902344 39.019531 -9.875 C 38.152344 -9.082031 37.046875 -8.6875 35.703125 -8.371094 C 34.042969 -7.898438 32.859375 -7.898438 30.964844 -7.898438 C 28.910156 -7.976562 27.882812 -8.136719 25.828125 -8.609375 C 23.222656 -9.164062 20.695312 -9.953125 18.246094 -10.820312 C 17.851562 -13.191406 17.378906 -15.5625 16.984375 -17.929688 C 15.875 -24.488281 14.691406 -31.121094 13.347656 -37.679688 L 14.851562 -36.886719 C 18.5625 -34.753906 21.722656 -32.464844 24.722656 -29.699219 C 27.726562 -27.09375 30.410156 -24.089844 32.78125 -20.933594 C 34.042969 -19.195312 35.230469 -17.378906 36.414062 -15.5625 Z M 36.414062 -15.5625 "/></g></g></g><g fill="#04080b" fill-opacity="1"><g transform="translate(103.355575, 118.699405)"><g><path d="M 47.550781 -8.058594 C 47.316406 -10.347656 46.761719 -12.636719 46.289062 -14.929688 C 45.734375 -17.535156 45.261719 -20.0625 44.785156 -22.671875 C 44.550781 -23.777344 44.3125 -24.960938 43.996094 -26.144531 C 43.839844 -27.488281 43.601562 -28.910156 43.363281 -30.253906 C 42.734375 -33.808594 42.101562 -37.363281 41.234375 -40.917969 C 40.441406 -44.15625 39.101562 -47.316406 36.652344 -49.761719 C 35.703125 -50.789062 33.964844 -50.789062 32.859375 -49.921875 C 31.910156 -50.472656 30.726562 -50.632812 29.382812 -50.238281 C 28.515625 -50.078125 27.644531 -49.289062 27.488281 -48.5 C 26.539062 -41.628906 24.800781 -34.835938 23.300781 -28.042969 C 22.273438 -23.617188 21.328125 -19.195312 20.300781 -14.769531 C 18.484375 -22.75 16.746094 -31.992188 15.402344 -40.125 C 15.085938 -42.101562 14.691406 -44.074219 14.535156 -45.972656 C 14.453125 -46.761719 14.140625 -47.550781 13.664062 -48.105469 C 13.113281 -49.527344 11.925781 -50.554688 10.425781 -50.871094 C 9.164062 -51.265625 7.742188 -51.105469 6.476562 -50.316406 C 5.527344 -49.761719 5.132812 -48.972656 5.132812 -48.183594 C 4.421875 -46.683594 4.503906 -44.945312 4.582031 -43.363281 C 4.582031 -41.46875 4.660156 -39.652344 4.660156 -37.757812 L 4.660156 -35.941406 C 4.503906 -35.941406 4.421875 -37.679688 4.265625 -37.679688 C 4.1875 -41.074219 4.109375 -44.707031 3.632812 -47.867188 C 3.554688 -48.261719 2.765625 -48.261719 2.6875 -47.867188 C 1.816406 -43.363281 2.132812 -38.625 2.210938 -34.125 C 2.210938 -29.464844 2.289062 -24.722656 2.449219 -20.0625 C 2.527344 -15.480469 2.84375 -11.058594 3.476562 -6.476562 C 3.710938 -4.582031 3.871094 -2.210938 5.292969 -0.789062 C 6.003906 -0.078125 7.109375 0.078125 8.058594 -0.238281 C 8.136719 -0.078125 8.214844 0 8.292969 0.078125 C 8.609375 0.472656 9.164062 0.472656 9.636719 0.238281 C 12.164062 -0.867188 11.925781 -3.792969 11.847656 -6.082031 C 11.691406 -12.71875 11.453125 -19.667969 11.136719 -26.304688 C 11.296875 -25.59375 11.53125 -24.960938 11.769531 -24.328125 C 12.402344 -21.722656 13.113281 -19.035156 13.824219 -16.429688 L 17.21875 -4.34375 C 17.535156 -3.082031 17.851562 -1.894531 18.5625 -0.789062 C 18.71875 -0.472656 19.035156 -0.394531 19.273438 -0.554688 C 19.589844 -0.316406 19.984375 -0.238281 20.378906 -0.238281 C 20.617188 -0.078125 21.011719 -0.078125 21.40625 -0.15625 C 22.671875 -0.472656 23.144531 -1.34375 23.539062 -2.449219 C 23.777344 -3.238281 23.933594 -3.949219 24.089844 -4.738281 C 24.089844 -4.582031 24.328125 -4.503906 24.40625 -4.816406 C 25.039062 -8.136719 26.144531 -13.035156 27.171875 -17.378906 C 28.277344 -21.800781 30.253906 -28.671875 32.148438 -34.203125 C 32.859375 -30.886719 33.570312 -27.566406 34.359375 -24.25 C 36.097656 -17.378906 36.96875 -11.058594 37.125 -4.109375 C 37.125 -2.210938 38.546875 -0.632812 40.363281 -0.238281 C 42.339844 1.738281 45.261719 0.472656 46.445312 -1.578125 C 47.550781 -3.554688 47.710938 -5.84375 47.550781 -8.058594 Z M 14.769531 -29.542969 C 14.769531 -29.699219 14.691406 -29.859375 14.613281 -29.9375 C 13.585938 -34.835938 12.480469 -39.574219 11.296875 -44.390625 C 11.375 -44.550781 11.375 -44.628906 11.375 -44.707031 C 11.769531 -44.785156 12.164062 -44.945312 12.480469 -45.183594 C 12.796875 -43.917969 12.953125 -42.734375 13.113281 -41.546875 C 13.824219 -37.519531 14.851562 -31.753906 15.640625 -27.726562 C 15.164062 -28.199219 15.085938 -28.753906 14.769531 -29.542969 Z M 26.777344 -17.535156 L 26.699219 -17.535156 C 26.621094 -17.535156 26.539062 -17.535156 26.460938 -17.613281 C 26.699219 -18.800781 26.933594 -19.984375 27.09375 -21.167969 C 28.355469 -26.539062 29.777344 -31.832031 31.515625 -37.046875 C 31.675781 -36.492188 31.753906 -35.941406 31.910156 -35.464844 C 29.9375 -29.542969 28.199219 -23.539062 26.777344 -17.535156 Z M 26.777344 -17.535156 "/></g></g></g><g fill="#39ff14" fill-opacity="1"><g transform="translate(106.208376, 118.699405)"><g><path d="M 47.550781 -8.058594 C 47.316406 -10.347656 46.761719 -12.636719 46.289062 -14.929688 C 45.734375 -17.535156 45.261719 -20.0625 44.785156 -22.671875 C 44.550781 -23.777344 44.3125 -24.960938 43.996094 -26.144531 C 43.839844 -27.488281 43.601562 -28.910156 43.363281 -30.253906 C 42.734375 -33.808594 42.101562 -37.363281 41.234375 -40.917969 C 40.441406 -44.15625 39.101562 -47.316406 36.652344 -49.761719 C 35.703125 -50.789062 33.964844 -50.789062 32.859375 -49.921875 C 31.910156 -50.472656 30.726562 -50.632812 29.382812 -50.238281 C 28.515625 -50.078125 27.644531 -49.289062 27.488281 -48.5 C 26.539062 -41.628906 24.800781 -34.835938 23.300781 -28.042969 C 22.273438 -23.617188 21.328125 -19.195312 20.300781 -14.769531 C 18.484375 -22.75 16.746094 -31.992188 15.402344 -40.125 C 15.085938 -42.101562 14.691406 -44.074219 14.535156 -45.972656 C 14.453125 -46.761719 14.140625 -47.550781 13.664062 -48.105469 C 13.113281 -49.527344 11.925781 -50.554688 10.425781 -50.871094 C 9.164062 -51.265625 7.742188 -51.105469 6.476562 -50.316406 C 5.527344 -49.761719 5.132812 -48.972656 5.132812 -48.183594 C 4.421875 -46.683594 4.503906 -44.945312 4.582031 -43.363281 C 4.582031 -41.46875 4.660156 -39.652344 4.660156 -37.757812 L 4.660156 -35.941406 C 4.503906 -35.941406 4.421875 -37.679688 4.265625 -37.679688 C 4.1875 -41.074219 4.109375 -44.707031 3.632812 -47.867188 C 3.554688 -48.261719 2.765625 -48.261719 2.6875 -47.867188 C 1.816406 -43.363281 2.132812 -38.625 2.210938 -34.125 C 2.210938 -29.464844 2.289062 -24.722656 2.449219 -20.0625 C 2.527344 -15.480469 2.84375 -11.058594 3.476562 -6.476562 C 3.710938 -4.582031 3.871094 -2.210938 5.292969 -0.789062 C 6.003906 -0.078125 7.109375 0.078125 8.058594 -0.238281 C 8.136719 -0.078125 8.214844 0 8.292969 0.078125 C 8.609375 0.472656 9.164062 0.472656 9.636719 0.238281 C 12.164062 -0.867188 11.925781 -3.792969 11.847656 -6.082031 C 11.691406 -12.71875 11.453125 -19.667969 11.136719 -26.304688 C 11.296875 -25.59375 11.53125 -24.960938 11.769531 -24.328125 C 12.402344 -21.722656 13.113281 -19.035156 13.824219 -16.429688 L 17.21875 -4.34375 C 17.535156 -3.082031 17.851562 -1.894531 18.5625 -0.789062 C 18.71875 -0.472656 19.035156 -0.394531 19.273438 -0.554688 C 19.589844 -0.316406 19.984375 -0.238281 20.378906 -0.238281 C 20.617188 -0.078125 21.011719 -0.078125 21.40625 -0.15625 C 22.671875 -0.472656 23.144531 -1.34375 23.539062 -2.449219 C 23.777344 -3.238281 23.933594 -3.949219 24.089844 -4.738281 C 24.089844 -4.582031 24.328125 -4.503906 24.40625 -4.816406 C 25.039062 -8.136719 26.144531 -13.035156 27.171875 -17.378906 C 28.277344 -21.800781 30.253906 -28.671875 32.148438 -34.203125 C 32.859375 -30.886719 33.570312 -27.566406 34.359375 -24.25 C 36.097656 -17.378906 36.96875 -11.058594 37.125 -4.109375 C 37.125 -2.210938 38.546875 -0.632812 40.363281 -0.238281 C 42.339844 1.738281 45.261719 0.472656 46.445312 -1.578125 C 47.550781 -3.554688 47.710938 -5.84375 47.550781 -8.058594 Z M 14.769531 -29.542969 C 14.769531 -29.699219 14.691406 -29.859375 14.613281 -29.9375 C 13.585938 -34.835938 12.480469 -39.574219 11.296875 -44.390625 C 11.375 -44.550781 11.375 -44.628906 11.375 -44.707031 C 11.769531 -44.785156 12.164062 -44.945312 12.480469 -45.183594 C 12.796875 -43.917969 12.953125 -42.734375 13.113281 -41.546875 C 13.824219 -37.519531 14.851562 -31.753906 15.640625 -27.726562 C 15.164062 -28.199219 15.085938 -28.753906 14.769531 -29.542969 Z M 26.777344 -17.535156 L 26.699219 -17.535156 C 26.621094 -17.535156 26.539062 -17.535156 26.460938 -17.613281 C 26.699219 -18.800781 26.933594 -19.984375 27.09375 -21.167969 C 28.355469 -26.539062 29.777344 -31.832031 31.515625 -37.046875 C 31.675781 -36.492188 31.753906 -35.941406 31.910156 -35.464844 C 29.9375 -29.542969 28.199219 -23.539062 26.777344 -17.535156 Z M 26.777344 -17.535156 "/></g></g></g><g fill="#04080b" fill-opacity="1"><g transform="translate(150.85183, 120.81101)"><g><path d="M 1.105469 -45.578125 C 1.265625 -44.785156 2.371094 -44.15625 3.082031 -43.917969 C 4.265625 -43.445312 5.449219 -43.285156 6.714844 -43.285156 C 8.214844 -43.285156 9.953125 -43.679688 10.902344 -44.785156 C 12.402344 -45.101562 13.902344 -45.8125 15.085938 -46.683594 C 15.71875 -47.15625 16.273438 -47.945312 15.957031 -48.816406 C 15.164062 -50.871094 13.585938 -52.054688 11.453125 -52.605469 C 9.003906 -53.238281 6.554688 -52.289062 4.503906 -50.871094 C 4.34375 -50.789062 4.1875 -50.632812 4.027344 -50.472656 C 3.238281 -49.921875 2.605469 -49.289062 2.054688 -48.5 C 1.5 -47.710938 0.789062 -46.605469 1.105469 -45.578125 Z M 6.398438 -43.679688 C 5.449219 -43.761719 4.582031 -43.917969 3.710938 -44.234375 C 3.160156 -44.390625 2.6875 -44.707031 2.210938 -45.101562 C 1.578125 -45.65625 1.660156 -46.207031 1.976562 -46.917969 C 2.289062 -47.472656 2.605469 -47.945312 3 -48.421875 C 2.210938 -46.605469 3.082031 -44.785156 5.371094 -44.3125 C 7.1875 -43.996094 8.214844 -44.15625 9.164062 -44.390625 C 9.242188 -44.390625 8.6875 -43.679688 6.398438 -43.679688 Z M 14.613281 -4.1875 C 14.769531 -3.398438 16.035156 -3.476562 15.957031 -4.265625 C 14.453125 -15.480469 13.824219 -26.699219 14.140625 -37.992188 C 14.140625 -38.074219 13.585938 -37.992188 13.585938 -37.835938 C 13.269531 -32.226562 13.269531 -23.933594 13.507812 -18.324219 C 13.347656 -18.324219 13.113281 -21.089844 12.953125 -21.011719 C 12.875 -21.722656 12.796875 -22.433594 12.796875 -22.984375 C 12.71875 -25.910156 12.558594 -28.832031 12.558594 -31.675781 C 12.558594 -34.597656 12.71875 -37.441406 12.71875 -40.363281 C 12.636719 -41.074219 12.007812 -41.390625 11.453125 -41.3125 C 10.191406 -44.472656 6.160156 -41.546875 4.503906 -40.441406 C 4.265625 -40.207031 4.027344 -39.96875 3.871094 -39.652344 C 2.921875 -38.703125 2.449219 -37.203125 2.210938 -35.703125 C 1.894531 -32.859375 1.976562 -29.9375 1.976562 -27.09375 C 1.894531 -21.167969 2.289062 -15.324219 3 -9.480469 C 3.316406 -7.265625 3.398438 -4.898438 5.054688 -3.316406 C 5.449219 -3 5.84375 -2.765625 6.238281 -2.605469 L 6.398438 -2.371094 C 7.898438 -0.867188 10.269531 -0.394531 12.164062 -1.34375 C 12.875 -1.660156 13.035156 -2.289062 12.953125 -2.84375 C 13.585938 -3.082031 14.21875 -3.554688 14.613281 -4.1875 Z M 5.84375 -36.414062 C 5.84375 -36.570312 6.160156 -37.046875 6.398438 -37.203125 L 6.476562 -37.203125 C 5.609375 -34.675781 5.449219 -31.753906 5.449219 -29.066406 C 5.371094 -25.511719 5.449219 -21.960938 5.449219 -18.40625 L 5.214844 -18.40625 C 4.976562 -20.300781 4.738281 -22.195312 4.582031 -24.089844 C 4.582031 -24.171875 4.582031 -24.171875 4.582031 -24.25 L 4.582031 -25.039062 C 4.738281 -28.671875 4.660156 -32.859375 5.84375 -36.414062 Z M 5.84375 -36.414062 "/></g></g></g><g fill="#39ff14" fill-opacity="1"><g transform="translate(153.704636, 120.81101)"><g><path d="M 1.105469 -45.578125 C 1.265625 -44.785156 2.371094 -44.15625 3.082031 -43.917969 C 4.265625 -43.445312 5.449219 -43.285156 6.714844 -43.285156 C 8.214844 -43.285156 9.953125 -43.679688 10.902344 -44.785156 C 12.402344 -45.101562 13.902344 -45.8125 15.085938 -46.683594 C 15.71875 -47.15625 16.273438 -47.945312 15.957031 -48.816406 C 15.164062 -50.871094 13.585938 -52.054688 11.453125 -52.605469 C 9.003906 -53.238281 6.554688 -52.289062 4.503906 -50.871094 C 4.34375 -50.789062 4.1875 -50.632812 4.027344 -50.472656 C 3.238281 -49.921875 2.605469 -49.289062 2.054688 -48.5 C 1.5 -47.710938 0.789062 -46.605469 1.105469 -45.578125 Z M 6.398438 -43.679688 C 5.449219 -43.761719 4.582031 -43.917969 3.710938 -44.234375 C 3.160156 -44.390625 2.6875 -44.707031 2.210938 -45.101562 C 1.578125 -45.65625 1.660156 -46.207031 1.976562 -46.917969 C 2.289062 -47.472656 2.605469 -47.945312 3 -48.421875 C 2.210938 -46.605469 3.082031 -44.785156 5.371094 -44.3125 C 7.1875 -43.996094 8.214844 -44.15625 9.164062 -44.390625 C 9.242188 -44.390625 8.6875 -43.679688 6.398438 -43.679688 Z M 14.613281 -4.1875 C 14.769531 -3.398438 16.035156 -3.476562 15.957031 -4.265625 C 14.453125 -15.480469 13.824219 -26.699219 14.140625 -37.992188 C 14.140625 -38.074219 13.585938 -37.992188 13.585938 -37.835938 C 13.269531 -32.226562 13.269531 -23.933594 13.507812 -18.324219 C 13.347656 -18.324219 13.113281 -21.089844 12.953125 -21.011719 C 12.875 -21.722656 12.796875 -22.433594 12.796875 -22.984375 C 12.71875 -25.910156 12.558594 -28.832031 12.558594 -31.675781 C 12.558594 -34.597656 12.71875 -37.441406 12.71875 -40.363281 C 12.636719 -41.074219 12.007812 -41.390625 11.453125 -41.3125 C 10.191406 -44.472656 6.160156 -41.546875 4.503906 -40.441406 C 4.265625 -40.207031 4.027344 -39.96875 3.871094 -39.652344 C 2.921875 -38.703125 2.449219 -37.203125 2.210938 -35.703125 C 1.894531 -32.859375 1.976562 -29.9375 1.976562 -27.09375 C 1.894531 -21.167969 2.289062 -15.324219 3 -9.480469 C 3.316406 -7.265625 3.398438 -4.898438 5.054688 -3.316406 C 5.449219 -3 5.84375 -2.765625 6.238281 -2.605469 L 6.398438 -2.371094 C 7.898438 -0.867188 10.269531 -0.394531 12.164062 -1.34375 C 12.875 -1.660156 13.035156 -2.289062 12.953125 -2.84375 C 13.585938 -3.082031 14.21875 -3.554688 14.613281 -4.1875 Z M 5.84375 -36.414062 C 5.84375 -36.570312 6.160156 -37.046875 6.398438 -37.203125 L 6.476562 -37.203125 C 5.609375 -34.675781 5.449219 -31.753906 5.449219 -29.066406 C 5.371094 -25.511719 5.449219 -21.960938 5.449219 -18.40625 L 5.214844 -18.40625 C 4.976562 -20.300781 4.738281 -22.195312 4.582031 -24.089844 C 4.582031 -24.171875 4.582031 -24.171875 4.582031 -24.25 L 4.582031 -25.039062 C 4.738281 -28.671875 4.660156 -32.859375 5.84375 -36.414062 Z M 5.84375 -36.414062 "/></g></g></g><g fill="#04080b" fill-opacity="1"><g transform="translate(168.3406, 118.699405)"><g><path d="M 34.28125 0.238281 C 35.78125 0.238281 37.046875 -0.710938 37.914062 -1.894531 C 37.28125 -11.613281 36.414062 -21.40625 34.835938 -31.042969 C 34.125 -35.78125 33.332031 -40.601562 32.070312 -45.183594 C 31.675781 -46.683594 31.199219 -48.183594 30.886719 -49.683594 C 30.726562 -49.84375 30.570312 -50 30.332031 -50.078125 C 28.988281 -51.027344 26.621094 -51.183594 25.671875 -49.449219 C 25.671875 -49.367188 25.59375 -49.367188 25.59375 -49.289062 C 25.039062 -48.972656 24.566406 -48.421875 24.25 -47.867188 C 23.378906 -46.289062 24.089844 -44.785156 24.488281 -43.285156 C 25.277344 -40.441406 25.75 -37.597656 26.304688 -34.753906 C 27.015625 -30.726562 27.882812 -26.539062 28.277344 -22.589844 L 27.015625 -25.039062 C 27.015625 -25.277344 27.015625 -25.511719 26.855469 -25.828125 C 25.277344 -29.066406 23.617188 -32.226562 21.800781 -35.308594 C 19.667969 -39.179688 17.457031 -42.96875 14.769531 -46.523438 C 13.269531 -48.5 8.769531 -53.160156 6.320312 -49.921875 C 5.925781 -49.367188 5.6875 -48.738281 5.6875 -48.105469 C 5.132812 -48.027344 4.582031 -47.710938 4.1875 -47.394531 C 3.949219 -43.996094 4.109375 -40.523438 4.1875 -37.046875 C 4.34375 -31.675781 4.421875 -26.222656 4.660156 -20.851562 C 4.898438 -14.21875 5.132812 -7.582031 5.527344 -0.949219 C 6.082031 -0.238281 6.792969 0.316406 7.742188 0.554688 C 9.480469 1.105469 11.296875 0.472656 12.242188 -1.105469 C 15.480469 -1.578125 14.613281 -6.160156 14.535156 -8.609375 C 14.453125 -11.769531 14.375 -14.929688 14.21875 -18.089844 C 14.21875 -23.460938 14.296875 -28.832031 14.21875 -34.203125 C 14.613281 -33.648438 15.007812 -33.015625 15.480469 -32.464844 L 29.226562 -7.898438 L 29.699219 -5.214844 C 30.09375 -3.160156 30.570312 -0.710938 32.703125 0.238281 C 33.175781 0.472656 33.808594 0.554688 34.28125 0.238281 Z M 38.703125 -2.6875 C 38.785156 -3.792969 38.703125 -5.527344 38.625 -6.082031 C 38.703125 -20.0625 36.96875 -34.042969 34.125 -47.789062 C 33.964844 -48.578125 33.015625 -48.578125 32.621094 -48.105469 C 32.308594 -47.789062 32.308594 -47.472656 32.386719 -47.234375 C 35.625 -32.542969 37.363281 -17.535156 38.390625 -2.449219 C 38.46875 -2.605469 38.546875 -2.6875 38.703125 -2.6875 Z M 4.109375 -8.453125 C 4.421875 -5.054688 4.738281 -5.214844 4.738281 -5.214844 L 4.027344 -22.984375 C 3.871094 -28.515625 3.710938 -34.042969 3.632812 -39.496094 C 3.554688 -42.023438 3.476562 -44.550781 3.554688 -47.078125 C 3 -45.8125 2.84375 -44.3125 2.921875 -42.96875 C 3 -37.28125 3.082031 -31.597656 3.316406 -25.988281 C 3.554688 -20.300781 3.632812 -14.058594 4.109375 -8.453125 Z M 12.953125 -12.324219 C 13.035156 -11.375 13.113281 -10.503906 13.113281 -9.558594 C 13.269531 -7.976562 13.347656 -6.398438 13.429688 -4.898438 C 13.507812 -4.1875 13.269531 -3 12.796875 -2.210938 C 13.269531 -4.1875 12.480469 -6.003906 12.480469 -7.265625 L 12.558594 -12.007812 C 12.636719 -12.085938 12.71875 -12.085938 12.71875 -12.085938 Z M 12.953125 -12.324219 "/></g></g></g><g fill="#39ff14" fill-opacity="1"><g transform="translate(171.74585, 118.699405)"><g><path d="M 34.28125 0.238281 C 35.78125 0.238281 37.046875 -0.710938 37.914062 -1.894531 C 37.28125 -11.613281 36.414062 -21.40625 34.835938 -31.042969 C 34.125 -35.78125 33.332031 -40.601562 32.070312 -45.183594 C 31.675781 -46.683594 31.199219 -48.183594 30.886719 -49.683594 C 30.726562 -49.84375 30.570312 -50 30.332031 -50.078125 C 28.988281 -51.027344 26.621094 -51.183594 25.671875 -49.449219 C 25.671875 -49.367188 25.59375 -49.367188 25.59375 -49.289062 C 25.039062 -48.972656 24.566406 -48.421875 24.25 -47.867188 C 23.378906 -46.289062 24.089844 -44.785156 24.488281 -43.285156 C 25.277344 -40.441406 25.75 -37.597656 26.304688 -34.753906 C 27.015625 -30.726562 27.882812 -26.539062 28.277344 -22.589844 L 27.015625 -25.039062 C 27.015625 -25.277344 27.015625 -25.511719 26.855469 -25.828125 C 25.277344 -29.066406 23.617188 -32.226562 21.800781 -35.308594 C 19.667969 -39.179688 17.457031 -42.96875 14.769531 -46.523438 C 13.269531 -48.5 8.769531 -53.160156 6.320312 -49.921875 C 5.925781 -49.367188 5.6875 -48.738281 5.6875 -48.105469 C 5.132812 -48.027344 4.582031 -47.710938 4.1875 -47.394531 C 3.949219 -43.996094 4.109375 -40.523438 4.1875 -37.046875 C 4.34375 -31.675781 4.421875 -26.222656 4.660156 -20.851562 C 4.898438 -14.21875 5.132812 -7.582031 5.527344 -0.949219 C 6.082031 -0.238281 6.792969 0.316406 7.742188 0.554688 C 9.480469 1.105469 11.296875 0.472656 12.242188 -1.105469 C 15.480469 -1.578125 14.613281 -6.160156 14.535156 -8.609375 C 14.453125 -11.769531 14.375 -14.929688 14.21875 -18.089844 C 14.21875 -23.460938 14.296875 -28.832031 14.21875 -34.203125 C 14.613281 -33.648438 15.007812 -33.015625 15.480469 -32.464844 L 29.226562 -7.898438 L 29.699219 -5.214844 C 30.09375 -3.160156 30.570312 -0.710938 32.703125 0.238281 C 33.175781 0.472656 33.808594 0.554688 34.28125 0.238281 Z M 38.703125 -2.6875 C 38.785156 -3.792969 38.703125 -5.527344 38.625 -6.082031 C 38.703125 -20.0625 36.96875 -34.042969 34.125 -47.789062 C 33.964844 -48.578125 33.015625 -48.578125 32.621094 -48.105469 C 32.308594 -47.789062 32.308594 -47.472656 32.386719 -47.234375 C 35.625 -32.542969 37.363281 -17.535156 38.390625 -2.449219 C 38.46875 -2.605469 38.546875 -2.6875 38.703125 -2.6875 Z M 4.109375 -8.453125 C 4.421875 -5.054688 4.738281 -5.214844 4.738281 -5.214844 L 4.027344 -22.984375 C 3.871094 -28.515625 3.710938 -34.042969 3.632812 -39.496094 C 3.554688 -42.023438 3.476562 -44.550781 3.554688 -47.078125 C 3 -45.8125 2.84375 -44.3125 2.921875 -42.96875 C 3 -37.28125 3.082031 -31.597656 3.316406 -25.988281 C 3.554688 -20.300781 3.632812 -14.058594 4.109375 -8.453125 Z M 12.953125 -12.324219 C 13.035156 -11.375 13.113281 -10.503906 13.113281 -9.558594 C 13.269531 -7.976562 13.347656 -6.398438 13.429688 -4.898438 C 13.507812 -4.1875 13.269531 -3 12.796875 -2.210938 C 13.269531 -4.1875 12.480469 -6.003906 12.480469 -7.265625 L 12.558594 -12.007812 C 12.636719 -12.085938 12.71875 -12.085938 12.71875 -12.085938 Z M 12.953125 -12.324219 "/></g></g></g></svg>