<svg xmlns="http://www.w3.org/2000/svg" xmlns:xlink="http://www.w3.org/1999/xlink" width="150" zoomAndPan="magnify" viewBox="0 0 112.5 187.499992" height="250" preserveAspectRatio="xMidYMid meet" version="1.0"><defs><g/></defs><g fill="#04080b" fill-opacity="1"><g transform="translate(7.297613, 108.614922)"><g><path d="M 19.039062 -14.96875 C 18.328125 -15.996094 16.984375 -16.472656 15.878906 -15.800781 C 14.695312 -15.128906 14.535156 -13.785156 15.050781 -12.640625 C 15.285156 -12.085938 15.324219 -11.496094 15.367188 -10.863281 C 15.40625 -9.480469 15.246094 -7.980469 14.535156 -6.714844 C 14.300781 -6.242188 13.902344 -5.765625 13.507812 -5.410156 C 12.441406 -4.464844 11.058594 -3.949219 9.597656 -3.910156 C 9.441406 -3.910156 9.242188 -3.949219 9.085938 -3.949219 C 6.515625 -4.109375 5.136719 -6.320312 4.382812 -8.652344 C 4.109375 -9.519531 3.949219 -10.429688 3.988281 -11.375 C 3.988281 -11.574219 3.988281 -11.808594 4.027344 -12.007812 C 4.027344 -12.246094 4.070312 -12.246094 4.109375 -12.5625 C 4.738281 -15.917969 6.203125 -18.605469 8.886719 -20.660156 C 9.085938 -20.777344 9.242188 -20.894531 9.402344 -21.015625 L 9.636719 -13.390625 C 9.675781 -12.125 9.636719 -10.824219 10.191406 -9.597656 C 10.625 -8.652344 11.691406 -7.980469 12.71875 -8.097656 C 13.546875 -8.175781 13.390625 -9.402344 12.5625 -9.242188 C 11.414062 -9.046875 10.863281 -10.308594 10.625 -11.21875 L 10.625 -11.335938 L 10.742188 -11.335938 C 10.824219 -11.097656 10.902344 -10.824219 11.058594 -10.585938 C 11.296875 -10.113281 11.652344 -9.71875 12.164062 -9.558594 C 12.246094 -9.558594 12.363281 -9.519531 12.480469 -9.558594 C 12.519531 -9.480469 12.601562 -9.441406 12.71875 -9.363281 C 12.917969 -9.242188 13.230469 -9.363281 13.273438 -9.597656 C 13.390625 -10.113281 13.3125 -10.664062 13.3125 -11.21875 C 13.273438 -11.851562 13.230469 -12.519531 13.230469 -13.191406 L 13.113281 -16.945312 C 13.074219 -18.210938 13.035156 -22.082031 13.113281 -22.75 C 13.152344 -23.34375 13.191406 -23.816406 12.957031 -24.292969 C 12.957031 -24.964844 12.441406 -25.554688 11.613281 -25.636719 C 10.664062 -25.714844 9.675781 -25.4375 8.886719 -24.964844 C 8.058594 -24.488281 7.269531 -23.976562 6.515625 -23.421875 C 4.898438 -22.277344 3.160156 -20.5 1.976562 -18.921875 C 0.199219 -16.628906 -0.394531 -13.785156 -0.433594 -10.902344 C -0.433594 -10.03125 -0.316406 -9.164062 -0.15625 -8.335938 C 0.59375 -4.859375 3.160156 -1.976562 6.398438 -0.671875 C 9.71875 0.671875 13.628906 -0.199219 16.3125 -2.371094 C 17.972656 -3.671875 18.960938 -5.765625 19.472656 -7.78125 C 20.066406 -9.992188 20.34375 -12.957031 19.039062 -14.96875 Z M 10.191406 -21.566406 C 10.074219 -20.105469 10.074219 -18.644531 10.152344 -17.183594 L 9.953125 -17.183594 C 9.835938 -18.484375 9.675781 -19.789062 9.558594 -21.132812 C 9.757812 -21.25 9.992188 -21.410156 10.191406 -21.566406 Z M 15.011719 -12.71875 C 15.011719 -12.757812 14.96875 -12.796875 14.96875 -12.796875 C 14.96875 -12.757812 15.011719 -12.757812 15.011719 -12.71875 Z M 15.050781 -12.640625 C 15.050781 -12.679688 15.011719 -12.679688 15.011719 -12.71875 C 15.011719 -12.679688 15.011719 -12.679688 15.050781 -12.640625 Z M 15.050781 -12.640625 "/></g></g></g><g fill="#39ff14" fill-opacity="1"><g transform="translate(9.869637, 108.614922)"><g><path d="M 19.039062 -14.96875 C 18.328125 -15.996094 16.984375 -16.472656 15.878906 -15.800781 C 14.695312 -15.128906 14.535156 -13.785156 15.050781 -12.640625 C 15.285156 -12.085938 15.324219 -11.496094 15.367188 -10.863281 C 15.40625 -9.480469 15.246094 -7.980469 14.535156 -6.714844 C 14.300781 -6.242188 13.902344 -5.765625 13.507812 -5.410156 C 12.441406 -4.464844 11.058594 -3.949219 9.597656 -3.910156 C 9.441406 -3.910156 9.242188 -3.949219 9.085938 -3.949219 C 6.515625 -4.109375 5.136719 -6.320312 4.382812 -8.652344 C 4.109375 -9.519531 3.949219 -10.429688 3.988281 -11.375 C 3.988281 -11.574219 3.988281 -11.808594 4.027344 -12.007812 C 4.027344 -12.246094 4.070312 -12.246094 4.109375 -12.5625 C 4.738281 -15.917969 6.203125 -18.605469 8.886719 -20.660156 C 9.085938 -20.777344 9.242188 -20.894531 9.402344 -21.015625 L 9.636719 -13.390625 C 9.675781 -12.125 9.636719 -10.824219 10.191406 -9.597656 C 10.625 -8.652344 11.691406 -7.980469 12.71875 -8.097656 C 13.546875 -8.175781 13.390625 -9.402344 12.5625 -9.242188 C 11.414062 -9.046875 10.863281 -10.308594 10.625 -11.21875 L 10.625 -11.335938 L 10.742188 -11.335938 C 10.824219 -11.097656 10.902344 -10.824219 11.058594 -10.585938 C 11.296875 -10.113281 11.652344 -9.71875 12.164062 -9.558594 C 12.246094 -9.558594 12.363281 -9.519531 12.480469 -9.558594 C 12.519531 -9.480469 12.601562 -9.441406 12.71875 -9.363281 C 12.917969 -9.242188 13.230469 -9.363281 13.273438 -9.597656 C 13.390625 -10.113281 13.3125 -10.664062 13.3125 -11.21875 C 13.273438 -11.851562 13.230469 -12.519531 13.230469 -13.191406 L 13.113281 -16.945312 C 13.074219 -18.210938 13.035156 -22.082031 13.113281 -22.75 C 13.152344 -23.34375 13.191406 -23.816406 12.957031 -24.292969 C 12.957031 -24.964844 12.441406 -25.554688 11.613281 -25.636719 C 10.664062 -25.714844 9.675781 -25.4375 8.886719 -24.964844 C 8.058594 -24.488281 7.269531 -23.976562 6.515625 -23.421875 C 4.898438 -22.277344 3.160156 -20.5 1.976562 -18.921875 C 0.199219 -16.628906 -0.394531 -13.785156 -0.433594 -10.902344 C -0.433594 -10.03125 -0.316406 -9.164062 -0.15625 -8.335938 C 0.59375 -4.859375 3.160156 -1.976562 6.398438 -0.671875 C 9.71875 0.671875 13.628906 -0.199219 16.3125 -2.371094 C 17.972656 -3.671875 18.960938 -5.765625 19.472656 -7.78125 C 20.066406 -9.992188 20.34375 -12.957031 19.039062 -14.96875 Z M 10.191406 -21.566406 C 10.074219 -20.105469 10.074219 -18.644531 10.152344 -17.183594 L 9.953125 -17.183594 C 9.835938 -18.484375 9.675781 -19.789062 9.558594 -21.132812 C 9.757812 -21.25 9.992188 -21.410156 10.191406 -21.566406 Z M 15.011719 -12.71875 C 15.011719 -12.757812 14.96875 -12.796875 14.96875 -12.796875 C 14.96875 -12.757812 15.011719 -12.757812 15.011719 -12.71875 Z M 15.050781 -12.640625 C 15.050781 -12.679688 15.011719 -12.679688 15.011719 -12.71875 C 15.011719 -12.679688 15.011719 -12.679688 15.050781 -12.640625 Z M 15.050781 -12.640625 "/></g></g></g><g fill="#04080b" fill-opacity="1"><g transform="translate(28.889247, 107.404947)"><g><path d="M 16.976562 0.308594 C 18.070312 0.515625 18.910156 -0.832031 18.457031 -1.789062 C 18.324219 -2.027344 18.1875 -2.230469 18.050781 -2.433594 C 18.105469 -2.621094 18.160156 -2.847656 18.175781 -3.035156 C 18.226562 -3.605469 17.84375 -4.058594 17.449219 -4.398438 C 17.019531 -4.78125 16.382812 -4.910156 15.8125 -4.996094 C 15.09375 -5.09375 14.332031 -5.121094 13.570312 -5.183594 C 11.703125 -5.300781 9.78125 -5.234375 7.957031 -4.925781 C 7.964844 -5 8.003906 -5.035156 8.015625 -5.152344 L 8.019531 -5.226562 C 7.980469 -5.191406 7.941406 -5.195312 7.941406 -5.195312 L 7.988281 -7.144531 C 8.082031 -9.167969 8.136719 -11.191406 8.152344 -13.21875 C 8.160156 -15.132812 8.171875 -17.085938 8.140625 -19.042969 C 8.085938 -20.65625 8.199219 -22.484375 7.285156 -23.902344 C 7.257812 -24.019531 7.097656 -23.953125 7.125 -23.835938 C 7.480469 -23.042969 7.523438 -22.195312 7.492188 -21.355469 C 7.476562 -20.707031 7.4375 -19.292969 7.320312 -18.382812 L 7.222656 -19.5 C 7.148438 -20.886719 7.035156 -22.273438 6.882812 -23.667969 C 6.597656 -23.921875 6.265625 -24.0625 5.929688 -24.167969 C 5.636719 -24.34375 5.269531 -24.527344 4.890625 -24.597656 C 3.730469 -24.886719 2.570312 -24.296875 2.578125 -23.03125 C 2.507812 -19.4375 2.589844 -15.832031 2.628906 -12.1875 C 2.667969 -10.386719 2.707031 -8.542969 2.785156 -6.738281 C 2.621094 -5.257812 2.5 -3.773438 2.296875 -2.296875 C 2.265625 -1.917969 2.199219 -1.578125 2.167969 -1.199219 C 2.007812 -0.214844 3.015625 0.597656 3.945312 0.445312 C 8.261719 -0.34375 12.667969 -0.355469 16.976562 0.308594 Z M 3.269531 -21.671875 C 3.292969 -22.398438 3.007812 -23.609375 3.914062 -23.875 C 4.109375 -23.9375 4.339844 -23.957031 4.492188 -23.941406 C 4.40625 -23.835938 4.320312 -23.691406 4.269531 -23.578125 L 4.046875 -22.296875 C 3.660156 -21.332031 3.742188 -19.984375 3.703125 -19.070312 C 3.585938 -17.203125 3.464844 -15.335938 3.347656 -13.46875 L 3.171875 -11.378906 C 3.210938 -14.09375 3.28125 -16.804688 3.285156 -19.5625 C 3.265625 -20.253906 3.289062 -20.980469 3.269531 -21.671875 Z M 16.203125 1.816406 C 16.691406 1.894531 16.761719 1.058594 16.269531 0.980469 C 14.105469 0.757812 11.933594 0.652344 9.75 0.664062 C 8.792969 0.660156 7.832031 0.695312 6.832031 0.726562 C 5.832031 0.792969 4.683594 0.773438 3.773438 1.121094 C 3.734375 1.15625 3.730469 1.191406 3.769531 1.195312 C 4.746094 1.394531 5.875 1.179688 6.871094 1.1875 C 7.90625 1.160156 8.941406 1.167969 9.96875 1.21875 C 12.070312 1.277344 14.121094 1.488281 16.203125 1.816406 Z M 16.203125 1.816406 "/></g></g></g><g fill="#39ff14" fill-opacity="1"><g transform="translate(31.177545, 107.596423)"><g><path d="M 16.976562 0.308594 C 18.070312 0.515625 18.910156 -0.832031 18.457031 -1.789062 C 18.324219 -2.027344 18.1875 -2.230469 18.050781 -2.433594 C 18.105469 -2.621094 18.160156 -2.847656 18.175781 -3.035156 C 18.226562 -3.605469 17.84375 -4.058594 17.449219 -4.398438 C 17.019531 -4.78125 16.382812 -4.910156 15.8125 -4.996094 C 15.09375 -5.09375 14.332031 -5.121094 13.570312 -5.183594 C 11.703125 -5.300781 9.78125 -5.234375 7.957031 -4.925781 C 7.964844 -5 8.003906 -5.035156 8.015625 -5.152344 L 8.019531 -5.226562 C 7.980469 -5.191406 7.941406 -5.195312 7.941406 -5.195312 L 7.988281 -7.144531 C 8.082031 -9.167969 8.136719 -11.191406 8.152344 -13.21875 C 8.160156 -15.132812 8.171875 -17.085938 8.140625 -19.042969 C 8.085938 -20.65625 8.199219 -22.484375 7.285156 -23.902344 C 7.257812 -24.019531 7.097656 -23.953125 7.125 -23.835938 C 7.480469 -23.042969 7.523438 -22.195312 7.492188 -21.355469 C 7.476562 -20.707031 7.4375 -19.292969 7.320312 -18.382812 L 7.222656 -19.5 C 7.148438 -20.886719 7.035156 -22.273438 6.882812 -23.667969 C 6.597656 -23.921875 6.265625 -24.0625 5.929688 -24.167969 C 5.636719 -24.34375 5.269531 -24.527344 4.890625 -24.597656 C 3.730469 -24.886719 2.570312 -24.296875 2.578125 -23.03125 C 2.507812 -19.4375 2.589844 -15.832031 2.628906 -12.1875 C 2.667969 -10.386719 2.707031 -8.542969 2.785156 -6.738281 C 2.621094 -5.257812 2.5 -3.773438 2.296875 -2.296875 C 2.265625 -1.917969 2.199219 -1.578125 2.167969 -1.199219 C 2.007812 -0.214844 3.015625 0.597656 3.945312 0.445312 C 8.261719 -0.34375 12.667969 -0.355469 16.976562 0.308594 Z M 3.269531 -21.671875 C 3.292969 -22.398438 3.007812 -23.609375 3.914062 -23.875 C 4.109375 -23.9375 4.339844 -23.957031 4.492188 -23.941406 C 4.40625 -23.835938 4.320312 -23.691406 4.269531 -23.578125 L 4.046875 -22.296875 C 3.660156 -21.332031 3.742188 -19.984375 3.703125 -19.070312 C 3.585938 -17.203125 3.464844 -15.335938 3.347656 -13.46875 L 3.171875 -11.378906 C 3.210938 -14.09375 3.28125 -16.804688 3.285156 -19.5625 C 3.265625 -20.253906 3.289062 -20.980469 3.269531 -21.671875 Z M 16.203125 1.816406 C 16.691406 1.894531 16.761719 1.058594 16.269531 0.980469 C 14.105469 0.757812 11.933594 0.652344 9.75 0.664062 C 8.792969 0.660156 7.832031 0.695312 6.832031 0.726562 C 5.832031 0.792969 4.683594 0.773438 3.773438 1.121094 C 3.734375 1.15625 3.730469 1.191406 3.769531 1.195312 C 4.746094 1.394531 5.875 1.179688 6.871094 1.1875 C 7.90625 1.160156 8.941406 1.167969 9.96875 1.21875 C 12.070312 1.277344 14.121094 1.488281 16.203125 1.816406 Z M 16.203125 1.816406 "/></g></g></g><g fill="#04080b" fill-opacity="1"><g transform="translate(49.421641, 109.358241)"><g><path d="M 0.53125 -21.816406 C 0.605469 -21.4375 1.132812 -21.136719 1.476562 -21.023438 C 2.042969 -20.796875 2.609375 -20.722656 3.214844 -20.722656 C 3.933594 -20.722656 4.765625 -20.910156 5.21875 -21.4375 C 5.9375 -21.589844 6.65625 -21.929688 7.222656 -22.347656 C 7.523438 -22.574219 7.789062 -22.953125 7.636719 -23.367188 C 7.261719 -24.351562 6.503906 -24.917969 5.484375 -25.183594 C 4.3125 -25.484375 3.136719 -25.03125 2.15625 -24.351562 C 2.078125 -24.3125 2.003906 -24.238281 1.929688 -24.160156 C 1.550781 -23.898438 1.246094 -23.59375 0.984375 -23.214844 C 0.71875 -22.839844 0.378906 -22.308594 0.53125 -21.816406 Z M 3.0625 -20.910156 C 2.609375 -20.949219 2.191406 -21.023438 1.777344 -21.175781 C 1.511719 -21.25 1.285156 -21.402344 1.058594 -21.589844 C 0.757812 -21.855469 0.792969 -22.121094 0.945312 -22.460938 C 1.097656 -22.726562 1.246094 -22.953125 1.4375 -23.179688 C 1.058594 -22.308594 1.476562 -21.4375 2.570312 -21.210938 C 3.441406 -21.0625 3.933594 -21.136719 4.386719 -21.25 C 4.425781 -21.25 4.160156 -20.910156 3.0625 -20.910156 Z M 6.996094 -2.003906 C 7.070312 -1.625 7.675781 -1.664062 7.636719 -2.042969 C 6.917969 -7.410156 6.617188 -12.78125 6.769531 -18.1875 C 6.769531 -18.226562 6.503906 -18.1875 6.503906 -18.113281 C 6.351562 -15.425781 6.351562 -11.457031 6.464844 -8.773438 C 6.390625 -8.773438 6.277344 -10.097656 6.199219 -10.058594 C 6.164062 -10.398438 6.125 -10.738281 6.125 -11.003906 C 6.085938 -12.402344 6.011719 -13.800781 6.011719 -15.164062 C 6.011719 -16.5625 6.085938 -17.921875 6.085938 -19.320312 C 6.050781 -19.664062 5.746094 -19.8125 5.484375 -19.777344 C 4.878906 -21.289062 2.949219 -19.890625 2.15625 -19.359375 C 2.042969 -19.246094 1.929688 -19.132812 1.851562 -18.980469 C 1.398438 -18.527344 1.171875 -17.808594 1.058594 -17.089844 C 0.90625 -15.730469 0.945312 -14.332031 0.945312 -12.96875 C 0.90625 -10.132812 1.097656 -7.335938 1.4375 -4.539062 C 1.589844 -3.480469 1.625 -2.34375 2.421875 -1.589844 C 2.609375 -1.4375 2.796875 -1.324219 2.988281 -1.246094 L 3.0625 -1.132812 C 3.78125 -0.414062 4.914062 -0.1875 5.824219 -0.644531 C 6.164062 -0.792969 6.238281 -1.097656 6.199219 -1.359375 C 6.503906 -1.476562 6.804688 -1.703125 6.996094 -2.003906 Z M 2.796875 -17.429688 C 2.796875 -17.507812 2.949219 -17.734375 3.0625 -17.808594 L 3.101562 -17.808594 C 2.683594 -16.597656 2.609375 -15.199219 2.609375 -13.914062 C 2.570312 -12.214844 2.609375 -10.511719 2.609375 -8.808594 L 2.496094 -8.808594 C 2.382812 -9.71875 2.269531 -10.625 2.191406 -11.53125 C 2.191406 -11.570312 2.191406 -11.570312 2.191406 -11.609375 L 2.191406 -11.988281 C 2.269531 -13.726562 2.230469 -15.730469 2.796875 -17.429688 Z M 2.796875 -17.429688 "/></g></g></g><g fill="#39ff14" fill-opacity="1"><g transform="translate(52.142938, 109.358241)"><g><path d="M 0.53125 -21.816406 C 0.605469 -21.4375 1.132812 -21.136719 1.476562 -21.023438 C 2.042969 -20.796875 2.609375 -20.722656 3.214844 -20.722656 C 3.933594 -20.722656 4.765625 -20.910156 5.21875 -21.4375 C 5.9375 -21.589844 6.65625 -21.929688 7.222656 -22.347656 C 7.523438 -22.574219 7.789062 -22.953125 7.636719 -23.367188 C 7.261719 -24.351562 6.503906 -24.917969 5.484375 -25.183594 C 4.3125 -25.484375 3.136719 -25.03125 2.15625 -24.351562 C 2.078125 -24.3125 2.003906 -24.238281 1.929688 -24.160156 C 1.550781 -23.898438 1.246094 -23.59375 0.984375 -23.214844 C 0.71875 -22.839844 0.378906 -22.308594 0.53125 -21.816406 Z M 3.0625 -20.910156 C 2.609375 -20.949219 2.191406 -21.023438 1.777344 -21.175781 C 1.511719 -21.25 1.285156 -21.402344 1.058594 -21.589844 C 0.757812 -21.855469 0.792969 -22.121094 0.945312 -22.460938 C 1.097656 -22.726562 1.246094 -22.953125 1.4375 -23.179688 C 1.058594 -22.308594 1.476562 -21.4375 2.570312 -21.210938 C 3.441406 -21.0625 3.933594 -21.136719 4.386719 -21.25 C 4.425781 -21.25 4.160156 -20.910156 3.0625 -20.910156 Z M 6.996094 -2.003906 C 7.070312 -1.625 7.675781 -1.664062 7.636719 -2.042969 C 6.917969 -7.410156 6.617188 -12.78125 6.769531 -18.1875 C 6.769531 -18.226562 6.503906 -18.1875 6.503906 -18.113281 C 6.351562 -15.425781 6.351562 -11.457031 6.464844 -8.773438 C 6.390625 -8.773438 6.277344 -10.097656 6.199219 -10.058594 C 6.164062 -10.398438 6.125 -10.738281 6.125 -11.003906 C 6.085938 -12.402344 6.011719 -13.800781 6.011719 -15.164062 C 6.011719 -16.5625 6.085938 -17.921875 6.085938 -19.320312 C 6.050781 -19.664062 5.746094 -19.8125 5.484375 -19.777344 C 4.878906 -21.289062 2.949219 -19.890625 2.15625 -19.359375 C 2.042969 -19.246094 1.929688 -19.132812 1.851562 -18.980469 C 1.398438 -18.527344 1.171875 -17.808594 1.058594 -17.089844 C 0.90625 -15.730469 0.945312 -14.332031 0.945312 -12.96875 C 0.90625 -10.132812 1.097656 -7.335938 1.4375 -4.539062 C 1.589844 -3.480469 1.625 -2.34375 2.421875 -1.589844 C 2.609375 -1.4375 2.796875 -1.324219 2.988281 -1.246094 L 3.0625 -1.132812 C 3.78125 -0.414062 4.914062 -0.1875 5.824219 -0.644531 C 6.164062 -0.792969 6.238281 -1.097656 6.199219 -1.359375 C 6.503906 -1.476562 6.804688 -1.703125 6.996094 -2.003906 Z M 2.796875 -17.429688 C 2.796875 -17.507812 2.949219 -17.734375 3.0625 -17.808594 L 3.101562 -17.808594 C 2.683594 -16.597656 2.609375 -15.199219 2.609375 -13.914062 C 2.570312 -12.214844 2.609375 -10.511719 2.609375 -8.808594 L 2.496094 -8.808594 C 2.382812 -9.71875 2.269531 -10.625 2.191406 -11.53125 C 2.191406 -11.570312 2.191406 -11.570312 2.191406 -11.609375 L 2.191406 -11.988281 C 2.269531 -13.726562 2.230469 -15.730469 2.796875 -17.429688 Z M 2.796875 -17.429688 "/></g></g></g><g fill="#04080b" fill-opacity="1"><g transform="translate(60.082651, 108.672257)"><g><path d="M 19.039062 -14.96875 C 18.328125 -15.996094 16.984375 -16.472656 15.878906 -15.800781 C 14.695312 -15.128906 14.535156 -13.785156 15.050781 -12.640625 C 15.285156 -12.085938 15.324219 -11.496094 15.367188 -10.863281 C 15.40625 -9.480469 15.246094 -7.980469 14.535156 -6.714844 C 14.300781 -6.242188 13.902344 -5.765625 13.507812 -5.410156 C 12.441406 -4.464844 11.058594 -3.949219 9.597656 -3.910156 C 9.441406 -3.910156 9.242188 -3.949219 9.085938 -3.949219 C 6.515625 -4.109375 5.136719 -6.320312 4.382812 -8.652344 C 4.109375 -9.519531 3.949219 -10.429688 3.988281 -11.375 C 3.988281 -11.574219 3.988281 -11.808594 4.027344 -12.007812 C 4.027344 -12.246094 4.070312 -12.246094 4.109375 -12.5625 C 4.738281 -15.917969 6.203125 -18.605469 8.886719 -20.660156 C 9.085938 -20.777344 9.242188 -20.894531 9.402344 -21.015625 L 9.636719 -13.390625 C 9.675781 -12.125 9.636719 -10.824219 10.191406 -9.597656 C 10.625 -8.652344 11.691406 -7.980469 12.71875 -8.097656 C 13.546875 -8.175781 13.390625 -9.402344 12.5625 -9.242188 C 11.414062 -9.046875 10.863281 -10.308594 10.625 -11.21875 L 10.625 -11.335938 L 10.742188 -11.335938 C 10.824219 -11.097656 10.902344 -10.824219 11.058594 -10.585938 C 11.296875 -10.113281 11.652344 -9.71875 12.164062 -9.558594 C 12.246094 -9.558594 12.363281 -9.519531 12.480469 -9.558594 C 12.519531 -9.480469 12.601562 -9.441406 12.71875 -9.363281 C 12.917969 -9.242188 13.230469 -9.363281 13.273438 -9.597656 C 13.390625 -10.113281 13.3125 -10.664062 13.3125 -11.21875 C 13.273438 -11.851562 13.230469 -12.519531 13.230469 -13.191406 L 13.113281 -16.945312 C 13.074219 -18.210938 13.035156 -22.082031 13.113281 -22.75 C 13.152344 -23.34375 13.191406 -23.816406 12.957031 -24.292969 C 12.957031 -24.964844 12.441406 -25.554688 11.613281 -25.636719 C 10.664062 -25.714844 9.675781 -25.4375 8.886719 -24.964844 C 8.058594 -24.488281 7.269531 -23.976562 6.515625 -23.421875 C 4.898438 -22.277344 3.160156 -20.5 1.976562 -18.921875 C 0.199219 -16.628906 -0.394531 -13.785156 -0.433594 -10.902344 C -0.433594 -10.03125 -0.316406 -9.164062 -0.15625 -8.335938 C 0.59375 -4.859375 3.160156 -1.976562 6.398438 -0.671875 C 9.71875 0.671875 13.628906 -0.199219 16.3125 -2.371094 C 17.972656 -3.671875 18.960938 -5.765625 19.472656 -7.78125 C 20.066406 -9.992188 20.34375 -12.957031 19.039062 -14.96875 Z M 10.191406 -21.566406 C 10.074219 -20.105469 10.074219 -18.644531 10.152344 -17.183594 L 9.953125 -17.183594 C 9.835938 -18.484375 9.675781 -19.789062 9.558594 -21.132812 C 9.757812 -21.25 9.992188 -21.410156 10.191406 -21.566406 Z M 15.011719 -12.71875 C 15.011719 -12.757812 14.96875 -12.796875 14.96875 -12.796875 C 14.96875 -12.757812 15.011719 -12.757812 15.011719 -12.71875 Z M 15.050781 -12.640625 C 15.050781 -12.679688 15.011719 -12.679688 15.011719 -12.71875 C 15.011719 -12.679688 15.011719 -12.679688 15.050781 -12.640625 Z M 15.050781 -12.640625 "/></g></g></g><g fill="#39ff14" fill-opacity="1"><g transform="translate(62.654678, 108.672257)"><g><path d="M 19.039062 -14.96875 C 18.328125 -15.996094 16.984375 -16.472656 15.878906 -15.800781 C 14.695312 -15.128906 14.535156 -13.785156 15.050781 -12.640625 C 15.285156 -12.085938 15.324219 -11.496094 15.367188 -10.863281 C 15.40625 -9.480469 15.246094 -7.980469 14.535156 -6.714844 C 14.300781 -6.242188 13.902344 -5.765625 13.507812 -5.410156 C 12.441406 -4.464844 11.058594 -3.949219 9.597656 -3.910156 C 9.441406 -3.910156 9.242188 -3.949219 9.085938 -3.949219 C 6.515625 -4.109375 5.136719 -6.320312 4.382812 -8.652344 C 4.109375 -9.519531 3.949219 -10.429688 3.988281 -11.375 C 3.988281 -11.574219 3.988281 -11.808594 4.027344 -12.007812 C 4.027344 -12.246094 4.070312 -12.246094 4.109375 -12.5625 C 4.738281 -15.917969 6.203125 -18.605469 8.886719 -20.660156 C 9.085938 -20.777344 9.242188 -20.894531 9.402344 -21.015625 L 9.636719 -13.390625 C 9.675781 -12.125 9.636719 -10.824219 10.191406 -9.597656 C 10.625 -8.652344 11.691406 -7.980469 12.71875 -8.097656 C 13.546875 -8.175781 13.390625 -9.402344 12.5625 -9.242188 C 11.414062 -9.046875 10.863281 -10.308594 10.625 -11.21875 L 10.625 -11.335938 L 10.742188 -11.335938 C 10.824219 -11.097656 10.902344 -10.824219 11.058594 -10.585938 C 11.296875 -10.113281 11.652344 -9.71875 12.164062 -9.558594 C 12.246094 -9.558594 12.363281 -9.519531 12.480469 -9.558594 C 12.519531 -9.480469 12.601562 -9.441406 12.71875 -9.363281 C 12.917969 -9.242188 13.230469 -9.363281 13.273438 -9.597656 C 13.390625 -10.113281 13.3125 -10.664062 13.3125 -11.21875 C 13.273438 -11.851562 13.230469 -12.519531 13.230469 -13.191406 L 13.113281 -16.945312 C 13.074219 -18.210938 13.035156 -22.082031 13.113281 -22.75 C 13.152344 -23.34375 13.191406 -23.816406 12.957031 -24.292969 C 12.957031 -24.964844 12.441406 -25.554688 11.613281 -25.636719 C 10.664062 -25.714844 9.675781 -25.4375 8.886719 -24.964844 C 8.058594 -24.488281 7.269531 -23.976562 6.515625 -23.421875 C 4.898438 -22.277344 3.160156 -20.5 1.976562 -18.921875 C 0.199219 -16.628906 -0.394531 -13.785156 -0.433594 -10.902344 C -0.433594 -10.03125 -0.316406 -9.164062 -0.15625 -8.335938 C 0.59375 -4.859375 3.160156 -1.976562 6.398438 -0.671875 C 9.71875 0.671875 13.628906 -0.199219 16.3125 -2.371094 C 17.972656 -3.671875 18.960938 -5.765625 19.472656 -7.78125 C 20.066406 -9.992188 20.34375 -12.957031 19.039062 -14.96875 Z M 10.191406 -21.566406 C 10.074219 -20.105469 10.074219 -18.644531 10.152344 -17.183594 L 9.953125 -17.183594 C 9.835938 -18.484375 9.675781 -19.789062 9.558594 -21.132812 C 9.757812 -21.25 9.992188 -21.410156 10.191406 -21.566406 Z M 15.011719 -12.71875 C 15.011719 -12.757812 14.96875 -12.796875 14.96875 -12.796875 C 14.96875 -12.757812 15.011719 -12.757812 15.011719 -12.71875 Z M 15.050781 -12.640625 C 15.050781 -12.679688 15.011719 -12.679688 15.011719 -12.71875 C 15.011719 -12.679688 15.011719 -12.679688 15.050781 -12.640625 Z M 15.050781 -12.640625 "/></g></g></g><g fill="#04080b" fill-opacity="1"><g transform="translate(83.172562, 108.459284)"><g><path d="M 19.339844 -1.480469 C 20.25 -1.746094 20.136719 -2.882812 19.984375 -3.640625 C 19.605469 -5.121094 19.113281 -6.558594 18.46875 -7.964844 C 17.214844 -10.84375 15.359375 -13.421875 13.042969 -15.585938 C 12.816406 -15.8125 12.4375 -15.546875 12.476562 -15.28125 C 12.285156 -15.433594 12.132812 -15.585938 11.945312 -15.738281 L 12.929688 -16.269531 C 15.359375 -17.632812 17.859375 -19.148438 19.1875 -21.652344 C 19.414062 -22.105469 18.882812 -22.523438 18.503906 -22.222656 L 18.390625 -22.105469 C 18.390625 -22.714844 18.085938 -23.28125 17.480469 -23.433594 C 16.722656 -23.660156 15.886719 -22.980469 15.28125 -22.636719 C 12.324219 -20.933594 8.609375 -19.113281 5.460938 -17.746094 C 5.382812 -19.148438 5.347656 -20.515625 5.308594 -21.917969 L 5.308594 -22.183594 C 5.308594 -22.183594 5.269531 -22.222656 5.269531 -22.183594 C 5.003906 -20.589844 4.816406 -18.996094 4.664062 -17.367188 C 4.550781 -17.328125 4.472656 -17.253906 4.359375 -17.140625 L 4.472656 -20.550781 C 4.511719 -21.425781 4.472656 -22.335938 4.703125 -23.09375 C 5.421875 -25.140625 2.3125 -26.390625 1.289062 -24.535156 C 1.214844 -24.382812 1.136719 -24.269531 1.101562 -24.117188 C 0.304688 -23.925781 0.226562 -23.015625 0.265625 -22.335938 C 0.265625 -21.652344 0.304688 -20.96875 0.304688 -20.289062 C 0.417969 -17.671875 0.53125 -15.09375 0.71875 -12.511719 C 0.910156 -9.933594 1.214844 -7.355469 1.515625 -4.777344 C 1.628906 -3.640625 1.628906 -2.503906 2.085938 -1.441406 C 2.464844 -0.605469 3.375 -0.0742188 4.246094 -0.191406 C 5.308594 0.191406 6.445312 -0.0390625 7.355469 -0.796875 C 7.621094 -1.023438 7.660156 -1.402344 7.585938 -1.707031 C 7.433594 -2.578125 7.089844 -3.414062 6.902344 -4.132812 C 6.75 -4.96875 6.558594 -5.800781 6.445312 -6.636719 C 6.179688 -8.757812 5.953125 -10.882812 5.765625 -12.96875 C 6.027344 -13.082031 6.332031 -13.195312 6.675781 -13.347656 L 7.28125 -13.574219 C 8.378906 -12.777344 9.289062 -11.753906 10.199219 -10.730469 C 12.285156 -8.457031 14.296875 -5.878906 15.699219 -3.035156 C 15.699219 -2.65625 15.773438 -2.3125 15.964844 -1.972656 C 16.269531 -1.328125 16.949219 -0.910156 17.671875 -0.910156 C 18.847656 -0.910156 19.566406 -1.894531 19.453125 -2.917969 C 19.261719 -5.121094 15.507812 -11.792969 14.066406 -13.574219 C 16.269531 -11.148438 17.9375 -8.457031 19.074219 -5.382812 C 19.339844 -4.625 20.515625 -2.125 19.300781 -1.628906 C 19.226562 -1.59375 19.261719 -1.441406 19.339844 -1.480469 Z M 19.339844 -1.480469 "/></g></g></g><g fill="#39ff14" fill-opacity="1"><g transform="translate(85.744597, 108.459284)"><g><path d="M 19.339844 -1.480469 C 20.25 -1.746094 20.136719 -2.882812 19.984375 -3.640625 C 19.605469 -5.121094 19.113281 -6.558594 18.46875 -7.964844 C 17.214844 -10.84375 15.359375 -13.421875 13.042969 -15.585938 C 12.816406 -15.8125 12.4375 -15.546875 12.476562 -15.28125 C 12.285156 -15.433594 12.132812 -15.585938 11.945312 -15.738281 L 12.929688 -16.269531 C 15.359375 -17.632812 17.859375 -19.148438 19.1875 -21.652344 C 19.414062 -22.105469 18.882812 -22.523438 18.503906 -22.222656 L 18.390625 -22.105469 C 18.390625 -22.714844 18.085938 -23.28125 17.480469 -23.433594 C 16.722656 -23.660156 15.886719 -22.980469 15.28125 -22.636719 C 12.324219 -20.933594 8.609375 -19.113281 5.460938 -17.746094 C 5.382812 -19.148438 5.347656 -20.515625 5.308594 -21.917969 L 5.308594 -22.183594 C 5.308594 -22.183594 5.269531 -22.222656 5.269531 -22.183594 C 5.003906 -20.589844 4.816406 -18.996094 4.664062 -17.367188 C 4.550781 -17.328125 4.472656 -17.253906 4.359375 -17.140625 L 4.472656 -20.550781 C 4.511719 -21.425781 4.472656 -22.335938 4.703125 -23.09375 C 5.421875 -25.140625 2.3125 -26.390625 1.289062 -24.535156 C 1.214844 -24.382812 1.136719 -24.269531 1.101562 -24.117188 C 0.304688 -23.925781 0.226562 -23.015625 0.265625 -22.335938 C 0.265625 -21.652344 0.304688 -20.96875 0.304688 -20.289062 C 0.417969 -17.671875 0.53125 -15.09375 0.71875 -12.511719 C 0.910156 -9.933594 1.214844 -7.355469 1.515625 -4.777344 C 1.628906 -3.640625 1.628906 -2.503906 2.085938 -1.441406 C 2.464844 -0.605469 3.375 -0.0742188 4.246094 -0.191406 C 5.308594 0.191406 6.445312 -0.0390625 7.355469 -0.796875 C 7.621094 -1.023438 7.660156 -1.402344 7.585938 -1.707031 C 7.433594 -2.578125 7.089844 -3.414062 6.902344 -4.132812 C 6.75 -4.96875 6.558594 -5.800781 6.445312 -6.636719 C 6.179688 -8.757812 5.953125 -10.882812 5.765625 -12.96875 C 6.027344 -13.082031 6.332031 -13.195312 6.675781 -13.347656 L 7.28125 -13.574219 C 8.378906 -12.777344 9.289062 -11.753906 10.199219 -10.730469 C 12.285156 -8.457031 14.296875 -5.878906 15.699219 -3.035156 C 15.699219 -2.65625 15.773438 -2.3125 15.964844 -1.972656 C 16.269531 -1.328125 16.949219 -0.910156 17.671875 -0.910156 C 18.847656 -0.910156 19.566406 -1.894531 19.453125 -2.917969 C 19.261719 -5.121094 15.507812 -11.792969 14.066406 -13.574219 C 16.269531 -11.148438 17.9375 -8.457031 19.074219 -5.382812 C 19.339844 -4.625 20.515625 -2.125 19.300781 -1.628906 C 19.226562 -1.59375 19.261719 -1.441406 19.339844 -1.480469 Z M 19.339844 -1.480469 "/></g></g></g></svg>