<svg xmlns="http://www.w3.org/2000/svg" xmlns:xlink="http://www.w3.org/1999/xlink" width="50" zoomAndPan="magnify" viewBox="0 0 37.5 37.499999" height="50" preserveAspectRatio="xMidYMid meet" version="1.0"><defs><g/><clipPath id="f9ba5cf39f"><path d="M 0 0.324219 L 37 0.324219 L 37 36.589844 L 0 36.589844 Z M 0 0.324219 " clip-rule="nonzero"/></clipPath></defs><g fill="#000000" fill-opacity="1"><g transform="translate(7.450657, 30.345393)"><g><path d="M 14.6875 -2.84375 C 14.609375 -8.6875 14.40625 -14.5625 14.640625 -20.40625 C 14.640625 -21.109375 14.84375 -22.03125 14.640625 -22.734375 C 14.640625 -22.8125 14.5625 -22.8125 14.53125 -22.78125 C 14.28125 -22.1875 14.328125 -21.46875 14.25 -20.875 C 14.125 -20.015625 14.046875 -19.140625 13.96875 -18.28125 C 13.8125 -16.578125 13.703125 -14.875 13.609375 -13.140625 C 13.53125 -11.5625 13.5 -9.984375 13.453125 -8.453125 C 13.453125 -8.609375 13.421875 -8.765625 13.421875 -8.921875 C 13.296875 -10.453125 13.296875 -11.953125 13.34375 -13.5 C 13.375 -16.65625 13.78125 -19.65625 14.171875 -22.734375 C 14.203125 -23.125 14.015625 -23.515625 13.734375 -23.84375 C 13.859375 -24.234375 13.296875 -24.625 12.953125 -24.359375 L 12.90625 -24.359375 C 12.078125 -24.59375 11.046875 -24.078125 10.859375 -23.203125 C 10.8125 -23.015625 10.78125 -22.859375 10.734375 -22.65625 L 9.828125 -21.828125 C 8.453125 -20.40625 6.671875 -19.375 4.890625 -18.515625 C 3.90625 -18 2.640625 -17.609375 2.09375 -16.53125 C 1.375 -15.203125 2.203125 -13.578125 3.671875 -13.296875 C 5.046875 -13.0625 6.390625 -13.65625 7.53125 -14.28125 C 8.25 -14.71875 8.953125 -15.203125 9.59375 -15.671875 C 9.546875 -15.03125 9.46875 -14.359375 9.4375 -13.703125 C 9.28125 -11.015625 9.3125 -8.125 9.46875 -5.53125 C 9.59375 -3.90625 9.359375 -0.3125 11.609375 0 C 11.796875 0 12 0 12.15625 -0.046875 C 12.28125 0.078125 12.390625 0.15625 12.59375 0.15625 C 13.375 0.15625 14.09375 -0.3125 14.328125 -1.0625 C 14.484375 -1.5 14.484375 -1.9375 14.453125 -2.375 C 14.5625 -2.484375 14.6875 -2.640625 14.6875 -2.84375 Z M 14.6875 -2.84375 "/></g></g></g><g fill="#ffd700" fill-opacity="1"><g transform="translate(8.832235, 30.345393)"><g><path d="M 14.6875 -2.84375 C 14.609375 -8.6875 14.40625 -14.5625 14.640625 -20.40625 C 14.640625 -21.109375 14.84375 -22.03125 14.640625 -22.734375 C 14.640625 -22.8125 14.5625 -22.8125 14.53125 -22.78125 C 14.28125 -22.1875 14.328125 -21.46875 14.25 -20.875 C 14.125 -20.015625 14.046875 -19.140625 13.96875 -18.28125 C 13.8125 -16.578125 13.703125 -14.875 13.609375 -13.140625 C 13.53125 -11.5625 13.5 -9.984375 13.453125 -8.453125 C 13.453125 -8.609375 13.421875 -8.765625 13.421875 -8.921875 C 13.296875 -10.453125 13.296875 -11.953125 13.34375 -13.5 C 13.375 -16.65625 13.78125 -19.65625 14.171875 -22.734375 C 14.203125 -23.125 14.015625 -23.515625 13.734375 -23.84375 C 13.859375 -24.234375 13.296875 -24.625 12.953125 -24.359375 L 12.90625 -24.359375 C 12.078125 -24.59375 11.046875 -24.078125 10.859375 -23.203125 C 10.8125 -23.015625 10.78125 -22.859375 10.734375 -22.65625 L 9.828125 -21.828125 C 8.453125 -20.40625 6.671875 -19.375 4.890625 -18.515625 C 3.90625 -18 2.640625 -17.609375 2.09375 -16.53125 C 1.375 -15.203125 2.203125 -13.578125 3.671875 -13.296875 C 5.046875 -13.0625 6.390625 -13.65625 7.53125 -14.28125 C 8.25 -14.71875 8.953125 -15.203125 9.59375 -15.671875 C 9.546875 -15.03125 9.46875 -14.359375 9.4375 -13.703125 C 9.28125 -11.015625 9.3125 -8.125 9.46875 -5.53125 C 9.59375 -3.90625 9.359375 -0.3125 11.609375 0 C 11.796875 0 12 0 12.15625 -0.046875 C 12.28125 0.078125 12.390625 0.15625 12.59375 0.15625 C 13.375 0.15625 14.09375 -0.3125 14.328125 -1.0625 C 14.484375 -1.5 14.484375 -1.9375 14.453125 -2.375 C 14.5625 -2.484375 14.6875 -2.640625 14.6875 -2.84375 Z M 14.6875 -2.84375 "/></g></g></g><g clip-path="url(#f9ba5cf39f)"><path fill="#ffd700" d="M 8.660156 6.09375 C 8.527344 6.027344 8.460938 6.09375 8.378906 6.140625 C 7.738281 6.476562 7.144531 6.886719 6.53125 7.265625 C 6.160156 7.492188 5.769531 7.414062 5.554688 7.101562 C 5.351562 6.804688 5.417969 6.429688 5.730469 6.152344 C 5.792969 6.097656 5.859375 6.046875 5.925781 6 C 7.476562 4.859375 9.1875 4.050781 11.050781 3.574219 C 11.4375 3.472656 11.828125 3.375 12.222656 3.308594 C 12.480469 3.261719 12.722656 3.175781 12.949219 3.042969 C 14.8125 2.011719 16.773438 1.246094 18.886719 0.925781 C 22.890625 0.324219 26.488281 1.296875 29.671875 3.773438 C 32.128906 5.691406 33.726562 8.195312 34.511719 11.210938 C 34.59375 11.535156 34.71875 11.835938 34.894531 12.121094 C 36.28125 14.410156 36.996094 16.898438 36.886719 19.578125 C 36.675781 24.617188 34.519531 28.691406 30.539062 31.765625 C 27.390625 34.191406 23.785156 35.605469 19.871094 36.246094 C 17.386719 36.652344 14.898438 36.683594 12.429688 36.164062 C 8.976562 35.4375 6.078125 33.796875 3.914062 30.953125 C 3.488281 30.386719 2.925781 29.933594 2.492188 29.371094 C 1.660156 28.308594 1.042969 27.132812 0.644531 25.839844 C 0.246094 24.550781 0.0898438 23.230469 0.179688 21.886719 C 0.332031 19.066406 1.347656 16.527344 2.769531 14.136719 C 3.628906 12.683594 4.535156 11.257812 5.464844 9.847656 C 6.304688 8.59375 7.277344 7.453125 8.375 6.417969 C 8.476562 6.324219 8.609375 6.253906 8.660156 6.09375 Z M 2.734375 22.308594 C 2.710938 24.1875 3.050781 26 3.753906 27.742188 C 4.265625 28.976562 4.953125 30.035156 6.132812 30.777344 C 9.316406 32.769531 12.773438 33.480469 16.476562 33.070312 C 18.910156 32.804688 21.195312 32.046875 23.390625 30.980469 C 30.773438 27.402344 34.113281 19.640625 33.507812 13.746094 C 33.410156 12.816406 33.195312 11.992188 32.539062 11.269531 C 31.621094 10.257812 30.664062 9.292969 29.519531 8.546875 C 26.1875 6.382812 22.488281 5.242188 18.59375 4.652344 C 18.488281 4.636719 18.398438 4.628906 18.351562 4.777344 C 18.234375 5.167969 17.925781 5.285156 17.550781 5.285156 C 17.074219 5.285156 16.609375 5.347656 16.148438 5.472656 C 12.890625 6.332031 10.054688 7.9375 7.636719 10.285156 C 6.683594 11.203125 5.703125 12.136719 5.085938 13.3125 C 3.613281 16.121094 2.757812 19.113281 2.734375 22.308594 Z M 11.289062 34.367188 C 11.425781 34.410156 11.609375 34.476562 11.800781 34.527344 C 14.210938 35.183594 16.652344 35.238281 19.117188 34.894531 C 22.660156 34.40625 25.949219 33.214844 28.894531 31.179688 C 32.957031 28.367188 35.222656 24.507812 35.4375 19.519531 C 35.492188 18.296875 35.304688 16.882812 35.03125 16.132812 C 34.386719 21.949219 31.9375 26.839844 27.132812 30.347656 C 22.402344 33.804688 17.101562 35.25 11.285156 34.367188 Z M 16.683594 3.003906 C 19.375 3.183594 21.992188 3.710938 24.539062 4.589844 C 27.089844 5.457031 29.503906 6.585938 31.636719 8.269531 C 29.105469 3.632812 22.773438 0.699219 16.683594 3.003906 Z M 11.625 5.621094 C 12.503906 5.253906 13.378906 4.859375 14.320312 4.53125 C 13.394531 4.476562 13.105469 4.59375 11.625 5.621094 Z M 11.625 5.621094 " fill-opacity="1" fill-rule="nonzero"/></g></svg>