<svg xmlns="http://www.w3.org/2000/svg" xmlns:xlink="http://www.w3.org/1999/xlink" width="700" zoomAndPan="magnify" viewBox="0 0 525 187.499995" height="250" preserveAspectRatio="xMidYMid meet" version="1.0"><defs><g/></defs><g fill="#04080b" fill-opacity="1"><g transform="translate(443.509365, 116.10441)"><g><path d="M 45.4375 -7.179688 C 47.171875 -11.28125 45.4375 -15.777344 43.542969 -19.484375 C 42.046875 -22.480469 40.152344 -25.242188 38.179688 -27.847656 C 36.996094 -29.425781 35.65625 -30.921875 34.316406 -32.34375 C 30.527344 -36.679688 26.425781 -40.703125 22.324219 -44.648438 C 18.617188 -48.199219 14.832031 -51.667969 9.546875 -52.0625 C 7.730469 -52.222656 4.101562 -51.589844 3.390625 -49.539062 C 3.078125 -49.539062 2.683594 -49.460938 2.289062 -49.382812 C 0.867188 -49.144531 -0.316406 -47.804688 0.15625 -46.226562 C 0.238281 -45.988281 0.394531 -45.675781 0.472656 -45.359375 C 2.289062 -36.601562 4.101562 -27.847656 5.835938 -19.011719 C 6.074219 -18.066406 6.230469 -17.195312 6.390625 -16.25 L 6.074219 -16.488281 C 3.867188 -17.75 0.867188 -16.960938 -0.394531 -14.75 C -1.734375 -12.542969 -1.027344 -9.464844 1.261719 -8.203125 C 3.707031 -6.941406 6.152344 -5.835938 8.675781 -4.8125 C 9.070312 -2.917969 9.625 -1.65625 11.359375 -0.472656 C 12.148438 0.078125 13.253906 0.238281 14.277344 0.15625 C 14.832031 0.15625 15.226562 -0.078125 15.539062 -0.394531 C 15.855469 -0.238281 16.25 -0.15625 16.644531 -0.238281 C 17.277344 -0.394531 17.828125 -0.945312 18.144531 -1.65625 C 20.035156 -1.183594 22.007812 -0.789062 23.980469 -0.472656 C 28.160156 0.15625 32.265625 0.316406 36.367188 -0.632812 C 39.914062 -1.5 43.9375 -3.707031 45.4375 -7.179688 Z M 2.917969 -39.601562 C 3.945312 -36.207031 7.335938 -22.167969 8.363281 -18.460938 C 8.675781 -17.117188 9.152344 -15.777344 9.625 -14.4375 C 9.152344 -14.671875 8.675781 -14.988281 8.203125 -15.226562 L 6.074219 -23.664062 C 4.652344 -29.109375 3.550781 -34.550781 2.207031 -39.996094 C 1.972656 -41.097656 2.839844 -39.914062 2.917969 -39.601562 Z M 36.367188 -15.539062 C 36.917969 -14.671875 37.390625 -13.648438 37.863281 -12.699219 C 38.339844 -11.753906 38.8125 -10.886719 38.96875 -9.859375 C 38.101562 -9.070312 36.996094 -8.675781 35.65625 -8.363281 C 34 -7.886719 32.816406 -7.886719 30.921875 -7.886719 C 28.871094 -7.96875 27.847656 -8.125 25.796875 -8.597656 C 23.191406 -9.152344 20.667969 -9.941406 18.222656 -10.808594 C 17.828125 -13.171875 17.355469 -15.539062 16.960938 -17.90625 C 15.855469 -24.453125 14.671875 -31.082031 13.332031 -37.628906 L 14.832031 -36.839844 C 18.539062 -34.710938 21.691406 -32.421875 24.691406 -29.660156 C 27.6875 -27.058594 30.371094 -24.058594 32.738281 -20.90625 C 34 -19.167969 35.183594 -17.355469 36.367188 -15.539062 Z M 36.367188 -15.539062 "/></g></g></g><g fill="#39ff14" fill-opacity="1"><g transform="translate(446.988894, 116.10441)"><g><path d="M 45.4375 -7.179688 C 47.171875 -11.28125 45.4375 -15.777344 43.542969 -19.484375 C 42.046875 -22.480469 40.152344 -25.242188 38.179688 -27.847656 C 36.996094 -29.425781 35.65625 -30.921875 34.316406 -32.34375 C 30.527344 -36.679688 26.425781 -40.703125 22.324219 -44.648438 C 18.617188 -48.199219 14.832031 -51.667969 9.546875 -52.0625 C 7.730469 -52.222656 4.101562 -51.589844 3.390625 -49.539062 C 3.078125 -49.539062 2.683594 -49.460938 2.289062 -49.382812 C 0.867188 -49.144531 -0.316406 -47.804688 0.15625 -46.226562 C 0.238281 -45.988281 0.394531 -45.675781 0.472656 -45.359375 C 2.289062 -36.601562 4.101562 -27.847656 5.835938 -19.011719 C 6.074219 -18.066406 6.230469 -17.195312 6.390625 -16.25 L 6.074219 -16.488281 C 3.867188 -17.75 0.867188 -16.960938 -0.394531 -14.75 C -1.734375 -12.542969 -1.027344 -9.464844 1.261719 -8.203125 C 3.707031 -6.941406 6.152344 -5.835938 8.675781 -4.8125 C 9.070312 -2.917969 9.625 -1.65625 11.359375 -0.472656 C 12.148438 0.078125 13.253906 0.238281 14.277344 0.15625 C 14.832031 0.15625 15.226562 -0.078125 15.539062 -0.394531 C 15.855469 -0.238281 16.25 -0.15625 16.644531 -0.238281 C 17.277344 -0.394531 17.828125 -0.945312 18.144531 -1.65625 C 20.035156 -1.183594 22.007812 -0.789062 23.980469 -0.472656 C 28.160156 0.15625 32.265625 0.316406 36.367188 -0.632812 C 39.914062 -1.5 43.9375 -3.707031 45.4375 -7.179688 Z M 2.917969 -39.601562 C 3.945312 -36.207031 7.335938 -22.167969 8.363281 -18.460938 C 8.675781 -17.117188 9.152344 -15.777344 9.625 -14.4375 C 9.152344 -14.671875 8.675781 -14.988281 8.203125 -15.226562 L 6.074219 -23.664062 C 4.652344 -29.109375 3.550781 -34.550781 2.207031 -39.996094 C 1.972656 -41.097656 2.839844 -39.914062 2.917969 -39.601562 Z M 36.367188 -15.539062 C 36.917969 -14.671875 37.390625 -13.648438 37.863281 -12.699219 C 38.339844 -11.753906 38.8125 -10.886719 38.96875 -9.859375 C 38.101562 -9.070312 36.996094 -8.675781 35.65625 -8.363281 C 34 -7.886719 32.816406 -7.886719 30.921875 -7.886719 C 28.871094 -7.96875 27.847656 -8.125 25.796875 -8.597656 C 23.191406 -9.152344 20.667969 -9.941406 18.222656 -10.808594 C 17.828125 -13.171875 17.355469 -15.539062 16.960938 -17.90625 C 15.855469 -24.453125 14.671875 -31.082031 13.332031 -37.628906 L 14.832031 -36.839844 C 18.539062 -34.710938 21.691406 -32.421875 24.691406 -29.660156 C 27.6875 -27.058594 30.371094 -24.058594 32.738281 -20.90625 C 34 -19.167969 35.183594 -17.355469 36.367188 -15.539062 Z M 36.367188 -15.539062 "/></g></g></g><g fill="#04080b" fill-opacity="1"><g transform="translate(398.019176, 114.655842)"><g><path d="M 43.585938 -32.058594 C 43.742188 -33.804688 43.207031 -35.203125 41.902344 -36.09375 C 40.84375 -36.835938 39.699219 -37.652344 38.558594 -38.390625 C 38.375 -39.015625 38.03125 -39.628906 37.378906 -40.074219 C 29.417969 -44.929688 21.371094 -49.941406 12.574219 -52.308594 C 12.496094 -52.304688 12.414062 -52.382812 12.335938 -52.378906 C 11.773438 -52.589844 11.214844 -52.722656 10.652344 -52.933594 C 10.488281 -53.085938 10.242188 -53.230469 9.925781 -53.21875 C 7.304688 -53.574219 2.527344 -54.382812 1.160156 -51.398438 C 0.375 -49.546875 1.34375 -47.378906 2.898438 -46.1875 C 2.457031 -45.453125 1.929688 -44.878906 1.320312 -44.375 C 2.070312 -41.722656 2.746094 -38.988281 3.417969 -36.335938 C 2.945312 -36.3125 2.472656 -36.292969 2.003906 -36.191406 C -0.359375 -36.085938 -1.128906 -32.101562 1.140625 -30.78125 C 1.871094 -30.339844 2.761719 -29.90625 3.5625 -29.625 L 1.761719 -29.308594 C 2.644531 -29.03125 3.523438 -28.753906 4.402344 -28.558594 C 4.722656 -28.492188 4.890625 -28.265625 4.898438 -28.027344 C 5.058594 -28.035156 5.214844 -28.042969 5.371094 -28.046875 L 5.96875 -25.3125 C 6.769531 -21.632812 7.566406 -17.957031 8.363281 -14.28125 L 9.304688 -9.109375 C 9.542969 -7.382812 9.46875 -5.480469 9.9375 -3.84375 C 9.976562 -2.976562 10.789062 -2.460938 11.414062 -2.648438 C 11.515625 -2.175781 11.691406 -1.789062 11.945312 -1.40625 C 12.941406 -0.34375 14.511719 -0.496094 15.5 -1.410156 C 16.257812 -2.074219 16.773438 -2.886719 17.207031 -3.855469 C 17.1875 -4.25 17.167969 -4.722656 17.066406 -5.191406 C 17.128906 -9.066406 16.554688 -13.070312 16.144531 -16.921875 C 15.824219 -20.539062 15.34375 -24.152344 14.789062 -27.683594 C 16.84375 -27.695312 18.980469 -27.632812 21.03125 -27.648438 C 21.457031 -26.957031 21.96875 -26.1875 22.472656 -25.5 L 22.476562 -25.421875 C 22.984375 -24.65625 23.414062 -23.882812 23.847656 -23.035156 C 25.476562 -20.183594 27.839844 -15.078125 28.796875 -13.066406 C 30.539062 -9.511719 32.28125 -5.878906 33.867188 -2.234375 C 34.191406 -2.09375 34.65625 -2.269531 34.882812 -2.519531 C 34.886719 -2.441406 34.964844 -2.441406 35.042969 -2.445312 C 35.765625 -2.164062 36.476562 -2.195312 37.183594 -2.304688 C 38.546875 -1.816406 40.34375 -2.289062 40.5 -4.035156 C 40.902344 -9.1875 37.917969 -14.03125 35.585938 -18.429688 C 33.78125 -21.742188 31.742188 -24.890625 29.472656 -27.949219 C 33.191406 -27.800781 36.910156 -27.652344 40.625 -27.582031 C 41.894531 -27.480469 43.332031 -28.890625 43.421875 -30.394531 Z M 11.035156 -42.679688 L 10.742188 -43.933594 C 17.589844 -42.660156 24.050781 -39.554688 30.308594 -35.648438 L 22.621094 -36.25 C 20.738281 -37.667969 18.042969 -39.679688 15.742188 -38.074219 C 15.363281 -37.742188 15.148438 -37.257812 15.085938 -36.859375 C 14.691406 -36.921875 14.21875 -36.898438 13.820312 -36.960938 C 13.429688 -38.601562 12.960938 -40.238281 12.492188 -41.878906 C 12.382812 -42.582031 11.59375 -42.546875 11.214844 -42.136719 C 11.128906 -42.289062 11.121094 -42.527344 11.035156 -42.679688 Z M 18.230469 -7.457031 C 18.457031 -9.363281 19.054688 -10.179688 18.691406 -13.007812 C 18.082031 -17.71875 17.476562 -22.433594 16.480469 -26.96875 L 15.851562 -26.941406 C 17.085938 -20.519531 17.617188 -13.984375 18.230469 -7.457031 Z M 18.230469 -7.457031 "/></g></g></g><g fill="#39ff14" fill-opacity="1"><g transform="translate(403.036511, 114.501383)"><g><path d="M 43.585938 -32.058594 C 43.742188 -33.804688 43.207031 -35.203125 41.902344 -36.09375 C 40.84375 -36.835938 39.699219 -37.652344 38.558594 -38.390625 C 38.375 -39.015625 38.03125 -39.628906 37.378906 -40.074219 C 29.417969 -44.929688 21.371094 -49.941406 12.574219 -52.308594 C 12.496094 -52.304688 12.414062 -52.382812 12.335938 -52.378906 C 11.773438 -52.589844 11.214844 -52.722656 10.652344 -52.933594 C 10.488281 -53.085938 10.242188 -53.230469 9.925781 -53.21875 C 7.304688 -53.574219 2.527344 -54.382812 1.160156 -51.398438 C 0.375 -49.546875 1.34375 -47.378906 2.898438 -46.1875 C 2.457031 -45.453125 1.929688 -44.878906 1.320312 -44.375 C 2.070312 -41.722656 2.746094 -38.988281 3.417969 -36.335938 C 2.945312 -36.3125 2.472656 -36.292969 2.003906 -36.191406 C -0.359375 -36.085938 -1.128906 -32.101562 1.140625 -30.78125 C 1.871094 -30.339844 2.761719 -29.90625 3.5625 -29.625 L 1.761719 -29.308594 C 2.644531 -29.03125 3.523438 -28.753906 4.402344 -28.558594 C 4.722656 -28.492188 4.890625 -28.265625 4.898438 -28.027344 C 5.058594 -28.035156 5.214844 -28.042969 5.371094 -28.046875 L 5.96875 -25.3125 C 6.769531 -21.632812 7.566406 -17.957031 8.363281 -14.28125 L 9.304688 -9.109375 C 9.542969 -7.382812 9.46875 -5.480469 9.9375 -3.84375 C 9.976562 -2.976562 10.789062 -2.460938 11.414062 -2.648438 C 11.515625 -2.175781 11.691406 -1.789062 11.945312 -1.40625 C 12.941406 -0.34375 14.511719 -0.496094 15.5 -1.410156 C 16.257812 -2.074219 16.773438 -2.886719 17.207031 -3.855469 C 17.1875 -4.25 17.167969 -4.722656 17.066406 -5.191406 C 17.128906 -9.066406 16.554688 -13.070312 16.144531 -16.921875 C 15.824219 -20.539062 15.34375 -24.152344 14.789062 -27.683594 C 16.84375 -27.695312 18.980469 -27.632812 21.03125 -27.648438 C 21.457031 -26.957031 21.96875 -26.1875 22.472656 -25.5 L 22.476562 -25.421875 C 22.984375 -24.65625 23.414062 -23.882812 23.847656 -23.035156 C 25.476562 -20.183594 27.839844 -15.078125 28.796875 -13.066406 C 30.539062 -9.511719 32.28125 -5.878906 33.867188 -2.234375 C 34.191406 -2.09375 34.65625 -2.269531 34.882812 -2.519531 C 34.886719 -2.441406 34.964844 -2.441406 35.042969 -2.445312 C 35.765625 -2.164062 36.476562 -2.195312 37.183594 -2.304688 C 38.546875 -1.816406 40.34375 -2.289062 40.5 -4.035156 C 40.902344 -9.1875 37.917969 -14.03125 35.585938 -18.429688 C 33.78125 -21.742188 31.742188 -24.890625 29.472656 -27.949219 C 33.191406 -27.800781 36.910156 -27.652344 40.625 -27.582031 C 41.894531 -27.480469 43.332031 -28.890625 43.421875 -30.394531 Z M 11.035156 -42.679688 L 10.742188 -43.933594 C 17.589844 -42.660156 24.050781 -39.554688 30.308594 -35.648438 L 22.621094 -36.25 C 20.738281 -37.667969 18.042969 -39.679688 15.742188 -38.074219 C 15.363281 -37.742188 15.148438 -37.257812 15.085938 -36.859375 C 14.691406 -36.921875 14.21875 -36.898438 13.820312 -36.960938 C 13.429688 -38.601562 12.960938 -40.238281 12.492188 -41.878906 C 12.382812 -42.582031 11.59375 -42.546875 11.214844 -42.136719 C 11.128906 -42.289062 11.121094 -42.527344 11.035156 -42.679688 Z M 18.230469 -7.457031 C 18.457031 -9.363281 19.054688 -10.179688 18.691406 -13.007812 C 18.082031 -17.71875 17.476562 -22.433594 16.480469 -26.96875 L 15.851562 -26.941406 C 17.085938 -20.519531 17.617188 -13.984375 18.230469 -7.457031 Z M 18.230469 -7.457031 "/></g></g></g><g fill="#04080b" fill-opacity="1"><g transform="translate(365.535407, 114.178544)"><g><path d="M 28.871094 -2.367188 C 30.6875 3.3125 36.523438 3.15625 35.65625 -3.945312 C 35.023438 -8.675781 33.683594 -15.066406 32.660156 -19.722656 C 36.996094 -22.480469 36.128906 -29.582031 30.132812 -30.292969 C 29.582031 -35.023438 29.109375 -46.9375 29.03125 -46.148438 C 28.714844 -43.542969 28.554688 -40.785156 28.476562 -38.101562 C 28.398438 -38.101562 28.398438 -38.101562 28.320312 -38.179688 C 28.003906 -41.257812 27.6875 -44.492188 27.453125 -47.644531 C 27.214844 -50.171875 25.558594 -51.75 23.269531 -51.90625 C 22.640625 -53.167969 21.0625 -54.113281 19.722656 -54.035156 C 15.699219 -53.957031 14.121094 -49.066406 12.699219 -45.988281 C 10.648438 -41.097656 9.386719 -35.972656 8.28125 -30.765625 C -1.105469 -29.34375 -1.105469 -20.746094 3.945312 -19.484375 C 4.023438 -19.246094 3.945312 -18.933594 3.867188 -18.773438 C 4.496094 -18.773438 5.285156 -18.851562 5.996094 -18.933594 C 4.8125 -14.355469 4.023438 -9.78125 3.390625 -5.128906 C 2.367188 2.289062 12.148438 3.390625 12.78125 -3.785156 L 13.253906 -7.335938 C 13.253906 -7.335938 14.59375 -15.382812 15.621094 -19.246094 L 16.328125 -19.246094 C 14.832031 -14.59375 14.121094 -9.78125 13.726562 -5.046875 C 13.648438 -4.101562 14.988281 -4.101562 14.988281 -5.046875 C 15.382812 -9.859375 16.25 -14.515625 17.433594 -19.246094 L 23.585938 -19.328125 C 24.21875 -16.488281 27.371094 -2.917969 28.871094 -2.367188 Z M 17.195312 -29.503906 C 17.90625 -33.210938 18.851562 -36.367188 20.117188 -40.785156 C 20.90625 -37.15625 21.300781 -31.789062 21.613281 -29.820312 C 20.511719 -29.738281 18.300781 -29.660156 17.195312 -29.503906 Z M 17.195312 -29.503906 "/></g></g></g><g fill="#39ff14" fill-opacity="1"><g transform="translate(369.014917, 114.178544)"><g><path d="M 28.871094 -2.367188 C 30.6875 3.3125 36.523438 3.15625 35.65625 -3.945312 C 35.023438 -8.675781 33.683594 -15.066406 32.660156 -19.722656 C 36.996094 -22.480469 36.128906 -29.582031 30.132812 -30.292969 C 29.582031 -35.023438 29.109375 -46.9375 29.03125 -46.148438 C 28.714844 -43.542969 28.554688 -40.785156 28.476562 -38.101562 C 28.398438 -38.101562 28.398438 -38.101562 28.320312 -38.179688 C 28.003906 -41.257812 27.6875 -44.492188 27.453125 -47.644531 C 27.214844 -50.171875 25.558594 -51.75 23.269531 -51.90625 C 22.640625 -53.167969 21.0625 -54.113281 19.722656 -54.035156 C 15.699219 -53.957031 14.121094 -49.066406 12.699219 -45.988281 C 10.648438 -41.097656 9.386719 -35.972656 8.28125 -30.765625 C -1.105469 -29.34375 -1.105469 -20.746094 3.945312 -19.484375 C 4.023438 -19.246094 3.945312 -18.933594 3.867188 -18.773438 C 4.496094 -18.773438 5.285156 -18.851562 5.996094 -18.933594 C 4.8125 -14.355469 4.023438 -9.78125 3.390625 -5.128906 C 2.367188 2.289062 12.148438 3.390625 12.78125 -3.785156 L 13.253906 -7.335938 C 13.253906 -7.335938 14.59375 -15.382812 15.621094 -19.246094 L 16.328125 -19.246094 C 14.832031 -14.59375 14.121094 -9.78125 13.726562 -5.046875 C 13.648438 -4.101562 14.988281 -4.101562 14.988281 -5.046875 C 15.382812 -9.859375 16.25 -14.515625 17.433594 -19.246094 L 23.585938 -19.328125 C 24.21875 -16.488281 27.371094 -2.917969 28.871094 -2.367188 Z M 17.195312 -29.503906 C 17.90625 -33.210938 18.851562 -36.367188 20.117188 -40.785156 C 20.90625 -37.15625 21.300781 -31.789062 21.613281 -29.820312 C 20.511719 -29.738281 18.300781 -29.660156 17.195312 -29.503906 Z M 17.195312 -29.503906 "/></g></g></g><g fill="#04080b" fill-opacity="1"><g transform="translate(332.788606, 113.840218)"><g><path d="M 32.816406 -30.976562 C 32.644531 -33.371094 32.394531 -35.851562 31.90625 -38.273438 C 31.332031 -40.625 30.433594 -42.929688 29.527344 -45.152344 C 29.199219 -45.894531 28.429688 -46.125 27.777344 -45.949219 C 27.324219 -47.019531 26.660156 -48.429688 25.695312 -49.152344 C 24.804688 -49.789062 23.46875 -49.910156 22.34375 -49.777344 C 21.332031 -49.949219 20.28125 -49.730469 19.222656 -49.433594 C 16.65625 -49.113281 14.546875 -46.851562 12.941406 -44.066406 C 12.785156 -44.082031 12.554688 -44.179688 12.3125 -44.125 C 12.707031 -44.960938 13.101562 -45.796875 13.574219 -46.625 C 13.960938 -47.378906 14.503906 -48.121094 15.046875 -48.867188 C 15.140625 -49.015625 14.992188 -49.109375 14.898438 -48.957031 C 13.402344 -47.351562 12.207031 -45.5625 11.234375 -43.589844 C 11.148438 -43.519531 11.140625 -43.441406 11.0625 -43.445312 C 4.984375 -35.128906 2.613281 -24.886719 3.257812 -14.679688 C 3.613281 -9.972656 4.75 -5.109375 8.15625 -1.625 C 10.117188 0.300781 12.9375 1.511719 15.578125 1.277344 C 16.433594 1.4375 17.296875 1.515625 18.171875 1.515625 C 20.398438 1.40625 22.300781 0.550781 23.933594 -0.804688 C 25.121094 -1.648438 26.164062 -2.660156 27.136719 -3.757812 C 30.070312 -7.214844 31.222656 -11.941406 32.011719 -16.230469 C 33.019531 -21.128906 33.15625 -26.03125 32.816406 -30.976562 Z M 20.886719 -9.011719 C 20.5625 -8.089844 20.089844 -7.261719 19.539062 -6.441406 C 18.988281 -5.621094 18.214844 -4.976562 17.242188 -4.75 C 13.769531 -4.039062 11.316406 -7.515625 10.296875 -10.226562 C 11.039062 -9.683594 12.039062 -9.351562 13.003906 -9.5 C 13.324219 -9.550781 13.652344 -9.679688 13.90625 -9.816406 C 13.195312 -15.03125 13.0625 -20.433594 13.789062 -25.757812 C 14.113281 -27.550781 14.4375 -29.34375 14.917969 -31.121094 C 15.003906 -31.195312 15.011719 -31.273438 15.105469 -31.421875 C 16.03125 -34.585938 17.347656 -37.714844 19.109375 -40.484375 C 19.476562 -41.007812 19.847656 -41.605469 20.347656 -41.878906 C 15 -32.859375 13.777344 -21.320312 15.035156 -10.898438 C 15.492188 -11.570312 15.644531 -12.347656 15.566406 -13.226562 C 15.160156 -19.132812 15.640625 -25.191406 16.882812 -30.941406 C 17.550781 -33.890625 18.527344 -36.734375 19.652344 -39.484375 C 19.960938 -40.25 20.371094 -41.242188 20.921875 -42.0625 L 21.3125 -42.027344 C 21.390625 -42.019531 21.542969 -41.925781 21.613281 -41.839844 C 21.878906 -41.261719 22.054688 -40.609375 22.238281 -40.039062 C 22.667969 -38.652344 23.007812 -37.191406 23.347656 -35.734375 C 23.484375 -34.613281 23.53125 -33.417969 23.660156 -32.21875 C 23.933594 -28.308594 23.796875 -24.28125 23.75 -20.320312 C 23.394531 -16.46875 22.5625 -12.582031 20.886719 -9.011719 Z M 20.886719 -9.011719 "/></g></g></g><g fill="#39ff14" fill-opacity="1"><g transform="translate(336.018177, 113.840218)"><g><path d="M 32.816406 -30.976562 C 32.644531 -33.371094 32.394531 -35.851562 31.90625 -38.273438 C 31.332031 -40.625 30.433594 -42.929688 29.527344 -45.152344 C 29.199219 -45.894531 28.429688 -46.125 27.777344 -45.949219 C 27.324219 -47.019531 26.660156 -48.429688 25.695312 -49.152344 C 24.804688 -49.789062 23.46875 -49.910156 22.34375 -49.777344 C 21.332031 -49.949219 20.28125 -49.730469 19.222656 -49.433594 C 16.65625 -49.113281 14.546875 -46.851562 12.941406 -44.066406 C 12.785156 -44.082031 12.554688 -44.179688 12.3125 -44.125 C 12.707031 -44.960938 13.101562 -45.796875 13.574219 -46.625 C 13.960938 -47.378906 14.503906 -48.121094 15.046875 -48.867188 C 15.140625 -49.015625 14.992188 -49.109375 14.898438 -48.957031 C 13.402344 -47.351562 12.207031 -45.5625 11.234375 -43.589844 C 11.148438 -43.519531 11.140625 -43.441406 11.0625 -43.445312 C 4.984375 -35.128906 2.613281 -24.886719 3.257812 -14.679688 C 3.613281 -9.972656 4.75 -5.109375 8.15625 -1.625 C 10.117188 0.300781 12.9375 1.511719 15.578125 1.277344 C 16.433594 1.4375 17.296875 1.515625 18.171875 1.515625 C 20.398438 1.40625 22.300781 0.550781 23.933594 -0.804688 C 25.121094 -1.648438 26.164062 -2.660156 27.136719 -3.757812 C 30.070312 -7.214844 31.222656 -11.941406 32.011719 -16.230469 C 33.019531 -21.128906 33.15625 -26.03125 32.816406 -30.976562 Z M 20.886719 -9.011719 C 20.5625 -8.089844 20.089844 -7.261719 19.539062 -6.441406 C 18.988281 -5.621094 18.214844 -4.976562 17.242188 -4.75 C 13.769531 -4.039062 11.316406 -7.515625 10.296875 -10.226562 C 11.039062 -9.683594 12.039062 -9.351562 13.003906 -9.5 C 13.324219 -9.550781 13.652344 -9.679688 13.90625 -9.816406 C 13.195312 -15.03125 13.0625 -20.433594 13.789062 -25.757812 C 14.113281 -27.550781 14.4375 -29.34375 14.917969 -31.121094 C 15.003906 -31.195312 15.011719 -31.273438 15.105469 -31.421875 C 16.03125 -34.585938 17.347656 -37.714844 19.109375 -40.484375 C 19.476562 -41.007812 19.847656 -41.605469 20.347656 -41.878906 C 15 -32.859375 13.777344 -21.320312 15.035156 -10.898438 C 15.492188 -11.570312 15.644531 -12.347656 15.566406 -13.226562 C 15.160156 -19.132812 15.640625 -25.191406 16.882812 -30.941406 C 17.550781 -33.890625 18.527344 -36.734375 19.652344 -39.484375 C 19.960938 -40.25 20.371094 -41.242188 20.921875 -42.0625 L 21.3125 -42.027344 C 21.390625 -42.019531 21.542969 -41.925781 21.613281 -41.839844 C 21.878906 -41.261719 22.054688 -40.609375 22.238281 -40.039062 C 22.667969 -38.652344 23.007812 -37.191406 23.347656 -35.734375 C 23.484375 -34.613281 23.53125 -33.417969 23.660156 -32.21875 C 23.933594 -28.308594 23.796875 -24.28125 23.75 -20.320312 C 23.394531 -16.46875 22.5625 -12.582031 20.886719 -9.011719 Z M 20.886719 -9.011719 "/></g></g></g><g fill="#04080b" fill-opacity="1"><g transform="translate(291.681223, 114.178544)"><g><path d="M 44.410156 -3.945312 C 44.964844 -5.917969 43.78125 -7.492188 42.359375 -8.835938 C 39.519531 -12.226562 36.207031 -15.382812 32.660156 -18.144531 C 30.921875 -19.484375 29.1875 -20.667969 27.292969 -21.851562 C 26.898438 -22.085938 26.503906 -22.324219 26.03125 -22.5625 L 29.820312 -22.324219 C 31.871094 -22.085938 33.445312 -21.851562 35.261719 -21.691406 C 36.601562 -21.535156 37.785156 -22.246094 38.8125 -23.113281 C 46.777344 -29.1875 24.375 -43.386719 20.195312 -45.59375 C 17.984375 -46.777344 15.621094 -47.804688 13.253906 -48.59375 C 11.042969 -49.382812 8.597656 -49.777344 6.230469 -49.777344 C 3.785156 -49.699219 1.105469 -49.222656 -0.472656 -47.171875 C -2.128906 -44.964844 0 -42.359375 1.578125 -40.863281 C 2.207031 -40.390625 2.839844 -39.835938 3.628906 -39.441406 C 4.023438 -35.5 4.339844 -31.554688 4.652344 -27.609375 C 4.652344 -27.609375 4.734375 -27.53125 4.734375 -27.453125 C 3.390625 -26.820312 2.445312 -25.636719 2.445312 -24.058594 C 2.445312 -22.085938 3.707031 -20.90625 5.363281 -20.429688 C 5.757812 -15.699219 6.152344 -10.964844 6.3125 -6.230469 C 6.230469 -6.152344 6.152344 -6.152344 6.074219 -6.152344 C 4.417969 -6.074219 3.078125 -4.890625 3.078125 -3.15625 C 3.078125 -2.601562 3.234375 -2.050781 3.550781 -1.578125 C 3.550781 -1.421875 3.550781 -1.339844 3.628906 -1.183594 C 4.023438 0.316406 5.441406 0.945312 6.941406 0.710938 C 7.886719 0.472656 8.914062 0.316406 9.941406 0.15625 C 10.175781 0.238281 10.492188 0.238281 10.808594 0.238281 C 11.597656 0.238281 12.304688 0.078125 12.9375 -0.316406 C 17.355469 -0.867188 21.773438 -1.183594 26.347656 -0.945312 C 29.582031 -0.867188 32.816406 -0.316406 36.128906 -0.394531 C 39.046875 -0.472656 43.386719 -0.632812 44.410156 -3.945312 Z M 27.609375 -30.449219 C 25.402344 -30.527344 23.191406 -30.527344 20.90625 -30.449219 C 18.378906 -30.371094 15.777344 -30.132812 13.171875 -29.738281 C 12.78125 -33.210938 12.304688 -36.601562 11.597656 -39.996094 C 11.675781 -39.996094 11.753906 -39.996094 11.832031 -39.996094 L 13.09375 -39.757812 C 13.804688 -39.601562 14.515625 -39.363281 15.226562 -39.125 C 17.355469 -38.417969 19.800781 -36.996094 22.007812 -35.5 C 22.796875 -34.945312 23.585938 -34.234375 24.613281 -33.367188 C 25.636719 -32.421875 26.664062 -31.476562 27.609375 -30.449219 Z M 31.871094 -9.703125 C 32.972656 -8.835938 34 -7.808594 34.945312 -6.785156 C 33.605469 -7.101562 32.265625 -7.335938 30.84375 -7.492188 C 27.6875 -7.96875 24.53125 -8.125 21.378906 -8.046875 C 19.640625 -7.96875 17.828125 -7.808594 16.011719 -7.574219 C 15.855469 -9.152344 15.621094 -10.726562 15.460938 -12.304688 L 14.515625 -19.328125 C 14.75 -19.328125 14.988281 -19.246094 15.144531 -19.167969 C 18.222656 -18.300781 21.21875 -16.800781 23.980469 -15.304688 C 26.820312 -13.726562 29.425781 -11.832031 31.871094 -9.703125 Z M 31.871094 -9.703125 "/></g></g></g><g fill="#39ff14" fill-opacity="1"><g transform="translate(295.160762, 115.990656)"><g><path d="M 44.410156 -3.945312 C 44.964844 -5.917969 43.78125 -7.492188 42.359375 -8.835938 C 39.519531 -12.226562 36.207031 -15.382812 32.660156 -18.144531 C 30.921875 -19.484375 29.1875 -20.667969 27.292969 -21.851562 C 26.898438 -22.085938 26.503906 -22.324219 26.03125 -22.5625 L 29.820312 -22.324219 C 31.871094 -22.085938 33.445312 -21.851562 35.261719 -21.691406 C 36.601562 -21.535156 37.785156 -22.246094 38.8125 -23.113281 C 46.777344 -29.1875 24.375 -43.386719 20.195312 -45.59375 C 17.984375 -46.777344 15.621094 -47.804688 13.253906 -48.59375 C 11.042969 -49.382812 8.597656 -49.777344 6.230469 -49.777344 C 3.785156 -49.699219 1.105469 -49.222656 -0.472656 -47.171875 C -2.128906 -44.964844 0 -42.359375 1.578125 -40.863281 C 2.207031 -40.390625 2.839844 -39.835938 3.628906 -39.441406 C 4.023438 -35.5 4.339844 -31.554688 4.652344 -27.609375 C 4.652344 -27.609375 4.734375 -27.53125 4.734375 -27.453125 C 3.390625 -26.820312 2.445312 -25.636719 2.445312 -24.058594 C 2.445312 -22.085938 3.707031 -20.90625 5.363281 -20.429688 C 5.757812 -15.699219 6.152344 -10.964844 6.3125 -6.230469 C 6.230469 -6.152344 6.152344 -6.152344 6.074219 -6.152344 C 4.417969 -6.074219 3.078125 -4.890625 3.078125 -3.15625 C 3.078125 -2.601562 3.234375 -2.050781 3.550781 -1.578125 C 3.550781 -1.421875 3.550781 -1.339844 3.628906 -1.183594 C 4.023438 0.316406 5.441406 0.945312 6.941406 0.710938 C 7.886719 0.472656 8.914062 0.316406 9.941406 0.15625 C 10.175781 0.238281 10.492188 0.238281 10.808594 0.238281 C 11.597656 0.238281 12.304688 0.078125 12.9375 -0.316406 C 17.355469 -0.867188 21.773438 -1.183594 26.347656 -0.945312 C 29.582031 -0.867188 32.816406 -0.316406 36.128906 -0.394531 C 39.046875 -0.472656 43.386719 -0.632812 44.410156 -3.945312 Z M 27.609375 -30.449219 C 25.402344 -30.527344 23.191406 -30.527344 20.90625 -30.449219 C 18.378906 -30.371094 15.777344 -30.132812 13.171875 -29.738281 C 12.78125 -33.210938 12.304688 -36.601562 11.597656 -39.996094 C 11.675781 -39.996094 11.753906 -39.996094 11.832031 -39.996094 L 13.09375 -39.757812 C 13.804688 -39.601562 14.515625 -39.363281 15.226562 -39.125 C 17.355469 -38.417969 19.800781 -36.996094 22.007812 -35.5 C 22.796875 -34.945312 23.585938 -34.234375 24.613281 -33.367188 C 25.636719 -32.421875 26.664062 -31.476562 27.609375 -30.449219 Z M 31.871094 -9.703125 C 32.972656 -8.835938 34 -7.808594 34.945312 -6.785156 C 33.605469 -7.101562 32.265625 -7.335938 30.84375 -7.492188 C 27.6875 -7.96875 24.53125 -8.125 21.378906 -8.046875 C 19.640625 -7.96875 17.828125 -7.808594 16.011719 -7.574219 C 15.855469 -9.152344 15.621094 -10.726562 15.460938 -12.304688 L 14.515625 -19.328125 C 14.75 -19.328125 14.988281 -19.246094 15.144531 -19.167969 C 18.222656 -18.300781 21.21875 -16.800781 23.980469 -15.304688 C 26.820312 -13.726562 29.425781 -11.832031 31.871094 -9.703125 Z M 31.871094 -9.703125 "/></g></g></g><g fill="#04080b" fill-opacity="1"><g transform="translate(246.422878, 116.792116)"><g><path d="M 43.585938 -32.058594 C 43.742188 -33.804688 43.207031 -35.203125 41.902344 -36.09375 C 40.84375 -36.835938 39.699219 -37.652344 38.558594 -38.390625 C 38.375 -39.015625 38.03125 -39.628906 37.378906 -40.074219 C 29.417969 -44.929688 21.371094 -49.941406 12.574219 -52.308594 C 12.496094 -52.304688 12.414062 -52.382812 12.335938 -52.378906 C 11.773438 -52.589844 11.214844 -52.722656 10.652344 -52.933594 C 10.488281 -53.085938 10.242188 -53.230469 9.925781 -53.21875 C 7.304688 -53.574219 2.527344 -54.382812 1.160156 -51.398438 C 0.375 -49.546875 1.34375 -47.378906 2.898438 -46.1875 C 2.457031 -45.453125 1.929688 -44.878906 1.320312 -44.375 C 2.070312 -41.722656 2.746094 -38.988281 3.417969 -36.335938 C 2.945312 -36.3125 2.472656 -36.292969 2.003906 -36.191406 C -0.359375 -36.085938 -1.128906 -32.101562 1.140625 -30.78125 C 1.871094 -30.339844 2.761719 -29.90625 3.5625 -29.625 L 1.761719 -29.308594 C 2.644531 -29.03125 3.523438 -28.753906 4.402344 -28.558594 C 4.722656 -28.492188 4.890625 -28.265625 4.898438 -28.027344 C 5.058594 -28.035156 5.214844 -28.042969 5.371094 -28.046875 L 5.96875 -25.3125 C 6.769531 -21.632812 7.566406 -17.957031 8.363281 -14.28125 L 9.304688 -9.109375 C 9.542969 -7.382812 9.46875 -5.480469 9.9375 -3.84375 C 9.976562 -2.976562 10.789062 -2.460938 11.414062 -2.648438 C 11.515625 -2.175781 11.691406 -1.789062 11.945312 -1.40625 C 12.941406 -0.34375 14.511719 -0.496094 15.5 -1.410156 C 16.257812 -2.074219 16.773438 -2.886719 17.207031 -3.855469 C 17.1875 -4.25 17.167969 -4.722656 17.066406 -5.191406 C 17.128906 -9.066406 16.554688 -13.070312 16.144531 -16.921875 C 15.824219 -20.539062 15.34375 -24.152344 14.789062 -27.683594 C 16.84375 -27.695312 18.980469 -27.632812 21.03125 -27.648438 C 21.457031 -26.957031 21.96875 -26.1875 22.472656 -25.5 L 22.476562 -25.421875 C 22.984375 -24.65625 23.414062 -23.882812 23.847656 -23.035156 C 25.476562 -20.183594 27.839844 -15.078125 28.796875 -13.066406 C 30.539062 -9.511719 32.28125 -5.878906 33.867188 -2.234375 C 34.191406 -2.09375 34.65625 -2.269531 34.882812 -2.519531 C 34.886719 -2.441406 34.964844 -2.441406 35.042969 -2.445312 C 35.765625 -2.164062 36.476562 -2.195312 37.183594 -2.304688 C 38.546875 -1.816406 40.34375 -2.289062 40.5 -4.035156 C 40.902344 -9.1875 37.917969 -14.03125 35.585938 -18.429688 C 33.78125 -21.742188 31.742188 -24.890625 29.472656 -27.949219 C 33.191406 -27.800781 36.910156 -27.652344 40.625 -27.582031 C 41.894531 -27.480469 43.332031 -28.890625 43.421875 -30.394531 Z M 11.035156 -42.679688 L 10.742188 -43.933594 C 17.589844 -42.660156 24.050781 -39.554688 30.308594 -35.648438 L 22.621094 -36.25 C 20.738281 -37.667969 18.042969 -39.679688 15.742188 -38.074219 C 15.363281 -37.742188 15.148438 -37.257812 15.085938 -36.859375 C 14.691406 -36.921875 14.21875 -36.898438 13.820312 -36.960938 C 13.429688 -38.601562 12.960938 -40.238281 12.492188 -41.878906 C 12.382812 -42.582031 11.59375 -42.546875 11.214844 -42.136719 C 11.128906 -42.289062 11.121094 -42.527344 11.035156 -42.679688 Z M 18.230469 -7.457031 C 18.457031 -9.363281 19.054688 -10.179688 18.691406 -13.007812 C 18.082031 -17.71875 17.476562 -22.433594 16.480469 -26.96875 L 15.851562 -26.941406 C 17.085938 -20.519531 17.617188 -13.984375 18.230469 -7.457031 Z M 18.230469 -7.457031 "/></g></g></g><g fill="#39ff14" fill-opacity="1"><g transform="translate(251.440182, 116.637658)"><g><path d="M 43.585938 -32.058594 C 43.742188 -33.804688 43.207031 -35.203125 41.902344 -36.09375 C 40.84375 -36.835938 39.699219 -37.652344 38.558594 -38.390625 C 38.375 -39.015625 38.03125 -39.628906 37.378906 -40.074219 C 29.417969 -44.929688 21.371094 -49.941406 12.574219 -52.308594 C 12.496094 -52.304688 12.414062 -52.382812 12.335938 -52.378906 C 11.773438 -52.589844 11.214844 -52.722656 10.652344 -52.933594 C 10.488281 -53.085938 10.242188 -53.230469 9.925781 -53.21875 C 7.304688 -53.574219 2.527344 -54.382812 1.160156 -51.398438 C 0.375 -49.546875 1.34375 -47.378906 2.898438 -46.1875 C 2.457031 -45.453125 1.929688 -44.878906 1.320312 -44.375 C 2.070312 -41.722656 2.746094 -38.988281 3.417969 -36.335938 C 2.945312 -36.3125 2.472656 -36.292969 2.003906 -36.191406 C -0.359375 -36.085938 -1.128906 -32.101562 1.140625 -30.78125 C 1.871094 -30.339844 2.761719 -29.90625 3.5625 -29.625 L 1.761719 -29.308594 C 2.644531 -29.03125 3.523438 -28.753906 4.402344 -28.558594 C 4.722656 -28.492188 4.890625 -28.265625 4.898438 -28.027344 C 5.058594 -28.035156 5.214844 -28.042969 5.371094 -28.046875 L 5.96875 -25.3125 C 6.769531 -21.632812 7.566406 -17.957031 8.363281 -14.28125 L 9.304688 -9.109375 C 9.542969 -7.382812 9.46875 -5.480469 9.9375 -3.84375 C 9.976562 -2.976562 10.789062 -2.460938 11.414062 -2.648438 C 11.515625 -2.175781 11.691406 -1.789062 11.945312 -1.40625 C 12.941406 -0.34375 14.511719 -0.496094 15.5 -1.410156 C 16.257812 -2.074219 16.773438 -2.886719 17.207031 -3.855469 C 17.1875 -4.25 17.167969 -4.722656 17.066406 -5.191406 C 17.128906 -9.066406 16.554688 -13.070312 16.144531 -16.921875 C 15.824219 -20.539062 15.34375 -24.152344 14.789062 -27.683594 C 16.84375 -27.695312 18.980469 -27.632812 21.03125 -27.648438 C 21.457031 -26.957031 21.96875 -26.1875 22.472656 -25.5 L 22.476562 -25.421875 C 22.984375 -24.65625 23.414062 -23.882812 23.847656 -23.035156 C 25.476562 -20.183594 27.839844 -15.078125 28.796875 -13.066406 C 30.539062 -9.511719 32.28125 -5.878906 33.867188 -2.234375 C 34.191406 -2.09375 34.65625 -2.269531 34.882812 -2.519531 C 34.886719 -2.441406 34.964844 -2.441406 35.042969 -2.445312 C 35.765625 -2.164062 36.476562 -2.195312 37.183594 -2.304688 C 38.546875 -1.816406 40.34375 -2.289062 40.5 -4.035156 C 40.902344 -9.1875 37.917969 -14.03125 35.585938 -18.429688 C 33.78125 -21.742188 31.742188 -24.890625 29.472656 -27.949219 C 33.191406 -27.800781 36.910156 -27.652344 40.625 -27.582031 C 41.894531 -27.480469 43.332031 -28.890625 43.421875 -30.394531 Z M 11.035156 -42.679688 L 10.742188 -43.933594 C 17.589844 -42.660156 24.050781 -39.554688 30.308594 -35.648438 L 22.621094 -36.25 C 20.738281 -37.667969 18.042969 -39.679688 15.742188 -38.074219 C 15.363281 -37.742188 15.148438 -37.257812 15.085938 -36.859375 C 14.691406 -36.921875 14.21875 -36.898438 13.820312 -36.960938 C 13.429688 -38.601562 12.960938 -40.238281 12.492188 -41.878906 C 12.382812 -42.582031 11.59375 -42.546875 11.214844 -42.136719 C 11.128906 -42.289062 11.121094 -42.527344 11.035156 -42.679688 Z M 18.230469 -7.457031 C 18.457031 -9.363281 19.054688 -10.179688 18.691406 -13.007812 C 18.082031 -17.71875 17.476562 -22.433594 16.480469 -26.96875 L 15.851562 -26.941406 C 17.085938 -20.519531 17.617188 -13.984375 18.230469 -7.457031 Z M 18.230469 -7.457031 "/></g></g></g><g fill="#04080b" fill-opacity="1"><g transform="translate(193.956358, 112.147992)"><g><path d="M 10.527344 -40.363281 C 10.339844 -40.242188 10.289062 -40.011719 10.425781 -39.902344 C 12.289062 -40.308594 14.136719 -40.636719 16.027344 -40.796875 C 21.503906 -41.476562 27 -41.507812 32.496094 -41.539062 C 35.652344 -41.585938 38.90625 -41.695312 42.082031 -41.820312 C 41.386719 -41.96875 40.691406 -42.121094 39.980469 -42.191406 C 36.613281 -42.671875 33.316406 -42.734375 30.019531 -42.796875 L 28.144531 -42.714844 C 22.273438 -42.441406 16.199219 -41.972656 10.527344 -40.363281 Z M 47.070312 0.34375 C 48.148438 -0.152344 48.996094 -1.101562 49.21875 -2.507812 C 49.855469 -6.972656 49.847656 -14.078125 43.640625 -14.121094 C 42.742188 -14.070312 41.886719 -13.851562 40.988281 -13.800781 L 37.777344 -13.519531 C 35.792969 -13.300781 33.792969 -13.003906 31.792969 -12.707031 C 30.550781 -12.570312 29.292969 -12.355469 28.039062 -12.140625 L 20.929688 -11.003906 C 19.085938 -10.675781 17.238281 -10.34375 15.375 -9.9375 L 15.109375 -9.832031 C 15.140625 -9.988281 15.160156 -10.0625 15.175781 -10.140625 L 15.789062 -15.257812 C 18.183594 -15.875 20.5 -16.507812 22.933594 -16.953125 C 26.894531 -17.714844 30.769531 -18.09375 34.6875 -18.300781 C 36.640625 -18.367188 38.652344 -18.339844 40.570312 -18.25 C 42.429688 -18.253906 44.109375 -17.8125 45.894531 -18.234375 C 47.433594 -18.632812 48.722656 -20.132812 48.730469 -21.664062 C 48.742188 -22.46875 48.445312 -23.339844 47.832031 -23.875 C 47.757812 -23.890625 47.757812 -23.890625 47.695312 -23.984375 C 47.683594 -24.308594 47.597656 -24.652344 47.507812 -24.992188 C 47.464844 -25.164062 47.4375 -25.414062 47.332031 -25.675781 C 46.648438 -27.761719 44.8125 -28.238281 42.867188 -28.574219 C 41.925781 -28.695312 41.058594 -28.800781 40.101562 -28.84375 L 39.046875 -28.828125 C 36.429688 -28.664062 33.734375 -28.515625 31.132812 -28.429688 C 26.386719 -27.753906 21.742188 -26.8125 17.023438 -25.890625 C 17.105469 -26.277344 17.242188 -29.152344 17.328125 -29.941406 L 17.515625 -30.0625 C 20.125 -30.550781 22.792969 -30.949219 25.445312 -31.265625 C 26.375 -31.46875 34.511719 -32.144531 38.679688 -32.378906 C 38.835938 -32.347656 39.007812 -32.390625 39.175781 -32.433594 C 41.050781 -32.515625 42.941406 -32.675781 44.757812 -32.851562 L 48.863281 -33.179688 C 49.503906 -34.65625 49.621094 -36.328125 49.425781 -38.0625 C 49.109375 -38.453125 48.726562 -38.941406 48.410156 -39.332031 L 47.273438 -40.058594 C 46.84375 -40.3125 46.320312 -40.507812 45.796875 -40.699219 C 41.550781 -40.480469 37.304688 -40.261719 33.015625 -40.214844 C 27.539062 -40.261719 22.042969 -40.230469 16.566406 -39.550781 C 14.832031 -39.359375 13 -39.105469 11.230469 -38.757812 C 11.105469 -38.542969 10.898438 -38.347656 10.789062 -38.207031 C 9.511719 -37.515625 8.566406 -36.507812 8.082031 -34.996094 C 7.644531 -33.71875 7.792969 -32.152344 8.503906 -30.949219 L 7.539062 -21.953125 L 6.476562 -12.492188 C 6.128906 -9.742188 5.6875 -6.933594 5.585938 -4.210938 C 4.460938 -2.351562 5.277344 0.246094 7.039062 1.429688 C 6.878906 1.800781 6.8125 2.109375 6.882812 2.527344 C 7.21875 3.972656 8.59375 4.347656 9.875 4.382812 C 10.183594 4.449219 10.664062 4.46875 10.664062 4.46875 C 10.570312 4.53125 15.25 4.164062 16.308594 3.746094 L 16.402344 3.683594 C 17.335938 3.480469 18.25 3.355469 19.183594 3.152344 C 19.351562 3.105469 19.601562 3.078125 19.773438 3.035156 L 19.847656 3.050781 C 22.628906 2.519531 25.449219 2.15625 28.273438 1.792969 C 34.167969 1.042969 40.191406 0.800781 46.132812 0.949219 C 46.613281 0.96875 46.910156 0.710938 47.070312 0.34375 Z M 31.910156 -20.027344 L 31.9375 -19.78125 C 31.441406 -19.726562 31.023438 -19.65625 30.511719 -19.523438 C 26.320312 -18.808594 21.992188 -18.203125 17.796875 -17.085938 C 18.53125 -17.492188 19.160156 -18.167969 19.496094 -18.980469 C 21.046875 -19.050781 22.609375 -19.199219 24.253906 -19.332031 C 26.8125 -19.589844 29.351562 -19.769531 31.910156 -20.027344 Z M 9.121094 3.007812 C 10.75 2.953125 12.347656 2.652344 13.929688 2.425781 C 15.496094 2.277344 17 2.035156 18.503906 1.792969 L 18.472656 1.949219 C 17.183594 2.316406 15.890625 2.6875 14.523438 3.039062 C 13.917969 3.230469 13.234375 3.40625 12.550781 3.582031 C 12.457031 3.644531 12.378906 3.628906 12.300781 3.609375 C 12.054688 3.636719 10.246094 3.410156 9.121094 3.007812 Z M 9.121094 3.007812 "/></g></g></g><g fill="#39ff14" fill-opacity="1"><g transform="translate(199.631906, 109.936917)"><g><path d="M 10.527344 -40.363281 C 10.339844 -40.242188 10.289062 -40.011719 10.425781 -39.902344 C 12.289062 -40.308594 14.136719 -40.636719 16.027344 -40.796875 C 21.503906 -41.476562 27 -41.507812 32.496094 -41.539062 C 35.652344 -41.585938 38.90625 -41.695312 42.082031 -41.820312 C 41.386719 -41.96875 40.691406 -42.121094 39.980469 -42.191406 C 36.613281 -42.671875 33.316406 -42.734375 30.019531 -42.796875 L 28.144531 -42.714844 C 22.273438 -42.441406 16.199219 -41.972656 10.527344 -40.363281 Z M 47.070312 0.34375 C 48.148438 -0.152344 48.996094 -1.101562 49.21875 -2.507812 C 49.855469 -6.972656 49.847656 -14.078125 43.640625 -14.121094 C 42.742188 -14.070312 41.886719 -13.851562 40.988281 -13.800781 L 37.777344 -13.519531 C 35.792969 -13.300781 33.792969 -13.003906 31.792969 -12.707031 C 30.550781 -12.570312 29.292969 -12.355469 28.039062 -12.140625 L 20.929688 -11.003906 C 19.085938 -10.675781 17.238281 -10.34375 15.375 -9.9375 L 15.109375 -9.832031 C 15.140625 -9.988281 15.160156 -10.0625 15.175781 -10.140625 L 15.789062 -15.257812 C 18.183594 -15.875 20.5 -16.507812 22.933594 -16.953125 C 26.894531 -17.714844 30.769531 -18.09375 34.6875 -18.300781 C 36.640625 -18.367188 38.652344 -18.339844 40.570312 -18.25 C 42.429688 -18.253906 44.109375 -17.8125 45.894531 -18.234375 C 47.433594 -18.632812 48.722656 -20.132812 48.730469 -21.664062 C 48.742188 -22.46875 48.445312 -23.339844 47.832031 -23.875 C 47.757812 -23.890625 47.757812 -23.890625 47.695312 -23.984375 C 47.683594 -24.308594 47.597656 -24.652344 47.507812 -24.992188 C 47.464844 -25.164062 47.4375 -25.414062 47.332031 -25.675781 C 46.648438 -27.761719 44.8125 -28.238281 42.867188 -28.574219 C 41.925781 -28.695312 41.058594 -28.800781 40.101562 -28.84375 L 39.046875 -28.828125 C 36.429688 -28.664062 33.734375 -28.515625 31.132812 -28.429688 C 26.386719 -27.753906 21.742188 -26.8125 17.023438 -25.890625 C 17.105469 -26.277344 17.242188 -29.152344 17.328125 -29.941406 L 17.515625 -30.0625 C 20.125 -30.550781 22.792969 -30.949219 25.445312 -31.265625 C 26.375 -31.46875 34.511719 -32.144531 38.679688 -32.378906 C 38.835938 -32.347656 39.007812 -32.390625 39.175781 -32.433594 C 41.050781 -32.515625 42.941406 -32.675781 44.757812 -32.851562 L 48.863281 -33.179688 C 49.503906 -34.65625 49.621094 -36.328125 49.425781 -38.0625 C 49.109375 -38.453125 48.726562 -38.941406 48.410156 -39.332031 L 47.273438 -40.058594 C 46.84375 -40.3125 46.320312 -40.507812 45.796875 -40.699219 C 41.550781 -40.480469 37.304688 -40.261719 33.015625 -40.214844 C 27.539062 -40.261719 22.042969 -40.230469 16.566406 -39.550781 C 14.832031 -39.359375 13 -39.105469 11.230469 -38.757812 C 11.105469 -38.542969 10.898438 -38.347656 10.789062 -38.207031 C 9.511719 -37.515625 8.566406 -36.507812 8.082031 -34.996094 C 7.644531 -33.71875 7.792969 -32.152344 8.503906 -30.949219 L 7.539062 -21.953125 L 6.476562 -12.492188 C 6.128906 -9.742188 5.6875 -6.933594 5.585938 -4.210938 C 4.460938 -2.351562 5.277344 0.246094 7.039062 1.429688 C 6.878906 1.800781 6.8125 2.109375 6.882812 2.527344 C 7.21875 3.972656 8.59375 4.347656 9.875 4.382812 C 10.183594 4.449219 10.664062 4.46875 10.664062 4.46875 C 10.570312 4.53125 15.25 4.164062 16.308594 3.746094 L 16.402344 3.683594 C 17.335938 3.480469 18.25 3.355469 19.183594 3.152344 C 19.351562 3.105469 19.601562 3.078125 19.773438 3.035156 L 19.847656 3.050781 C 22.628906 2.519531 25.449219 2.15625 28.273438 1.792969 C 34.167969 1.042969 40.191406 0.800781 46.132812 0.949219 C 46.613281 0.96875 46.910156 0.710938 47.070312 0.34375 Z M 31.910156 -20.027344 L 31.9375 -19.78125 C 31.441406 -19.726562 31.023438 -19.65625 30.511719 -19.523438 C 26.320312 -18.808594 21.992188 -18.203125 17.796875 -17.085938 C 18.53125 -17.492188 19.160156 -18.167969 19.496094 -18.980469 C 21.046875 -19.050781 22.609375 -19.199219 24.253906 -19.332031 C 26.8125 -19.589844 29.351562 -19.769531 31.910156 -20.027344 Z M 9.121094 3.007812 C 10.75 2.953125 12.347656 2.652344 13.929688 2.425781 C 15.496094 2.277344 17 2.035156 18.503906 1.792969 L 18.472656 1.949219 C 17.183594 2.316406 15.890625 2.6875 14.523438 3.039062 C 13.917969 3.230469 13.234375 3.40625 12.550781 3.582031 C 12.457031 3.644531 12.378906 3.628906 12.300781 3.609375 C 12.054688 3.636719 10.246094 3.410156 9.121094 3.007812 Z M 9.121094 3.007812 "/></g></g></g><g fill="#04080b" fill-opacity="1"><g transform="translate(154.221624, 116.314819)"><g><path d="M 45.4375 -7.179688 C 47.171875 -11.28125 45.4375 -15.777344 43.542969 -19.484375 C 42.046875 -22.480469 40.152344 -25.242188 38.179688 -27.847656 C 36.996094 -29.425781 35.65625 -30.921875 34.316406 -32.34375 C 30.527344 -36.679688 26.425781 -40.703125 22.324219 -44.648438 C 18.617188 -48.199219 14.832031 -51.667969 9.546875 -52.0625 C 7.730469 -52.222656 4.101562 -51.589844 3.390625 -49.539062 C 3.078125 -49.539062 2.683594 -49.460938 2.289062 -49.382812 C 0.867188 -49.144531 -0.316406 -47.804688 0.15625 -46.226562 C 0.238281 -45.988281 0.394531 -45.675781 0.472656 -45.359375 C 2.289062 -36.601562 4.101562 -27.847656 5.835938 -19.011719 C 6.074219 -18.066406 6.230469 -17.195312 6.390625 -16.25 L 6.074219 -16.488281 C 3.867188 -17.75 0.867188 -16.960938 -0.394531 -14.75 C -1.734375 -12.542969 -1.027344 -9.464844 1.261719 -8.203125 C 3.707031 -6.941406 6.152344 -5.835938 8.675781 -4.8125 C 9.070312 -2.917969 9.625 -1.65625 11.359375 -0.472656 C 12.148438 0.078125 13.253906 0.238281 14.277344 0.15625 C 14.832031 0.15625 15.226562 -0.078125 15.539062 -0.394531 C 15.855469 -0.238281 16.25 -0.15625 16.644531 -0.238281 C 17.277344 -0.394531 17.828125 -0.945312 18.144531 -1.65625 C 20.035156 -1.183594 22.007812 -0.789062 23.980469 -0.472656 C 28.160156 0.15625 32.265625 0.316406 36.367188 -0.632812 C 39.914062 -1.5 43.9375 -3.707031 45.4375 -7.179688 Z M 2.917969 -39.601562 C 3.945312 -36.207031 7.335938 -22.167969 8.363281 -18.460938 C 8.675781 -17.117188 9.152344 -15.777344 9.625 -14.4375 C 9.152344 -14.671875 8.675781 -14.988281 8.203125 -15.226562 L 6.074219 -23.664062 C 4.652344 -29.109375 3.550781 -34.550781 2.207031 -39.996094 C 1.972656 -41.097656 2.839844 -39.914062 2.917969 -39.601562 Z M 36.367188 -15.539062 C 36.917969 -14.671875 37.390625 -13.648438 37.863281 -12.699219 C 38.339844 -11.753906 38.8125 -10.886719 38.96875 -9.859375 C 38.101562 -9.070312 36.996094 -8.675781 35.65625 -8.363281 C 34 -7.886719 32.816406 -7.886719 30.921875 -7.886719 C 28.871094 -7.96875 27.847656 -8.125 25.796875 -8.597656 C 23.191406 -9.152344 20.667969 -9.941406 18.222656 -10.808594 C 17.828125 -13.171875 17.355469 -15.539062 16.960938 -17.90625 C 15.855469 -24.453125 14.671875 -31.082031 13.332031 -37.628906 L 14.832031 -36.839844 C 18.539062 -34.710938 21.691406 -32.421875 24.691406 -29.660156 C 27.6875 -27.058594 30.371094 -24.058594 32.738281 -20.90625 C 34 -19.167969 35.183594 -17.355469 36.367188 -15.539062 Z M 36.367188 -15.539062 "/></g></g></g><g fill="#39ff14" fill-opacity="1"><g transform="translate(157.701165, 116.314819)"><g><path d="M 45.4375 -7.179688 C 47.171875 -11.28125 45.4375 -15.777344 43.542969 -19.484375 C 42.046875 -22.480469 40.152344 -25.242188 38.179688 -27.847656 C 36.996094 -29.425781 35.65625 -30.921875 34.316406 -32.34375 C 30.527344 -36.679688 26.425781 -40.703125 22.324219 -44.648438 C 18.617188 -48.199219 14.832031 -51.667969 9.546875 -52.0625 C 7.730469 -52.222656 4.101562 -51.589844 3.390625 -49.539062 C 3.078125 -49.539062 2.683594 -49.460938 2.289062 -49.382812 C 0.867188 -49.144531 -0.316406 -47.804688 0.15625 -46.226562 C 0.238281 -45.988281 0.394531 -45.675781 0.472656 -45.359375 C 2.289062 -36.601562 4.101562 -27.847656 5.835938 -19.011719 C 6.074219 -18.066406 6.230469 -17.195312 6.390625 -16.25 L 6.074219 -16.488281 C 3.867188 -17.75 0.867188 -16.960938 -0.394531 -14.75 C -1.734375 -12.542969 -1.027344 -9.464844 1.261719 -8.203125 C 3.707031 -6.941406 6.152344 -5.835938 8.675781 -4.8125 C 9.070312 -2.917969 9.625 -1.65625 11.359375 -0.472656 C 12.148438 0.078125 13.253906 0.238281 14.277344 0.15625 C 14.832031 0.15625 15.226562 -0.078125 15.539062 -0.394531 C 15.855469 -0.238281 16.25 -0.15625 16.644531 -0.238281 C 17.277344 -0.394531 17.828125 -0.945312 18.144531 -1.65625 C 20.035156 -1.183594 22.007812 -0.789062 23.980469 -0.472656 C 28.160156 0.15625 32.265625 0.316406 36.367188 -0.632812 C 39.914062 -1.5 43.9375 -3.707031 45.4375 -7.179688 Z M 2.917969 -39.601562 C 3.945312 -36.207031 7.335938 -22.167969 8.363281 -18.460938 C 8.675781 -17.117188 9.152344 -15.777344 9.625 -14.4375 C 9.152344 -14.671875 8.675781 -14.988281 8.203125 -15.226562 L 6.074219 -23.664062 C 4.652344 -29.109375 3.550781 -34.550781 2.207031 -39.996094 C 1.972656 -41.097656 2.839844 -39.914062 2.917969 -39.601562 Z M 36.367188 -15.539062 C 36.917969 -14.671875 37.390625 -13.648438 37.863281 -12.699219 C 38.339844 -11.753906 38.8125 -10.886719 38.96875 -9.859375 C 38.101562 -9.070312 36.996094 -8.675781 35.65625 -8.363281 C 34 -7.886719 32.816406 -7.886719 30.921875 -7.886719 C 28.871094 -7.96875 27.847656 -8.125 25.796875 -8.597656 C 23.191406 -9.152344 20.667969 -9.941406 18.222656 -10.808594 C 17.828125 -13.171875 17.355469 -15.539062 16.960938 -17.90625 C 15.855469 -24.453125 14.671875 -31.082031 13.332031 -37.628906 L 14.832031 -36.839844 C 18.539062 -34.710938 21.691406 -32.421875 24.691406 -29.660156 C 27.6875 -27.058594 30.371094 -24.058594 32.738281 -20.90625 C 34 -19.167969 35.183594 -17.355469 36.367188 -15.539062 Z M 36.367188 -15.539062 "/></g></g></g><g fill="#04080b" fill-opacity="1"><g transform="translate(117.100133, 116.314819)"><g><path d="M 28.871094 -2.367188 C 30.6875 3.3125 36.523438 3.15625 35.65625 -3.945312 C 35.023438 -8.675781 33.683594 -15.066406 32.660156 -19.722656 C 36.996094 -22.480469 36.128906 -29.582031 30.132812 -30.292969 C 29.582031 -35.023438 29.109375 -46.9375 29.03125 -46.148438 C 28.714844 -43.542969 28.554688 -40.785156 28.476562 -38.101562 C 28.398438 -38.101562 28.398438 -38.101562 28.320312 -38.179688 C 28.003906 -41.257812 27.6875 -44.492188 27.453125 -47.644531 C 27.214844 -50.171875 25.558594 -51.75 23.269531 -51.90625 C 22.640625 -53.167969 21.0625 -54.113281 19.722656 -54.035156 C 15.699219 -53.957031 14.121094 -49.066406 12.699219 -45.988281 C 10.648438 -41.097656 9.386719 -35.972656 8.28125 -30.765625 C -1.105469 -29.34375 -1.105469 -20.746094 3.945312 -19.484375 C 4.023438 -19.246094 3.945312 -18.933594 3.867188 -18.773438 C 4.496094 -18.773438 5.285156 -18.851562 5.996094 -18.933594 C 4.8125 -14.355469 4.023438 -9.78125 3.390625 -5.128906 C 2.367188 2.289062 12.148438 3.390625 12.78125 -3.785156 L 13.253906 -7.335938 C 13.253906 -7.335938 14.59375 -15.382812 15.621094 -19.246094 L 16.328125 -19.246094 C 14.832031 -14.59375 14.121094 -9.78125 13.726562 -5.046875 C 13.648438 -4.101562 14.988281 -4.101562 14.988281 -5.046875 C 15.382812 -9.859375 16.25 -14.515625 17.433594 -19.246094 L 23.585938 -19.328125 C 24.21875 -16.488281 27.371094 -2.917969 28.871094 -2.367188 Z M 17.195312 -29.503906 C 17.90625 -33.210938 18.851562 -36.367188 20.117188 -40.785156 C 20.90625 -37.15625 21.300781 -31.789062 21.613281 -29.820312 C 20.511719 -29.738281 18.300781 -29.660156 17.195312 -29.503906 Z M 17.195312 -29.503906 "/></g></g></g><g fill="#39ff14" fill-opacity="1"><g transform="translate(120.579664, 116.314819)"><g><path d="M 28.871094 -2.367188 C 30.6875 3.3125 36.523438 3.15625 35.65625 -3.945312 C 35.023438 -8.675781 33.683594 -15.066406 32.660156 -19.722656 C 36.996094 -22.480469 36.128906 -29.582031 30.132812 -30.292969 C 29.582031 -35.023438 29.109375 -46.9375 29.03125 -46.148438 C 28.714844 -43.542969 28.554688 -40.785156 28.476562 -38.101562 C 28.398438 -38.101562 28.398438 -38.101562 28.320312 -38.179688 C 28.003906 -41.257812 27.6875 -44.492188 27.453125 -47.644531 C 27.214844 -50.171875 25.558594 -51.75 23.269531 -51.90625 C 22.640625 -53.167969 21.0625 -54.113281 19.722656 -54.035156 C 15.699219 -53.957031 14.121094 -49.066406 12.699219 -45.988281 C 10.648438 -41.097656 9.386719 -35.972656 8.28125 -30.765625 C -1.105469 -29.34375 -1.105469 -20.746094 3.945312 -19.484375 C 4.023438 -19.246094 3.945312 -18.933594 3.867188 -18.773438 C 4.496094 -18.773438 5.285156 -18.851562 5.996094 -18.933594 C 4.8125 -14.355469 4.023438 -9.78125 3.390625 -5.128906 C 2.367188 2.289062 12.148438 3.390625 12.78125 -3.785156 L 13.253906 -7.335938 C 13.253906 -7.335938 14.59375 -15.382812 15.621094 -19.246094 L 16.328125 -19.246094 C 14.832031 -14.59375 14.121094 -9.78125 13.726562 -5.046875 C 13.648438 -4.101562 14.988281 -4.101562 14.988281 -5.046875 C 15.382812 -9.859375 16.25 -14.515625 17.433594 -19.246094 L 23.585938 -19.328125 C 24.21875 -16.488281 27.371094 -2.917969 28.871094 -2.367188 Z M 17.195312 -29.503906 C 17.90625 -33.210938 18.851562 -36.367188 20.117188 -40.785156 C 20.90625 -37.15625 21.300781 -31.789062 21.613281 -29.820312 C 20.511719 -29.738281 18.300781 -29.660156 17.195312 -29.503906 Z M 17.195312 -29.503906 "/></g></g></g><g fill="#04080b" fill-opacity="1"><g transform="translate(66.417413, 112.147992)"><g><path d="M 10.527344 -40.363281 C 10.339844 -40.242188 10.289062 -40.011719 10.425781 -39.902344 C 12.289062 -40.308594 14.136719 -40.636719 16.027344 -40.796875 C 21.503906 -41.476562 27 -41.507812 32.496094 -41.539062 C 35.652344 -41.585938 38.90625 -41.695312 42.082031 -41.820312 C 41.386719 -41.96875 40.691406 -42.121094 39.980469 -42.191406 C 36.613281 -42.671875 33.316406 -42.734375 30.019531 -42.796875 L 28.144531 -42.714844 C 22.273438 -42.441406 16.199219 -41.972656 10.527344 -40.363281 Z M 47.070312 0.34375 C 48.148438 -0.152344 48.996094 -1.101562 49.21875 -2.507812 C 49.855469 -6.972656 49.847656 -14.078125 43.640625 -14.121094 C 42.742188 -14.070312 41.886719 -13.851562 40.988281 -13.800781 L 37.777344 -13.519531 C 35.792969 -13.300781 33.792969 -13.003906 31.792969 -12.707031 C 30.550781 -12.570312 29.292969 -12.355469 28.039062 -12.140625 L 20.929688 -11.003906 C 19.085938 -10.675781 17.238281 -10.34375 15.375 -9.9375 L 15.109375 -9.832031 C 15.140625 -9.988281 15.160156 -10.0625 15.175781 -10.140625 L 15.789062 -15.257812 C 18.183594 -15.875 20.5 -16.507812 22.933594 -16.953125 C 26.894531 -17.714844 30.769531 -18.09375 34.6875 -18.300781 C 36.640625 -18.367188 38.652344 -18.339844 40.570312 -18.25 C 42.429688 -18.253906 44.109375 -17.8125 45.894531 -18.234375 C 47.433594 -18.632812 48.722656 -20.132812 48.730469 -21.664062 C 48.742188 -22.46875 48.445312 -23.339844 47.832031 -23.875 C 47.757812 -23.890625 47.757812 -23.890625 47.695312 -23.984375 C 47.683594 -24.308594 47.597656 -24.652344 47.507812 -24.992188 C 47.464844 -25.164062 47.4375 -25.414062 47.332031 -25.675781 C 46.648438 -27.761719 44.8125 -28.238281 42.867188 -28.574219 C 41.925781 -28.695312 41.058594 -28.800781 40.101562 -28.84375 L 39.046875 -28.828125 C 36.429688 -28.664062 33.734375 -28.515625 31.132812 -28.429688 C 26.386719 -27.753906 21.742188 -26.8125 17.023438 -25.890625 C 17.105469 -26.277344 17.242188 -29.152344 17.328125 -29.941406 L 17.515625 -30.0625 C 20.125 -30.550781 22.792969 -30.949219 25.445312 -31.265625 C 26.375 -31.46875 34.511719 -32.144531 38.679688 -32.378906 C 38.835938 -32.347656 39.007812 -32.390625 39.175781 -32.433594 C 41.050781 -32.515625 42.941406 -32.675781 44.757812 -32.851562 L 48.863281 -33.179688 C 49.503906 -34.65625 49.621094 -36.328125 49.425781 -38.0625 C 49.109375 -38.453125 48.726562 -38.941406 48.410156 -39.332031 L 47.273438 -40.058594 C 46.84375 -40.3125 46.320312 -40.507812 45.796875 -40.699219 C 41.550781 -40.480469 37.304688 -40.261719 33.015625 -40.214844 C 27.539062 -40.261719 22.042969 -40.230469 16.566406 -39.550781 C 14.832031 -39.359375 13 -39.105469 11.230469 -38.757812 C 11.105469 -38.542969 10.898438 -38.347656 10.789062 -38.207031 C 9.511719 -37.515625 8.566406 -36.507812 8.082031 -34.996094 C 7.644531 -33.71875 7.792969 -32.152344 8.503906 -30.949219 L 7.539062 -21.953125 L 6.476562 -12.492188 C 6.128906 -9.742188 5.6875 -6.933594 5.585938 -4.210938 C 4.460938 -2.351562 5.277344 0.246094 7.039062 1.429688 C 6.878906 1.800781 6.8125 2.109375 6.882812 2.527344 C 7.21875 3.972656 8.59375 4.347656 9.875 4.382812 C 10.183594 4.449219 10.664062 4.46875 10.664062 4.46875 C 10.570312 4.53125 15.25 4.164062 16.308594 3.746094 L 16.402344 3.683594 C 17.335938 3.480469 18.25 3.355469 19.183594 3.152344 C 19.351562 3.105469 19.601562 3.078125 19.773438 3.035156 L 19.847656 3.050781 C 22.628906 2.519531 25.449219 2.15625 28.273438 1.792969 C 34.167969 1.042969 40.191406 0.800781 46.132812 0.949219 C 46.613281 0.96875 46.910156 0.710938 47.070312 0.34375 Z M 31.910156 -20.027344 L 31.9375 -19.78125 C 31.441406 -19.726562 31.023438 -19.65625 30.511719 -19.523438 C 26.320312 -18.808594 21.992188 -18.203125 17.796875 -17.085938 C 18.53125 -17.492188 19.160156 -18.167969 19.496094 -18.980469 C 21.046875 -19.050781 22.609375 -19.199219 24.253906 -19.332031 C 26.8125 -19.589844 29.351562 -19.769531 31.910156 -20.027344 Z M 9.121094 3.007812 C 10.75 2.953125 12.347656 2.652344 13.929688 2.425781 C 15.496094 2.277344 17 2.035156 18.503906 1.792969 L 18.472656 1.949219 C 17.183594 2.316406 15.890625 2.6875 14.523438 3.039062 C 13.917969 3.230469 13.234375 3.40625 12.550781 3.582031 C 12.457031 3.644531 12.378906 3.628906 12.300781 3.609375 C 12.054688 3.636719 10.246094 3.410156 9.121094 3.007812 Z M 9.121094 3.007812 "/></g></g></g><g fill="#39ff14" fill-opacity="1"><g transform="translate(72.09297, 109.936917)"><g><path d="M 10.527344 -40.363281 C 10.339844 -40.242188 10.289062 -40.011719 10.425781 -39.902344 C 12.289062 -40.308594 14.136719 -40.636719 16.027344 -40.796875 C 21.503906 -41.476562 27 -41.507812 32.496094 -41.539062 C 35.652344 -41.585938 38.90625 -41.695312 42.082031 -41.820312 C 41.386719 -41.96875 40.691406 -42.121094 39.980469 -42.191406 C 36.613281 -42.671875 33.316406 -42.734375 30.019531 -42.796875 L 28.144531 -42.714844 C 22.273438 -42.441406 16.199219 -41.972656 10.527344 -40.363281 Z M 47.070312 0.34375 C 48.148438 -0.152344 48.996094 -1.101562 49.21875 -2.507812 C 49.855469 -6.972656 49.847656 -14.078125 43.640625 -14.121094 C 42.742188 -14.070312 41.886719 -13.851562 40.988281 -13.800781 L 37.777344 -13.519531 C 35.792969 -13.300781 33.792969 -13.003906 31.792969 -12.707031 C 30.550781 -12.570312 29.292969 -12.355469 28.039062 -12.140625 L 20.929688 -11.003906 C 19.085938 -10.675781 17.238281 -10.34375 15.375 -9.9375 L 15.109375 -9.832031 C 15.140625 -9.988281 15.160156 -10.0625 15.175781 -10.140625 L 15.789062 -15.257812 C 18.183594 -15.875 20.5 -16.507812 22.933594 -16.953125 C 26.894531 -17.714844 30.769531 -18.09375 34.6875 -18.300781 C 36.640625 -18.367188 38.652344 -18.339844 40.570312 -18.25 C 42.429688 -18.253906 44.109375 -17.8125 45.894531 -18.234375 C 47.433594 -18.632812 48.722656 -20.132812 48.730469 -21.664062 C 48.742188 -22.46875 48.445312 -23.339844 47.832031 -23.875 C 47.757812 -23.890625 47.757812 -23.890625 47.695312 -23.984375 C 47.683594 -24.308594 47.597656 -24.652344 47.507812 -24.992188 C 47.464844 -25.164062 47.4375 -25.414062 47.332031 -25.675781 C 46.648438 -27.761719 44.8125 -28.238281 42.867188 -28.574219 C 41.925781 -28.695312 41.058594 -28.800781 40.101562 -28.84375 L 39.046875 -28.828125 C 36.429688 -28.664062 33.734375 -28.515625 31.132812 -28.429688 C 26.386719 -27.753906 21.742188 -26.8125 17.023438 -25.890625 C 17.105469 -26.277344 17.242188 -29.152344 17.328125 -29.941406 L 17.515625 -30.0625 C 20.125 -30.550781 22.792969 -30.949219 25.445312 -31.265625 C 26.375 -31.46875 34.511719 -32.144531 38.679688 -32.378906 C 38.835938 -32.347656 39.007812 -32.390625 39.175781 -32.433594 C 41.050781 -32.515625 42.941406 -32.675781 44.757812 -32.851562 L 48.863281 -33.179688 C 49.503906 -34.65625 49.621094 -36.328125 49.425781 -38.0625 C 49.109375 -38.453125 48.726562 -38.941406 48.410156 -39.332031 L 47.273438 -40.058594 C 46.84375 -40.3125 46.320312 -40.507812 45.796875 -40.699219 C 41.550781 -40.480469 37.304688 -40.261719 33.015625 -40.214844 C 27.539062 -40.261719 22.042969 -40.230469 16.566406 -39.550781 C 14.832031 -39.359375 13 -39.105469 11.230469 -38.757812 C 11.105469 -38.542969 10.898438 -38.347656 10.789062 -38.207031 C 9.511719 -37.515625 8.566406 -36.507812 8.082031 -34.996094 C 7.644531 -33.71875 7.792969 -32.152344 8.503906 -30.949219 L 7.539062 -21.953125 L 6.476562 -12.492188 C 6.128906 -9.742188 5.6875 -6.933594 5.585938 -4.210938 C 4.460938 -2.351562 5.277344 0.246094 7.039062 1.429688 C 6.878906 1.800781 6.8125 2.109375 6.882812 2.527344 C 7.21875 3.972656 8.59375 4.347656 9.875 4.382812 C 10.183594 4.449219 10.664062 4.46875 10.664062 4.46875 C 10.570312 4.53125 15.25 4.164062 16.308594 3.746094 L 16.402344 3.683594 C 17.335938 3.480469 18.25 3.355469 19.183594 3.152344 C 19.351562 3.105469 19.601562 3.078125 19.773438 3.035156 L 19.847656 3.050781 C 22.628906 2.519531 25.449219 2.15625 28.273438 1.792969 C 34.167969 1.042969 40.191406 0.800781 46.132812 0.949219 C 46.613281 0.96875 46.910156 0.710938 47.070312 0.34375 Z M 31.910156 -20.027344 L 31.9375 -19.78125 C 31.441406 -19.726562 31.023438 -19.65625 30.511719 -19.523438 C 26.320312 -18.808594 21.992188 -18.203125 17.796875 -17.085938 C 18.53125 -17.492188 19.160156 -18.167969 19.496094 -18.980469 C 21.046875 -19.050781 22.609375 -19.199219 24.253906 -19.332031 C 26.8125 -19.589844 29.351562 -19.769531 31.910156 -20.027344 Z M 9.121094 3.007812 C 10.75 2.953125 12.347656 2.652344 13.929688 2.425781 C 15.496094 2.277344 17 2.035156 18.503906 1.792969 L 18.472656 1.949219 C 17.183594 2.316406 15.890625 2.6875 14.523438 3.039062 C 13.917969 3.230469 13.234375 3.40625 12.550781 3.582031 C 12.457031 3.644531 12.378906 3.628906 12.300781 3.609375 C 12.054688 3.636719 10.246094 3.410156 9.121094 3.007812 Z M 9.121094 3.007812 "/></g></g></g><g fill="#04080b" fill-opacity="1"><g transform="translate(32.571622, 114.178544)"><g><path d="M 35.023438 -2.289062 C 37.3125 -2.050781 38.8125 -4.96875 37.707031 -6.863281 C 37.390625 -7.335938 37.074219 -7.730469 36.761719 -8.125 C 36.839844 -8.519531 36.917969 -8.992188 36.917969 -9.386719 C 36.917969 -10.570312 36.050781 -11.4375 35.183594 -12.070312 C 34.234375 -12.78125 32.894531 -12.9375 31.710938 -13.015625 C 30.210938 -13.09375 28.636719 -13.015625 27.058594 -13.015625 C 23.191406 -12.9375 19.246094 -12.464844 15.539062 -11.515625 C 15.539062 -11.675781 15.621094 -11.753906 15.621094 -11.992188 L 15.621094 -12.148438 C 15.539062 -12.070312 15.460938 -12.070312 15.460938 -12.070312 L 15.226562 -16.09375 C 15.066406 -20.273438 14.832031 -24.453125 14.515625 -28.636719 C 14.199219 -32.578125 13.882812 -36.601562 13.488281 -40.625 C 13.09375 -43.9375 13.015625 -47.726562 10.886719 -50.484375 C 10.808594 -50.722656 10.492188 -50.566406 10.570312 -50.328125 C 11.4375 -48.75 11.675781 -47.015625 11.753906 -45.28125 C 11.832031 -43.9375 11.992188 -41.019531 11.910156 -39.125 L 11.515625 -41.414062 C 11.121094 -44.253906 10.648438 -47.09375 10.097656 -49.933594 C 9.464844 -50.40625 8.757812 -50.644531 8.046875 -50.800781 C 7.414062 -51.117188 6.625 -51.433594 5.835938 -51.511719 C 3.390625 -51.90625 1.105469 -50.484375 1.339844 -47.882812 C 1.8125 -40.46875 2.601562 -33.050781 3.3125 -25.558594 C 3.707031 -21.851562 4.101562 -18.066406 4.574219 -14.355469 C 4.496094 -11.28125 4.496094 -8.203125 4.339844 -5.128906 C 4.339844 -4.339844 4.261719 -3.628906 4.261719 -2.839844 C 4.101562 -0.789062 6.3125 0.710938 8.203125 0.238281 C 16.960938 -2.128906 26.03125 -2.917969 35.023438 -2.289062 Z M 2.996094 -45.199219 C 2.917969 -46.699219 2.128906 -49.144531 3.945312 -49.855469 C 4.339844 -50.011719 4.8125 -50.089844 5.128906 -50.089844 C 4.96875 -49.855469 4.8125 -49.539062 4.734375 -49.304688 L 4.496094 -46.621094 C 3.867188 -44.570312 4.261719 -41.808594 4.339844 -39.914062 C 4.417969 -36.050781 4.496094 -32.183594 4.574219 -28.320312 L 4.574219 -23.980469 C 4.179688 -29.582031 3.867188 -35.183594 3.390625 -40.863281 C 3.234375 -42.28125 3.15625 -43.78125 2.996094 -45.199219 Z M 33.683594 0.945312 C 34.710938 1.027344 34.710938 -0.710938 33.683594 -0.789062 C 29.1875 -0.867188 24.691406 -0.710938 20.195312 -0.316406 C 18.222656 -0.15625 16.25 0.078125 14.199219 0.316406 C 12.148438 0.632812 9.78125 0.789062 7.96875 1.65625 C 7.886719 1.734375 7.886719 1.8125 7.96875 1.8125 C 10.019531 2.050781 12.304688 1.421875 14.355469 1.261719 C 16.488281 1.027344 18.617188 0.867188 20.746094 0.789062 C 25.085938 0.550781 29.34375 0.632812 33.683594 0.945312 Z M 33.683594 0.945312 "/></g></g></g><g fill="#39ff14" fill-opacity="1"><g transform="translate(36.393644, 114.178544)"><g><path d="M 35.023438 -2.289062 C 37.3125 -2.050781 38.8125 -4.96875 37.707031 -6.863281 C 37.390625 -7.335938 37.074219 -7.730469 36.761719 -8.125 C 36.839844 -8.519531 36.917969 -8.992188 36.917969 -9.386719 C 36.917969 -10.570312 36.050781 -11.4375 35.183594 -12.070312 C 34.234375 -12.78125 32.894531 -12.9375 31.710938 -13.015625 C 30.210938 -13.09375 28.636719 -13.015625 27.058594 -13.015625 C 23.191406 -12.9375 19.246094 -12.464844 15.539062 -11.515625 C 15.539062 -11.675781 15.621094 -11.753906 15.621094 -11.992188 L 15.621094 -12.148438 C 15.539062 -12.070312 15.460938 -12.070312 15.460938 -12.070312 L 15.226562 -16.09375 C 15.066406 -20.273438 14.832031 -24.453125 14.515625 -28.636719 C 14.199219 -32.578125 13.882812 -36.601562 13.488281 -40.625 C 13.09375 -43.9375 13.015625 -47.726562 10.886719 -50.484375 C 10.808594 -50.722656 10.492188 -50.566406 10.570312 -50.328125 C 11.4375 -48.75 11.675781 -47.015625 11.753906 -45.28125 C 11.832031 -43.9375 11.992188 -41.019531 11.910156 -39.125 L 11.515625 -41.414062 C 11.121094 -44.253906 10.648438 -47.09375 10.097656 -49.933594 C 9.464844 -50.40625 8.757812 -50.644531 8.046875 -50.800781 C 7.414062 -51.117188 6.625 -51.433594 5.835938 -51.511719 C 3.390625 -51.90625 1.105469 -50.484375 1.339844 -47.882812 C 1.8125 -40.46875 2.601562 -33.050781 3.3125 -25.558594 C 3.707031 -21.851562 4.101562 -18.066406 4.574219 -14.355469 C 4.496094 -11.28125 4.496094 -8.203125 4.339844 -5.128906 C 4.339844 -4.339844 4.261719 -3.628906 4.261719 -2.839844 C 4.101562 -0.789062 6.3125 0.710938 8.203125 0.238281 C 16.960938 -2.128906 26.03125 -2.917969 35.023438 -2.289062 Z M 2.996094 -45.199219 C 2.917969 -46.699219 2.128906 -49.144531 3.945312 -49.855469 C 4.339844 -50.011719 4.8125 -50.089844 5.128906 -50.089844 C 4.96875 -49.855469 4.8125 -49.539062 4.734375 -49.304688 L 4.496094 -46.621094 C 3.867188 -44.570312 4.261719 -41.808594 4.339844 -39.914062 C 4.417969 -36.050781 4.496094 -32.183594 4.574219 -28.320312 L 4.574219 -23.980469 C 4.179688 -29.582031 3.867188 -35.183594 3.390625 -40.863281 C 3.234375 -42.28125 3.15625 -43.78125 2.996094 -45.199219 Z M 33.683594 0.945312 C 34.710938 1.027344 34.710938 -0.710938 33.683594 -0.789062 C 29.1875 -0.867188 24.691406 -0.710938 20.195312 -0.316406 C 18.222656 -0.15625 16.25 0.078125 14.199219 0.316406 C 12.148438 0.632812 9.78125 0.789062 7.96875 1.65625 C 7.886719 1.734375 7.886719 1.8125 7.96875 1.8125 C 10.019531 2.050781 12.304688 1.421875 14.355469 1.261719 C 16.488281 1.027344 18.617188 0.867188 20.746094 0.789062 C 25.085938 0.550781 29.34375 0.632812 33.683594 0.945312 Z M 33.683594 0.945312 "/></g></g></g></svg>