<svg xmlns="http://www.w3.org/2000/svg" xmlns:xlink="http://www.w3.org/1999/xlink" width="150" zoomAndPan="magnify" viewBox="0 0 112.5 187.499992" height="250" preserveAspectRatio="xMidYMid meet" version="1.0"><defs><clipPath id="dc8000d077"><path d="M 15 75 L 93 75 L 93 112 L 15 112 Z M 15 75 " clip-rule="nonzero"/></clipPath><clipPath id="7861cb43d7"><path d="M 91.414062 115.746094 L 13.359375 108.367188 L 16.734375 72.6875 L 94.789062 80.0625 Z M 91.414062 115.746094 " clip-rule="nonzero"/></clipPath><clipPath id="2d6884de56"><path d="M 91.414062 115.746094 L 13.359375 108.367188 L 16.734375 72.6875 L 94.789062 80.0625 Z M 91.414062 115.746094 " clip-rule="nonzero"/></clipPath><clipPath id="763f25de1b"><path d="M 13 74 L 91 74 L 91 110 L 13 110 Z M 13 74 " clip-rule="nonzero"/></clipPath><clipPath id="682af9b74c"><path d="M 89.253906 114.246094 L 11.199219 106.867188 L 14.574219 71.183594 L 92.625 78.5625 Z M 89.253906 114.246094 " clip-rule="nonzero"/></clipPath><clipPath id="7c2e4626ea"><path d="M 89.253906 114.246094 L 11.199219 106.867188 L 14.574219 71.183594 L 92.625 78.5625 Z M 89.253906 114.246094 " clip-rule="nonzero"/></clipPath></defs><g clip-path="url(#dc8000d077)"><g clip-path="url(#7861cb43d7)"><g clip-path="url(#2d6884de56)"><path fill="#04080b" d="M 15.242188 94.214844 C 15.359375 95.21875 15.941406 96.289062 15.777344 97.070312 C 15.171875 99.910156 16.824219 100.945312 18.929688 101.867188 C 27.804688 105.773438 36.90625 108.992188 46.390625 111.0625 C 49.785156 111.804688 50.71875 110.960938 50.277344 107.519531 C 50.222656 107.09375 50.101562 106.675781 50.027344 106.246094 C 49.785156 104.8125 48.796875 104.070312 47.484375 104.1875 C 46.195312 104.304688 45.089844 103.898438 43.957031 103.554688 C 41.054688 102.6875 38.183594 101.726562 35.300781 100.800781 C 35.226562 100.632812 35.226562 100.46875 35.304688 100.304688 C 38.511719 100.332031 41.71875 100.253906 44.910156 100.414062 C 53.097656 100.820312 61.292969 99.621094 69.507812 100.785156 C 73.414062 101.335938 77.460938 101.0625 81.429688 100.871094 C 84.554688 100.71875 87.65625 101.246094 90.765625 100.886719 C 92.351562 100.703125 92.675781 100.335938 91.878906 98.984375 C 90.296875 96.28125 88.636719 93.585938 84.792969 94.042969 C 84.117188 94.125 83.414062 93.984375 82.714844 93.992188 C 76.222656 94.035156 69.734375 93.785156 63.25 93.585938 C 56.242188 93.375 49.234375 93.1875 42.222656 93.007812 C 39.882812 92.945312 37.546875 92.945312 34.976562 92.90625 C 35.796875 91.832031 36.75 91.585938 37.558594 91.136719 C 40.292969 89.625 42.777344 87.75 45.324219 85.957031 C 49.21875 83.21875 48.058594 78.972656 46.542969 76.292969 C 46.257812 75.789062 45.859375 75.480469 45.339844 76.082031 C 43.769531 77.890625 41.597656 78.84375 39.578125 79.992188 C 33.789062 83.292969 27.78125 86.164062 21.769531 89.039062 C 20.210938 89.789062 18.644531 90.523438 17.082031 91.242188 C 15.804688 91.828125 15.035156 92.519531 15.242188 94.214844 Z M 34.257812 100.578125 C 34.214844 100.59375 34.175781 100.597656 34.128906 100.628906 C 34.160156 100.597656 34.199219 100.578125 34.234375 100.5625 C 34.242188 100.5625 34.246094 100.570312 34.257812 100.578125 Z M 34.257812 100.578125 " fill-opacity="1" fill-rule="nonzero"/></g></g></g><g clip-path="url(#763f25de1b)"><g clip-path="url(#682af9b74c)"><g clip-path="url(#7c2e4626ea)"><path fill="#39ff14" d="M 13.082031 92.714844 C 13.199219 93.71875 13.78125 94.785156 13.617188 95.570312 C 13.011719 98.410156 14.664062 99.441406 16.769531 100.367188 C 25.640625 104.273438 34.746094 107.492188 44.230469 109.5625 C 47.625 110.304688 48.558594 109.460938 48.117188 106.019531 C 48.0625 105.59375 47.941406 105.175781 47.867188 104.746094 C 47.621094 103.308594 46.636719 102.570312 45.324219 102.683594 C 44.035156 102.804688 42.929688 102.398438 41.796875 102.054688 C 38.890625 101.1875 36.023438 100.226562 33.140625 99.300781 C 33.066406 99.132812 33.066406 98.96875 33.144531 98.804688 C 36.351562 98.832031 39.558594 98.753906 42.75 98.910156 C 50.9375 99.320312 59.132812 98.121094 67.347656 99.285156 C 71.253906 99.832031 75.300781 99.5625 79.269531 99.371094 C 82.394531 99.21875 85.496094 99.746094 88.605469 99.382812 C 90.1875 99.203125 90.511719 98.832031 89.71875 97.480469 C 88.136719 94.78125 86.476562 92.085938 82.632812 92.542969 C 81.957031 92.625 81.253906 92.480469 80.554688 92.492188 C 74.0625 92.535156 67.574219 92.285156 61.089844 92.085938 C 54.082031 91.871094 47.074219 91.6875 40.0625 91.503906 C 37.722656 91.441406 35.386719 91.441406 32.816406 91.40625 C 33.636719 90.332031 34.589844 90.085938 35.398438 89.636719 C 38.132812 88.125 40.613281 86.246094 43.164062 84.453125 C 47.054688 81.71875 45.898438 77.472656 44.378906 74.789062 C 44.097656 74.289062 43.699219 73.980469 43.179688 74.582031 C 41.609375 76.390625 39.4375 77.34375 37.417969 78.492188 C 31.628906 81.792969 25.621094 84.664062 19.609375 87.539062 C 18.050781 88.285156 16.484375 89.023438 14.917969 89.742188 C 13.644531 90.324219 12.875 91.019531 13.082031 92.714844 Z M 32.097656 99.078125 C 32.054688 99.09375 32.015625 99.097656 31.96875 99.125 C 32 99.09375 32.035156 99.078125 32.074219 99.0625 C 32.078125 99.0625 32.085938 99.070312 32.097656 99.078125 Z M 32.097656 99.078125 " fill-opacity="1" fill-rule="nonzero"/></g></g></g></svg>