<svg xmlns="http://www.w3.org/2000/svg" xmlns:xlink="http://www.w3.org/1999/xlink" width="150" zoomAndPan="magnify" viewBox="0 0 112.5 187.499992" height="250" preserveAspectRatio="xMidYMid meet" version="1.0"><defs><clipPath id="dfb3c990d9"><path d="M 19 76 L 97 76 L 97 112 L 19 112 Z M 19 76 " clip-rule="nonzero"/></clipPath><clipPath id="b18e983497"><path d="M 98.546875 108.683594 L 20.492188 116.058594 L 17.121094 80.378906 L 95.175781 73 Z M 98.546875 108.683594 " clip-rule="nonzero"/></clipPath><clipPath id="03a2955ced"><path d="M 20.492188 116.058594 L 98.546875 108.683594 L 95.175781 73 L 17.121094 80.378906 Z M 20.492188 116.058594 " clip-rule="nonzero"/></clipPath><clipPath id="0f64a1614d"><path d="M 21 73 L 99 73 L 99 110 L 21 110 Z M 21 73 " clip-rule="nonzero"/></clipPath><clipPath id="7c8735be54"><path d="M 100.796875 106.550781 L 22.746094 113.929688 L 19.371094 78.25 L 97.425781 70.871094 Z M 100.796875 106.550781 " clip-rule="nonzero"/></clipPath><clipPath id="0dc97150e1"><path d="M 22.746094 113.929688 L 100.796875 106.550781 L 97.425781 70.871094 L 19.371094 78.25 Z M 22.746094 113.929688 " clip-rule="nonzero"/></clipPath></defs><g clip-path="url(#dfb3c990d9)"><g clip-path="url(#b18e983497)"><g clip-path="url(#03a2955ced)"><path fill="#04080b" d="M 96.667969 94.527344 C 96.546875 95.53125 95.96875 96.601562 96.128906 97.386719 C 96.738281 100.226562 95.082031 101.257812 92.976562 102.179688 C 84.105469 106.089844 75.003906 109.308594 65.515625 111.375 C 62.125 112.117188 61.1875 111.273438 61.628906 107.832031 C 61.6875 107.40625 61.804688 106.988281 61.882812 106.5625 C 62.125 105.125 63.109375 104.382812 64.425781 104.5 C 65.710938 104.621094 66.816406 104.210938 67.953125 103.871094 C 70.855469 103.003906 73.722656 102.042969 76.609375 101.113281 C 76.683594 100.949219 76.679688 100.785156 76.601562 100.617188 C 73.398438 100.644531 70.191406 100.570312 67 100.726562 C 58.808594 101.136719 50.613281 99.9375 42.402344 101.101562 C 38.492188 101.648438 34.449219 101.375 30.476562 101.183594 C 27.351562 101.03125 24.25 101.558594 21.140625 101.199219 C 19.558594 101.019531 19.234375 100.648438 20.03125 99.296875 C 21.609375 96.597656 23.273438 93.902344 27.117188 94.359375 C 27.792969 94.441406 28.496094 94.296875 29.191406 94.308594 C 35.6875 94.347656 42.171875 94.101562 48.65625 93.902344 C 55.664062 93.6875 62.675781 93.5 69.683594 93.320312 C 72.023438 93.257812 74.363281 93.257812 76.929688 93.222656 C 76.113281 92.148438 75.15625 91.898438 74.351562 91.453125 C 71.613281 89.9375 69.132812 88.0625 66.585938 86.269531 C 62.691406 83.535156 63.847656 79.285156 65.367188 76.605469 C 65.652344 76.101562 66.050781 75.796875 66.566406 76.394531 C 68.140625 78.207031 70.3125 79.160156 72.332031 80.304688 C 78.117188 83.605469 84.128906 86.480469 90.136719 89.351562 C 91.699219 90.101562 93.261719 90.835938 94.828125 91.558594 C 96.105469 92.140625 96.871094 92.832031 96.667969 94.527344 Z M 77.648438 100.890625 C 77.691406 100.910156 77.734375 100.910156 77.777344 100.941406 C 77.746094 100.910156 77.710938 100.894531 77.675781 100.875 C 77.667969 100.875 77.660156 100.882812 77.648438 100.890625 Z M 77.648438 100.890625 " fill-opacity="1" fill-rule="nonzero"/></g></g></g><g clip-path="url(#0f64a1614d)"><g clip-path="url(#7c8735be54)"><g clip-path="url(#0dc97150e1)"><path fill="#39ff14" d="M 98.917969 92.398438 C 98.800781 93.402344 98.21875 94.472656 98.382812 95.257812 C 98.988281 98.097656 97.332031 99.128906 95.226562 100.050781 C 86.355469 103.960938 77.253906 107.179688 67.765625 109.246094 C 64.375 109.988281 63.441406 109.144531 63.878906 105.703125 C 63.9375 105.277344 64.054688 104.859375 64.132812 104.433594 C 64.375 102.996094 65.359375 102.253906 66.675781 102.371094 C 67.960938 102.492188 69.070312 102.082031 70.203125 101.742188 C 73.105469 100.875 75.972656 99.914062 78.859375 98.984375 C 78.933594 98.820312 78.929688 98.65625 78.851562 98.488281 C 75.648438 98.515625 72.441406 98.441406 69.25 98.597656 C 61.0625 99.003906 52.867188 97.808594 44.652344 98.972656 C 40.746094 99.519531 36.699219 99.246094 32.730469 99.054688 C 29.605469 98.902344 26.503906 99.429688 23.390625 99.070312 C 21.808594 98.886719 21.484375 98.519531 22.28125 97.167969 C 23.859375 94.46875 25.523438 91.773438 29.367188 92.230469 C 30.042969 92.308594 30.746094 92.167969 31.445312 92.179688 C 37.9375 92.21875 44.425781 91.972656 50.910156 91.773438 C 57.914062 91.558594 64.925781 91.371094 71.9375 91.191406 C 74.273438 91.128906 76.613281 91.128906 79.183594 91.09375 C 78.363281 90.019531 77.410156 89.769531 76.601562 89.324219 C 73.863281 87.808594 71.382812 85.933594 68.835938 84.140625 C 64.941406 81.40625 66.097656 77.15625 67.617188 74.476562 C 67.902344 73.972656 68.300781 73.667969 68.820312 74.265625 C 70.390625 76.074219 72.5625 77.03125 74.582031 78.175781 C 80.371094 81.476562 86.378906 84.351562 92.386719 87.222656 C 93.949219 87.972656 95.515625 88.707031 97.078125 89.429688 C 98.355469 90.011719 99.125 90.703125 98.917969 92.398438 Z M 79.898438 98.761719 C 79.941406 98.78125 79.984375 98.78125 80.027344 98.8125 C 80 98.78125 79.960938 98.765625 79.925781 98.746094 C 79.917969 98.746094 79.914062 98.753906 79.898438 98.761719 Z M 79.898438 98.761719 " fill-opacity="1" fill-rule="nonzero"/></g></g></g></svg>